M48
; DRILL file {KiCad (5.1.8-0-10_14)} date Wednesday, September 01, 2021 at 06:12:38 AM
; FORMAT={-:-/ absolute / inch / decimal}
; #@! TF.CreationDate,2021-09-01T06:12:38+09:00
; #@! TF.GenerationSoftware,Kicad,Pcbnew,(5.1.8-0-10_14)
FMAT,2
INCH
T1C0.0157
T2C0.0400
T3C0.0579
T4C0.0689
T5C0.1200
T6C0.1570
%
G90
G05
T1
X0.4688Y-0.9375
X0.6562Y-1.875
X1.032Y-2.0024
X1.125Y-2.0625
X1.3115Y-1.091
X1.3776Y-1.107
X1.5938Y-2.0625
X1.7812Y-2.8125
X2.7188Y-1.3125
X2.7188Y-3.6562
X3.0938Y-2.0625
X3.2812Y-2.8125
X3.4125Y-2.3375
X4.2188Y-1.3125
X4.5938Y-2.0625
X4.7812Y-2.8125
X4.7812Y-3.6562
X4.9269Y-2.3522
X5.7188Y-1.3125
X6.0Y-3.5625
X6.0938Y-2.0625
X6.1322Y-1.5747
X6.2812Y-2.8125
X7.2188Y-1.3125
X7.5Y-3.5625
X7.5938Y-2.0625
X7.6649Y-1.5268
X7.7812Y-2.8125
X8.7188Y-1.3125
X9.0899Y-1.4546
X9.0938Y-2.0625
X9.75Y-1.3125
X10.4062Y-2.8125
X10.5817Y-1.2348
T2
X-0.0938Y-0.825
X-0.0938Y-1.425
X0.0062Y-0.825
X0.0062Y-1.425
X0.1062Y-0.825
X0.1062Y-1.425
X0.2062Y-0.825
X0.2062Y-1.425
X0.3062Y-0.825
X0.3062Y-1.425
X0.4062Y-0.825
X0.4062Y-1.425
X0.5062Y-0.825
X0.5062Y-1.425
X0.6062Y-0.825
X0.6062Y-1.425
X0.7062Y-0.825
X0.7062Y-1.425
X0.8063Y-0.825
X0.8063Y-1.425
X0.9062Y-0.825
X0.9062Y-1.425
X1.0062Y-0.825
X1.0062Y-1.425
T3
X2.85Y-2.525
X3.1Y-2.425
X10.5375Y-1.025
X10.7875Y-0.925
X3.6Y-4.025
X3.85Y-3.925
X7.5375Y-1.025
X7.7875Y-0.925
X7.725Y-3.275
X7.975Y-3.175
X5.6625Y-1.775
X5.9125Y-1.675
X1.1625Y-1.775
X1.4125Y-1.675
X2.475Y-3.275
X2.725Y-3.175
X1.9125Y-1.775
X2.1625Y-1.675
X8.85Y-2.525
X9.1Y-2.425
X4.725Y-3.275
X4.975Y-3.175
X0.7875Y-1.025
X1.0375Y-0.925
X11.2875Y-3.275
X11.5375Y-3.175
X9.7875Y-4.025
X10.0375Y-3.925
X8.2875Y-4.025
X8.5375Y-3.925
X7.9125Y-1.775
X8.1625Y-1.675
X4.35Y-2.525
X4.6Y-2.425
X2.2875Y-1.025
X2.5375Y-0.925
X10.35Y-1.775
X10.6Y-1.675
X4.9125Y-1.775
X5.1625Y-1.675
X3.0375Y-1.025
X3.2875Y-0.925
X5.85Y-4.025
X6.1Y-3.925
X11.2875Y-1.025
X11.5375Y-0.925
X8.6625Y-1.775
X8.9125Y-1.675
X3.6Y-2.525
X3.85Y-2.425
X0.1313Y-4.025
X0.3812Y-3.925
X7.1625Y-1.775
X7.4125Y-1.675
X5.1Y-2.525
X5.35Y-2.425
X5.2875Y-1.025
X5.5375Y-0.925
X9.0375Y-4.025
X9.2875Y-3.925
X10.5375Y-4.025
X10.7875Y-3.925
X3.7875Y-1.025
X4.0375Y-0.925
X9.5062Y-3.275
X9.7562Y-3.175
X5.85Y-2.525
X6.1Y-2.425
X10.5375Y-3.275
X10.7875Y-3.175
X10.0687Y-2.525
X10.3187Y-2.425
X0.0375Y-1.025
X0.2875Y-0.925
X6.6Y-2.525
X6.85Y-2.425
X1.725Y-3.275
X1.975Y-3.175
X1.35Y-2.525
X1.6Y-2.425
X11.2875Y-4.025
X11.5375Y-3.925
X9.0375Y-1.025
X9.2875Y-0.925
X6.975Y-3.275
X7.225Y-3.175
X6.0375Y-1.025
X6.2875Y-0.925
X9.7875Y-1.025
X10.0375Y-0.925
X7.4437Y-4.025
X7.6937Y-3.925
X4.5375Y-1.025
X4.7875Y-0.925
X2.6625Y-1.775
X2.9125Y-1.675
X9.409Y-1.775
X9.659Y-1.675
X0.3187Y-2.525
X0.5687Y-2.425
X10.1625Y-1.025
X10.4125Y-0.925
X11.2875Y-1.775
X11.5375Y-1.675
X4.1625Y-1.775
X4.4125Y-1.675
X6.7875Y-1.025
X7.0375Y-0.925
X1.5375Y-1.025
X1.7875Y-0.925
X6.225Y-3.275
X6.475Y-3.175
X5.475Y-3.275
X5.725Y-3.175
X8.1Y-2.525
X8.35Y-2.425
X2.1Y-2.525
X2.35Y-2.425
X1.0687Y-4.025
X1.3187Y-3.925
X3.975Y-3.275
X4.225Y-3.175
X6.4125Y-1.775
X6.6625Y-1.675
X8.475Y-3.275
X8.725Y-3.175
X3.225Y-3.275
X3.475Y-3.175
X3.4125Y-1.775
X3.6625Y-1.675
X8.2875Y-1.025
X8.5375Y-0.925
X0.5062Y-3.275
X0.7562Y-3.175
X11.2875Y-2.525
X11.5375Y-2.425
X2.0063Y-4.025
X2.2563Y-3.925
X7.35Y-2.525
X7.6Y-2.425
X0.225Y-1.775
X0.475Y-1.675
T4
X5.2375Y-1.125
X5.6375Y-1.125
X8.9875Y-4.125
X9.3875Y-4.125
X10.4875Y-4.125
X10.8875Y-4.125
X3.7375Y-1.125
X4.1375Y-1.125
X9.4562Y-3.375
X9.8562Y-3.375
X5.8Y-2.625
X6.2Y-2.625
X10.4875Y-3.375
X10.8875Y-3.375
X10.0187Y-2.625
X10.4187Y-2.625
X-0.0125Y-1.125
X0.3875Y-1.125
X6.55Y-2.625
X6.95Y-2.625
X1.675Y-3.375
X2.075Y-3.375
X1.3Y-2.625
X1.7Y-2.625
X11.2375Y-4.125
X11.6375Y-4.125
X8.9875Y-1.125
X9.3875Y-1.125
X6.925Y-3.375
X7.325Y-3.375
X5.9875Y-1.125
X6.3875Y-1.125
X9.7375Y-1.125
X10.1375Y-1.125
X7.3937Y-4.125
X7.7938Y-4.125
X4.4875Y-1.125
X4.8875Y-1.125
X2.6125Y-1.875
X3.0125Y-1.875
X9.359Y-1.875
X9.759Y-1.875
X0.2687Y-2.625
X0.6687Y-2.625
X10.1125Y-1.125
X10.5125Y-1.125
X11.2375Y-1.875
X11.6375Y-1.875
X4.1125Y-1.875
X4.5125Y-1.875
X6.7375Y-1.125
X7.1375Y-1.125
X1.4875Y-1.125
X1.8875Y-1.125
X6.175Y-3.375
X6.575Y-3.375
X5.425Y-3.375
X5.825Y-3.375
X8.05Y-2.625
X8.45Y-2.625
X2.05Y-2.625
X2.45Y-2.625
X1.0188Y-4.125
X1.4187Y-4.125
X3.925Y-3.375
X4.325Y-3.375
X6.3625Y-1.875
X6.7625Y-1.875
X8.425Y-3.375
X8.825Y-3.375
X3.175Y-3.375
X3.575Y-3.375
X3.3625Y-1.875
X3.7625Y-1.875
X8.2375Y-1.125
X8.6375Y-1.125
X0.4562Y-3.375
X0.8562Y-3.375
X11.2375Y-2.625
X11.6375Y-2.625
X1.9563Y-4.125
X2.3562Y-4.125
X7.3Y-2.625
X7.7Y-2.625
X0.175Y-1.875
X0.575Y-1.875
X2.8Y-2.625
X3.2Y-2.625
X10.4875Y-1.125
X10.8875Y-1.125
X3.55Y-4.125
X3.95Y-4.125
X7.4875Y-1.125
X7.8875Y-1.125
X7.675Y-3.375
X8.075Y-3.375
X5.6125Y-1.875
X6.0125Y-1.875
X1.1125Y-1.875
X1.5125Y-1.875
X2.425Y-3.375
X2.825Y-3.375
X1.8625Y-1.875
X2.2625Y-1.875
X8.8Y-2.625
X9.2Y-2.625
X4.675Y-3.375
X5.075Y-3.375
X0.7375Y-1.125
X1.1375Y-1.125
X11.2375Y-3.375
X11.6375Y-3.375
X9.7375Y-4.125
X10.1375Y-4.125
X8.2375Y-4.125
X8.6375Y-4.125
X7.8625Y-1.875
X8.2625Y-1.875
X4.3Y-2.625
X4.7Y-2.625
X2.2375Y-1.125
X2.6375Y-1.125
X10.3Y-1.875
X10.7Y-1.875
X4.8625Y-1.875
X5.2625Y-1.875
X2.9875Y-1.125
X3.3875Y-1.125
X5.8Y-4.125
X6.2Y-4.125
X11.2375Y-1.125
X11.6375Y-1.125
X8.6125Y-1.875
X9.0125Y-1.875
X3.55Y-2.625
X3.95Y-2.625
X0.0813Y-4.125
X0.4813Y-4.125
X7.1125Y-1.875
X7.5125Y-1.875
X5.05Y-2.625
X5.45Y-2.625
T5
X9.8438Y-0.85
X10.7812Y-0.85
X0.1875Y-3.1
X1.125Y-3.1
X3.0Y-4.4
X4.5Y-4.4
X5.25Y-4.4
X6.75Y-4.4
X9.75Y-2.35
X10.6875Y-2.35
T6
X2.4375Y-1.125
X10.5Y-1.875
X5.0625Y-1.875
X3.1875Y-1.125
X5.25Y-3.8
X6.0Y-4.125
X6.75Y-3.8
X11.4375Y-1.125
X8.8125Y-1.875
X3.75Y-2.625
X0.2812Y-4.125
X7.3125Y-1.875
X5.25Y-2.625
X5.4375Y-1.125
X9.1875Y-4.125
X10.6875Y-4.125
X3.9375Y-1.125
X9.6562Y-3.375
X6.0Y-2.625
X10.6875Y-3.375
X9.75Y-2.95
X10.2188Y-2.625
X10.6875Y-2.95
X0.1875Y-1.125
X6.75Y-2.625
X1.875Y-3.375
X1.5Y-2.625
X11.4375Y-4.125
X9.1875Y-1.125
X7.125Y-3.375
X6.1875Y-1.125
X9.9375Y-1.125
X7.5938Y-4.125
X4.6875Y-1.125
X2.8125Y-1.875
X9.559Y-1.875
X0.4688Y-2.625
X9.8438Y-1.45
X10.3125Y-1.125
X10.7812Y-1.45
X11.4375Y-1.875
X4.3125Y-1.875
X6.9375Y-1.125
X1.6875Y-1.125
X6.375Y-3.375
X5.625Y-3.375
X8.25Y-2.625
X2.25Y-2.625
X1.2188Y-4.125
X4.125Y-3.375
X6.5625Y-1.875
X8.625Y-3.375
X3.375Y-3.375
X3.5625Y-1.875
X8.4375Y-1.125
X0.1875Y-3.7
X0.6562Y-3.375
X1.125Y-3.7
X11.4375Y-2.625
X2.1562Y-4.125
X7.5Y-2.625
X0.375Y-1.875
X3.0Y-2.625
X10.6875Y-1.125
X3.0Y-3.8
X3.75Y-4.125
X4.5Y-3.8
X7.6875Y-1.125
X7.875Y-3.375
X5.8125Y-1.875
X1.3125Y-1.875
X2.625Y-3.375
X2.0625Y-1.875
X9.0Y-2.625
X4.875Y-3.375
X0.9375Y-1.125
X11.4375Y-3.375
X9.9375Y-4.125
X8.4375Y-4.125
X8.0625Y-1.875
X4.5Y-2.625
T0
M30
