%TF.GenerationSoftware,KiCad,Pcbnew,(5.1.8-0-10_14)*%
%TF.CreationDate,2021-09-01T06:12:34+09:00*%
%TF.ProjectId,ts68,74733638-2e6b-4696-9361-645f70636258,rev?*%
%TF.SameCoordinates,Original*%
%TF.FileFunction,Legend,Bot*%
%TF.FilePolarity,Positive*%
%FSLAX46Y46*%
G04 Gerber Fmt 4.6, Leading zero omitted, Abs format (unit mm)*
G04 Created by KiCad (PCBNEW (5.1.8-0-10_14)) date 2021-09-01 06:12:34*
%MOMM*%
%LPD*%
G01*
G04 APERTURE LIST*
%ADD10C,0.120000*%
%ADD11C,0.150000*%
%ADD12C,0.127000*%
G04 APERTURE END LIST*
D10*
%TO.C,D70*%
X287131250Y-94650000D02*
X287131250Y-98550000D01*
X289131250Y-94650000D02*
X289131250Y-98550000D01*
X287131250Y-94650000D02*
X289131250Y-94650000D01*
%TO.C,D69*%
X282368750Y-73218750D02*
X282368750Y-77118750D01*
X284368750Y-73218750D02*
X284368750Y-77118750D01*
X282368750Y-73218750D02*
X284368750Y-73218750D01*
%TO.C,D68*%
X281987500Y-55368750D02*
X281987500Y-51468750D01*
X279987500Y-55368750D02*
X279987500Y-51468750D01*
X281987500Y-55368750D02*
X279987500Y-55368750D01*
%TO.C,D67*%
X284368750Y-33937500D02*
X284368750Y-30037500D01*
X282368750Y-33937500D02*
X282368750Y-30037500D01*
X284368750Y-33937500D02*
X282368750Y-33937500D01*
%TO.C,D66*%
X262937500Y-107756250D02*
X262937500Y-103856250D01*
X260937500Y-107756250D02*
X260937500Y-103856250D01*
X262937500Y-107756250D02*
X260937500Y-107756250D01*
%TO.C,D65*%
X262937500Y-91087500D02*
X262937500Y-87187500D01*
X260937500Y-91087500D02*
X260937500Y-87187500D01*
X262937500Y-91087500D02*
X260937500Y-91087500D01*
%TO.C,D64*%
X279606250Y-69656250D02*
X279606250Y-65756250D01*
X277606250Y-69656250D02*
X277606250Y-65756250D01*
X279606250Y-69656250D02*
X277606250Y-69656250D01*
%TO.C,D63*%
X258175000Y-52987500D02*
X258175000Y-49087500D01*
X256175000Y-52987500D02*
X256175000Y-49087500D01*
X258175000Y-52987500D02*
X256175000Y-52987500D01*
%TO.C,D62*%
X279606250Y-33937500D02*
X279606250Y-30037500D01*
X277606250Y-33937500D02*
X277606250Y-30037500D01*
X279606250Y-33937500D02*
X277606250Y-33937500D01*
%TO.C,D61*%
X258556250Y-94650000D02*
X258556250Y-98550000D01*
X260556250Y-94650000D02*
X260556250Y-98550000D01*
X258556250Y-94650000D02*
X260556250Y-94650000D01*
%TO.C,D60*%
X267700000Y-74418750D02*
X267700000Y-70518750D01*
X265700000Y-74418750D02*
X265700000Y-70518750D01*
X267700000Y-74418750D02*
X265700000Y-74418750D01*
%TO.C,D59*%
X246268750Y-38700000D02*
X246268750Y-34800000D01*
X244268750Y-38700000D02*
X244268750Y-34800000D01*
X246268750Y-38700000D02*
X244268750Y-38700000D01*
%TO.C,D58*%
X243887500Y-107756250D02*
X243887500Y-103856250D01*
X241887500Y-107756250D02*
X241887500Y-103856250D01*
X243887500Y-107756250D02*
X241887500Y-107756250D01*
%TO.C,D57*%
X258175000Y-91087500D02*
X258175000Y-87187500D01*
X256175000Y-91087500D02*
X256175000Y-87187500D01*
X258175000Y-91087500D02*
X256175000Y-91087500D01*
%TO.C,D56*%
X239125000Y-72037500D02*
X239125000Y-68137500D01*
X237125000Y-72037500D02*
X237125000Y-68137500D01*
X239125000Y-72037500D02*
X237125000Y-72037500D01*
%TO.C,D55*%
X253412500Y-52987500D02*
X253412500Y-49087500D01*
X251412500Y-52987500D02*
X251412500Y-49087500D01*
X253412500Y-52987500D02*
X251412500Y-52987500D01*
%TO.C,D54*%
X241506250Y-33937500D02*
X241506250Y-30037500D01*
X239506250Y-33937500D02*
X239506250Y-30037500D01*
X241506250Y-33937500D02*
X239506250Y-33937500D01*
%TO.C,D53*%
X220456250Y-94650000D02*
X220456250Y-98550000D01*
X222456250Y-94650000D02*
X222456250Y-98550000D01*
X220456250Y-94650000D02*
X222456250Y-94650000D01*
%TO.C,D52*%
X227600000Y-75600000D02*
X227600000Y-79500000D01*
X229600000Y-75600000D02*
X229600000Y-79500000D01*
X227600000Y-75600000D02*
X229600000Y-75600000D01*
%TO.C,D51*%
X234362500Y-55368750D02*
X234362500Y-51468750D01*
X232362500Y-55368750D02*
X232362500Y-51468750D01*
X234362500Y-55368750D02*
X232362500Y-55368750D01*
%TO.C,D50*%
X224837500Y-36318750D02*
X224837500Y-32418750D01*
X222837500Y-36318750D02*
X222837500Y-32418750D01*
X224837500Y-36318750D02*
X222837500Y-36318750D01*
%TO.C,D49*%
X203406250Y-107756250D02*
X203406250Y-103856250D01*
X201406250Y-107756250D02*
X201406250Y-103856250D01*
X203406250Y-107756250D02*
X201406250Y-107756250D01*
%TO.C,D48*%
X210550000Y-91087500D02*
X210550000Y-87187500D01*
X208550000Y-91087500D02*
X208550000Y-87187500D01*
X210550000Y-91087500D02*
X208550000Y-91087500D01*
%TO.C,D47*%
X220075000Y-72037500D02*
X220075000Y-68137500D01*
X218075000Y-72037500D02*
X218075000Y-68137500D01*
X220075000Y-72037500D02*
X218075000Y-72037500D01*
%TO.C,D46*%
X215312500Y-52987500D02*
X215312500Y-49087500D01*
X213312500Y-52987500D02*
X213312500Y-49087500D01*
X215312500Y-52987500D02*
X213312500Y-52987500D01*
%TO.C,D45*%
X205787500Y-33937500D02*
X205787500Y-30037500D01*
X203787500Y-33937500D02*
X203787500Y-30037500D01*
X205787500Y-33937500D02*
X203787500Y-33937500D01*
%TO.C,D44*%
X191500000Y-95850000D02*
X191500000Y-91950000D01*
X189500000Y-95850000D02*
X189500000Y-91950000D01*
X191500000Y-95850000D02*
X189500000Y-95850000D01*
%TO.C,D43*%
X201025000Y-74418750D02*
X201025000Y-70518750D01*
X199025000Y-74418750D02*
X199025000Y-70518750D01*
X201025000Y-74418750D02*
X199025000Y-74418750D01*
%TO.C,D42*%
X196262500Y-55368750D02*
X196262500Y-51468750D01*
X194262500Y-55368750D02*
X194262500Y-51468750D01*
X196262500Y-55368750D02*
X194262500Y-55368750D01*
%TO.C,D41*%
X186737500Y-36318750D02*
X186737500Y-32418750D01*
X184737500Y-36318750D02*
X184737500Y-32418750D01*
X186737500Y-36318750D02*
X184737500Y-36318750D01*
%TO.C,D40*%
X162925000Y-107756250D02*
X162925000Y-103856250D01*
X160925000Y-107756250D02*
X160925000Y-103856250D01*
X162925000Y-107756250D02*
X160925000Y-107756250D01*
%TO.C,D39*%
X172450000Y-91087500D02*
X172450000Y-87187500D01*
X170450000Y-91087500D02*
X170450000Y-87187500D01*
X172450000Y-91087500D02*
X170450000Y-91087500D01*
%TO.C,D38*%
X181975000Y-72037500D02*
X181975000Y-68137500D01*
X179975000Y-72037500D02*
X179975000Y-68137500D01*
X181975000Y-72037500D02*
X179975000Y-72037500D01*
%TO.C,D37*%
X177212500Y-52987500D02*
X177212500Y-49087500D01*
X175212500Y-52987500D02*
X175212500Y-49087500D01*
X177212500Y-52987500D02*
X175212500Y-52987500D01*
%TO.C,D36*%
X167687500Y-33937500D02*
X167687500Y-30037500D01*
X165687500Y-33937500D02*
X165687500Y-30037500D01*
X167687500Y-33937500D02*
X165687500Y-33937500D01*
%TO.C,D35*%
X153400000Y-95850000D02*
X153400000Y-91950000D01*
X151400000Y-95850000D02*
X151400000Y-91950000D01*
X153400000Y-95850000D02*
X151400000Y-95850000D01*
%TO.C,D34*%
X162925000Y-74418750D02*
X162925000Y-70518750D01*
X160925000Y-74418750D02*
X160925000Y-70518750D01*
X162925000Y-74418750D02*
X160925000Y-74418750D01*
%TO.C,D33*%
X158162500Y-55368750D02*
X158162500Y-51468750D01*
X156162500Y-55368750D02*
X156162500Y-51468750D01*
X158162500Y-55368750D02*
X156162500Y-55368750D01*
%TO.C,D32*%
X148637500Y-36318750D02*
X148637500Y-32418750D01*
X146637500Y-36318750D02*
X146637500Y-32418750D01*
X148637500Y-36318750D02*
X146637500Y-36318750D01*
%TO.C,D31*%
X134350000Y-91087500D02*
X134350000Y-87187500D01*
X132350000Y-91087500D02*
X132350000Y-87187500D01*
X134350000Y-91087500D02*
X132350000Y-91087500D01*
%TO.C,D30*%
X143875000Y-72037500D02*
X143875000Y-68137500D01*
X141875000Y-72037500D02*
X141875000Y-68137500D01*
X143875000Y-72037500D02*
X141875000Y-72037500D01*
%TO.C,D29*%
X139112500Y-52987500D02*
X139112500Y-49087500D01*
X137112500Y-52987500D02*
X137112500Y-49087500D01*
X139112500Y-52987500D02*
X137112500Y-52987500D01*
%TO.C,D28*%
X129587500Y-33937500D02*
X129587500Y-30037500D01*
X127587500Y-33937500D02*
X127587500Y-30037500D01*
X129587500Y-33937500D02*
X127587500Y-33937500D01*
%TO.C,D27*%
X124825000Y-95850000D02*
X124825000Y-91950000D01*
X122825000Y-95850000D02*
X122825000Y-91950000D01*
X124825000Y-95850000D02*
X122825000Y-95850000D01*
%TO.C,D26*%
X124825000Y-74418750D02*
X124825000Y-70518750D01*
X122825000Y-74418750D02*
X122825000Y-70518750D01*
X124825000Y-74418750D02*
X122825000Y-74418750D01*
%TO.C,D25*%
X120062500Y-55368750D02*
X120062500Y-51468750D01*
X118062500Y-55368750D02*
X118062500Y-51468750D01*
X120062500Y-55368750D02*
X118062500Y-55368750D01*
%TO.C,D24*%
X110537500Y-36318750D02*
X110537500Y-32418750D01*
X108537500Y-36318750D02*
X108537500Y-32418750D01*
X110537500Y-36318750D02*
X108537500Y-36318750D01*
%TO.C,D23*%
X105775000Y-107756250D02*
X105775000Y-103856250D01*
X103775000Y-107756250D02*
X103775000Y-103856250D01*
X105775000Y-107756250D02*
X103775000Y-107756250D01*
%TO.C,D22*%
X96250000Y-91087500D02*
X96250000Y-87187500D01*
X94250000Y-91087500D02*
X94250000Y-87187500D01*
X96250000Y-91087500D02*
X94250000Y-91087500D01*
%TO.C,D21*%
X105775000Y-72037500D02*
X105775000Y-68137500D01*
X103775000Y-72037500D02*
X103775000Y-68137500D01*
X105775000Y-72037500D02*
X103775000Y-72037500D01*
%TO.C,D20*%
X101012500Y-52987500D02*
X101012500Y-49087500D01*
X99012500Y-52987500D02*
X99012500Y-49087500D01*
X101012500Y-52987500D02*
X99012500Y-52987500D01*
%TO.C,D19*%
X91487500Y-33937500D02*
X91487500Y-30037500D01*
X89487500Y-33937500D02*
X89487500Y-30037500D01*
X91487500Y-33937500D02*
X89487500Y-33937500D01*
%TO.C,D18*%
X67675000Y-95850000D02*
X67675000Y-91950000D01*
X65675000Y-95850000D02*
X65675000Y-91950000D01*
X67675000Y-95850000D02*
X65675000Y-95850000D01*
%TO.C,D17*%
X86725000Y-74418750D02*
X86725000Y-70518750D01*
X84725000Y-74418750D02*
X84725000Y-70518750D01*
X86725000Y-74418750D02*
X84725000Y-74418750D01*
%TO.C,D16*%
X81962500Y-55368750D02*
X81962500Y-51468750D01*
X79962500Y-55368750D02*
X79962500Y-51468750D01*
X81962500Y-55368750D02*
X79962500Y-55368750D01*
%TO.C,D15*%
X72437500Y-36318750D02*
X72437500Y-32418750D01*
X70437500Y-36318750D02*
X70437500Y-32418750D01*
X72437500Y-36318750D02*
X70437500Y-36318750D01*
%TO.C,D14*%
X65293750Y-107756250D02*
X65293750Y-103856250D01*
X63293750Y-107756250D02*
X63293750Y-103856250D01*
X65293750Y-107756250D02*
X63293750Y-107756250D01*
%TO.C,D13*%
X58150000Y-91087500D02*
X58150000Y-87187500D01*
X56150000Y-91087500D02*
X56150000Y-87187500D01*
X58150000Y-91087500D02*
X56150000Y-91087500D01*
%TO.C,D12*%
X67675000Y-72037500D02*
X67675000Y-68137500D01*
X65675000Y-72037500D02*
X65675000Y-68137500D01*
X67675000Y-72037500D02*
X65675000Y-72037500D01*
%TO.C,D11*%
X62912500Y-52987500D02*
X62912500Y-49087500D01*
X60912500Y-52987500D02*
X60912500Y-49087500D01*
X62912500Y-52987500D02*
X60912500Y-52987500D01*
%TO.C,D10*%
X53387500Y-33937500D02*
X53387500Y-30037500D01*
X51387500Y-33937500D02*
X51387500Y-30037500D01*
X53387500Y-33937500D02*
X51387500Y-33937500D01*
%TO.C,D9*%
X37100000Y-94650000D02*
X37100000Y-98550000D01*
X39100000Y-94650000D02*
X39100000Y-98550000D01*
X37100000Y-94650000D02*
X39100000Y-94650000D01*
%TO.C,D8*%
X48625000Y-74418750D02*
X48625000Y-70518750D01*
X46625000Y-74418750D02*
X46625000Y-70518750D01*
X48625000Y-74418750D02*
X46625000Y-74418750D01*
%TO.C,D7*%
X43862500Y-55368750D02*
X43862500Y-51468750D01*
X41862500Y-55368750D02*
X41862500Y-51468750D01*
X43862500Y-55368750D02*
X41862500Y-55368750D01*
%TO.C,D6*%
X34562500Y-22812500D02*
X30662500Y-22812500D01*
X34562500Y-24812500D02*
X30662500Y-24812500D01*
X34562500Y-22812500D02*
X34562500Y-24812500D01*
%TO.C,D5*%
X17668750Y-107756250D02*
X17668750Y-103856250D01*
X15668750Y-107756250D02*
X15668750Y-103856250D01*
X17668750Y-107756250D02*
X15668750Y-107756250D01*
%TO.C,D4*%
X34337500Y-88706250D02*
X34337500Y-84806250D01*
X32337500Y-88706250D02*
X32337500Y-84806250D01*
X34337500Y-88706250D02*
X32337500Y-88706250D01*
%TO.C,D3*%
X20050000Y-64893750D02*
X20050000Y-60993750D01*
X18050000Y-64893750D02*
X18050000Y-60993750D01*
X20050000Y-64893750D02*
X18050000Y-64893750D01*
%TO.C,D2*%
X17337500Y-45843750D02*
X17337500Y-41943750D01*
X15337500Y-45843750D02*
X15337500Y-41943750D01*
X17337500Y-45843750D02*
X15337500Y-45843750D01*
%TO.C,D1*%
X13131250Y-25193750D02*
X9231250Y-25193750D01*
X13131250Y-27193750D02*
X9231250Y-27193750D01*
X13131250Y-25193750D02*
X13131250Y-27193750D01*
%TO.C,D70*%
D11*
X286583630Y-95685714D02*
X285583630Y-95685714D01*
X285583630Y-95923809D01*
X285631250Y-96066666D01*
X285726488Y-96161904D01*
X285821726Y-96209523D01*
X286012202Y-96257142D01*
X286155059Y-96257142D01*
X286345535Y-96209523D01*
X286440773Y-96161904D01*
X286536011Y-96066666D01*
X286583630Y-95923809D01*
X286583630Y-95685714D01*
X285583630Y-96590476D02*
X285583630Y-97257142D01*
X286583630Y-96828571D01*
X285583630Y-97828571D02*
X285583630Y-97923809D01*
X285631250Y-98019047D01*
X285678869Y-98066666D01*
X285774107Y-98114285D01*
X285964583Y-98161904D01*
X286202678Y-98161904D01*
X286393154Y-98114285D01*
X286488392Y-98066666D01*
X286536011Y-98019047D01*
X286583630Y-97923809D01*
X286583630Y-97828571D01*
X286536011Y-97733333D01*
X286488392Y-97685714D01*
X286393154Y-97638095D01*
X286202678Y-97590476D01*
X285964583Y-97590476D01*
X285774107Y-97638095D01*
X285678869Y-97685714D01*
X285631250Y-97733333D01*
X285583630Y-97828571D01*
%TO.C,D69*%
X281821130Y-74254464D02*
X280821130Y-74254464D01*
X280821130Y-74492559D01*
X280868750Y-74635416D01*
X280963988Y-74730654D01*
X281059226Y-74778273D01*
X281249702Y-74825892D01*
X281392559Y-74825892D01*
X281583035Y-74778273D01*
X281678273Y-74730654D01*
X281773511Y-74635416D01*
X281821130Y-74492559D01*
X281821130Y-74254464D01*
X280821130Y-75683035D02*
X280821130Y-75492559D01*
X280868750Y-75397321D01*
X280916369Y-75349702D01*
X281059226Y-75254464D01*
X281249702Y-75206845D01*
X281630654Y-75206845D01*
X281725892Y-75254464D01*
X281773511Y-75302083D01*
X281821130Y-75397321D01*
X281821130Y-75587797D01*
X281773511Y-75683035D01*
X281725892Y-75730654D01*
X281630654Y-75778273D01*
X281392559Y-75778273D01*
X281297321Y-75730654D01*
X281249702Y-75683035D01*
X281202083Y-75587797D01*
X281202083Y-75397321D01*
X281249702Y-75302083D01*
X281297321Y-75254464D01*
X281392559Y-75206845D01*
X281821130Y-76254464D02*
X281821130Y-76444940D01*
X281773511Y-76540178D01*
X281725892Y-76587797D01*
X281583035Y-76683035D01*
X281392559Y-76730654D01*
X281011607Y-76730654D01*
X280916369Y-76683035D01*
X280868750Y-76635416D01*
X280821130Y-76540178D01*
X280821130Y-76349702D01*
X280868750Y-76254464D01*
X280916369Y-76206845D01*
X281011607Y-76159226D01*
X281249702Y-76159226D01*
X281344940Y-76206845D01*
X281392559Y-76254464D01*
X281440178Y-76349702D01*
X281440178Y-76540178D01*
X281392559Y-76635416D01*
X281344940Y-76683035D01*
X281249702Y-76730654D01*
%TO.C,D68*%
X283439880Y-51904464D02*
X282439880Y-51904464D01*
X282439880Y-52142559D01*
X282487500Y-52285416D01*
X282582738Y-52380654D01*
X282677976Y-52428273D01*
X282868452Y-52475892D01*
X283011309Y-52475892D01*
X283201785Y-52428273D01*
X283297023Y-52380654D01*
X283392261Y-52285416D01*
X283439880Y-52142559D01*
X283439880Y-51904464D01*
X282439880Y-53333035D02*
X282439880Y-53142559D01*
X282487500Y-53047321D01*
X282535119Y-52999702D01*
X282677976Y-52904464D01*
X282868452Y-52856845D01*
X283249404Y-52856845D01*
X283344642Y-52904464D01*
X283392261Y-52952083D01*
X283439880Y-53047321D01*
X283439880Y-53237797D01*
X283392261Y-53333035D01*
X283344642Y-53380654D01*
X283249404Y-53428273D01*
X283011309Y-53428273D01*
X282916071Y-53380654D01*
X282868452Y-53333035D01*
X282820833Y-53237797D01*
X282820833Y-53047321D01*
X282868452Y-52952083D01*
X282916071Y-52904464D01*
X283011309Y-52856845D01*
X282868452Y-53999702D02*
X282820833Y-53904464D01*
X282773214Y-53856845D01*
X282677976Y-53809226D01*
X282630357Y-53809226D01*
X282535119Y-53856845D01*
X282487500Y-53904464D01*
X282439880Y-53999702D01*
X282439880Y-54190178D01*
X282487500Y-54285416D01*
X282535119Y-54333035D01*
X282630357Y-54380654D01*
X282677976Y-54380654D01*
X282773214Y-54333035D01*
X282820833Y-54285416D01*
X282868452Y-54190178D01*
X282868452Y-53999702D01*
X282916071Y-53904464D01*
X282963690Y-53856845D01*
X283058928Y-53809226D01*
X283249404Y-53809226D01*
X283344642Y-53856845D01*
X283392261Y-53904464D01*
X283439880Y-53999702D01*
X283439880Y-54190178D01*
X283392261Y-54285416D01*
X283344642Y-54333035D01*
X283249404Y-54380654D01*
X283058928Y-54380654D01*
X282963690Y-54333035D01*
X282916071Y-54285416D01*
X282868452Y-54190178D01*
%TO.C,D67*%
X285821130Y-30473214D02*
X284821130Y-30473214D01*
X284821130Y-30711309D01*
X284868750Y-30854166D01*
X284963988Y-30949404D01*
X285059226Y-30997023D01*
X285249702Y-31044642D01*
X285392559Y-31044642D01*
X285583035Y-30997023D01*
X285678273Y-30949404D01*
X285773511Y-30854166D01*
X285821130Y-30711309D01*
X285821130Y-30473214D01*
X284821130Y-31901785D02*
X284821130Y-31711309D01*
X284868750Y-31616071D01*
X284916369Y-31568452D01*
X285059226Y-31473214D01*
X285249702Y-31425595D01*
X285630654Y-31425595D01*
X285725892Y-31473214D01*
X285773511Y-31520833D01*
X285821130Y-31616071D01*
X285821130Y-31806547D01*
X285773511Y-31901785D01*
X285725892Y-31949404D01*
X285630654Y-31997023D01*
X285392559Y-31997023D01*
X285297321Y-31949404D01*
X285249702Y-31901785D01*
X285202083Y-31806547D01*
X285202083Y-31616071D01*
X285249702Y-31520833D01*
X285297321Y-31473214D01*
X285392559Y-31425595D01*
X284821130Y-32330357D02*
X284821130Y-32997023D01*
X285821130Y-32568452D01*
%TO.C,D66*%
X264389880Y-104291964D02*
X263389880Y-104291964D01*
X263389880Y-104530059D01*
X263437500Y-104672916D01*
X263532738Y-104768154D01*
X263627976Y-104815773D01*
X263818452Y-104863392D01*
X263961309Y-104863392D01*
X264151785Y-104815773D01*
X264247023Y-104768154D01*
X264342261Y-104672916D01*
X264389880Y-104530059D01*
X264389880Y-104291964D01*
X263389880Y-105720535D02*
X263389880Y-105530059D01*
X263437500Y-105434821D01*
X263485119Y-105387202D01*
X263627976Y-105291964D01*
X263818452Y-105244345D01*
X264199404Y-105244345D01*
X264294642Y-105291964D01*
X264342261Y-105339583D01*
X264389880Y-105434821D01*
X264389880Y-105625297D01*
X264342261Y-105720535D01*
X264294642Y-105768154D01*
X264199404Y-105815773D01*
X263961309Y-105815773D01*
X263866071Y-105768154D01*
X263818452Y-105720535D01*
X263770833Y-105625297D01*
X263770833Y-105434821D01*
X263818452Y-105339583D01*
X263866071Y-105291964D01*
X263961309Y-105244345D01*
X263389880Y-106672916D02*
X263389880Y-106482440D01*
X263437500Y-106387202D01*
X263485119Y-106339583D01*
X263627976Y-106244345D01*
X263818452Y-106196726D01*
X264199404Y-106196726D01*
X264294642Y-106244345D01*
X264342261Y-106291964D01*
X264389880Y-106387202D01*
X264389880Y-106577678D01*
X264342261Y-106672916D01*
X264294642Y-106720535D01*
X264199404Y-106768154D01*
X263961309Y-106768154D01*
X263866071Y-106720535D01*
X263818452Y-106672916D01*
X263770833Y-106577678D01*
X263770833Y-106387202D01*
X263818452Y-106291964D01*
X263866071Y-106244345D01*
X263961309Y-106196726D01*
%TO.C,D65*%
X264389880Y-87623214D02*
X263389880Y-87623214D01*
X263389880Y-87861309D01*
X263437500Y-88004166D01*
X263532738Y-88099404D01*
X263627976Y-88147023D01*
X263818452Y-88194642D01*
X263961309Y-88194642D01*
X264151785Y-88147023D01*
X264247023Y-88099404D01*
X264342261Y-88004166D01*
X264389880Y-87861309D01*
X264389880Y-87623214D01*
X263389880Y-89051785D02*
X263389880Y-88861309D01*
X263437500Y-88766071D01*
X263485119Y-88718452D01*
X263627976Y-88623214D01*
X263818452Y-88575595D01*
X264199404Y-88575595D01*
X264294642Y-88623214D01*
X264342261Y-88670833D01*
X264389880Y-88766071D01*
X264389880Y-88956547D01*
X264342261Y-89051785D01*
X264294642Y-89099404D01*
X264199404Y-89147023D01*
X263961309Y-89147023D01*
X263866071Y-89099404D01*
X263818452Y-89051785D01*
X263770833Y-88956547D01*
X263770833Y-88766071D01*
X263818452Y-88670833D01*
X263866071Y-88623214D01*
X263961309Y-88575595D01*
X263389880Y-90051785D02*
X263389880Y-89575595D01*
X263866071Y-89527976D01*
X263818452Y-89575595D01*
X263770833Y-89670833D01*
X263770833Y-89908928D01*
X263818452Y-90004166D01*
X263866071Y-90051785D01*
X263961309Y-90099404D01*
X264199404Y-90099404D01*
X264294642Y-90051785D01*
X264342261Y-90004166D01*
X264389880Y-89908928D01*
X264389880Y-89670833D01*
X264342261Y-89575595D01*
X264294642Y-89527976D01*
%TO.C,D64*%
X281058630Y-66191964D02*
X280058630Y-66191964D01*
X280058630Y-66430059D01*
X280106250Y-66572916D01*
X280201488Y-66668154D01*
X280296726Y-66715773D01*
X280487202Y-66763392D01*
X280630059Y-66763392D01*
X280820535Y-66715773D01*
X280915773Y-66668154D01*
X281011011Y-66572916D01*
X281058630Y-66430059D01*
X281058630Y-66191964D01*
X280058630Y-67620535D02*
X280058630Y-67430059D01*
X280106250Y-67334821D01*
X280153869Y-67287202D01*
X280296726Y-67191964D01*
X280487202Y-67144345D01*
X280868154Y-67144345D01*
X280963392Y-67191964D01*
X281011011Y-67239583D01*
X281058630Y-67334821D01*
X281058630Y-67525297D01*
X281011011Y-67620535D01*
X280963392Y-67668154D01*
X280868154Y-67715773D01*
X280630059Y-67715773D01*
X280534821Y-67668154D01*
X280487202Y-67620535D01*
X280439583Y-67525297D01*
X280439583Y-67334821D01*
X280487202Y-67239583D01*
X280534821Y-67191964D01*
X280630059Y-67144345D01*
X280391964Y-68572916D02*
X281058630Y-68572916D01*
X280011011Y-68334821D02*
X280725297Y-68096726D01*
X280725297Y-68715773D01*
%TO.C,D63*%
X259627380Y-49523214D02*
X258627380Y-49523214D01*
X258627380Y-49761309D01*
X258675000Y-49904166D01*
X258770238Y-49999404D01*
X258865476Y-50047023D01*
X259055952Y-50094642D01*
X259198809Y-50094642D01*
X259389285Y-50047023D01*
X259484523Y-49999404D01*
X259579761Y-49904166D01*
X259627380Y-49761309D01*
X259627380Y-49523214D01*
X258627380Y-50951785D02*
X258627380Y-50761309D01*
X258675000Y-50666071D01*
X258722619Y-50618452D01*
X258865476Y-50523214D01*
X259055952Y-50475595D01*
X259436904Y-50475595D01*
X259532142Y-50523214D01*
X259579761Y-50570833D01*
X259627380Y-50666071D01*
X259627380Y-50856547D01*
X259579761Y-50951785D01*
X259532142Y-50999404D01*
X259436904Y-51047023D01*
X259198809Y-51047023D01*
X259103571Y-50999404D01*
X259055952Y-50951785D01*
X259008333Y-50856547D01*
X259008333Y-50666071D01*
X259055952Y-50570833D01*
X259103571Y-50523214D01*
X259198809Y-50475595D01*
X258627380Y-51380357D02*
X258627380Y-51999404D01*
X259008333Y-51666071D01*
X259008333Y-51808928D01*
X259055952Y-51904166D01*
X259103571Y-51951785D01*
X259198809Y-51999404D01*
X259436904Y-51999404D01*
X259532142Y-51951785D01*
X259579761Y-51904166D01*
X259627380Y-51808928D01*
X259627380Y-51523214D01*
X259579761Y-51427976D01*
X259532142Y-51380357D01*
%TO.C,D62*%
X281058630Y-30473214D02*
X280058630Y-30473214D01*
X280058630Y-30711309D01*
X280106250Y-30854166D01*
X280201488Y-30949404D01*
X280296726Y-30997023D01*
X280487202Y-31044642D01*
X280630059Y-31044642D01*
X280820535Y-30997023D01*
X280915773Y-30949404D01*
X281011011Y-30854166D01*
X281058630Y-30711309D01*
X281058630Y-30473214D01*
X280058630Y-31901785D02*
X280058630Y-31711309D01*
X280106250Y-31616071D01*
X280153869Y-31568452D01*
X280296726Y-31473214D01*
X280487202Y-31425595D01*
X280868154Y-31425595D01*
X280963392Y-31473214D01*
X281011011Y-31520833D01*
X281058630Y-31616071D01*
X281058630Y-31806547D01*
X281011011Y-31901785D01*
X280963392Y-31949404D01*
X280868154Y-31997023D01*
X280630059Y-31997023D01*
X280534821Y-31949404D01*
X280487202Y-31901785D01*
X280439583Y-31806547D01*
X280439583Y-31616071D01*
X280487202Y-31520833D01*
X280534821Y-31473214D01*
X280630059Y-31425595D01*
X280153869Y-32377976D02*
X280106250Y-32425595D01*
X280058630Y-32520833D01*
X280058630Y-32758928D01*
X280106250Y-32854166D01*
X280153869Y-32901785D01*
X280249107Y-32949404D01*
X280344345Y-32949404D01*
X280487202Y-32901785D01*
X281058630Y-32330357D01*
X281058630Y-32949404D01*
%TO.C,D61*%
X258008630Y-95685714D02*
X257008630Y-95685714D01*
X257008630Y-95923809D01*
X257056250Y-96066666D01*
X257151488Y-96161904D01*
X257246726Y-96209523D01*
X257437202Y-96257142D01*
X257580059Y-96257142D01*
X257770535Y-96209523D01*
X257865773Y-96161904D01*
X257961011Y-96066666D01*
X258008630Y-95923809D01*
X258008630Y-95685714D01*
X257008630Y-97114285D02*
X257008630Y-96923809D01*
X257056250Y-96828571D01*
X257103869Y-96780952D01*
X257246726Y-96685714D01*
X257437202Y-96638095D01*
X257818154Y-96638095D01*
X257913392Y-96685714D01*
X257961011Y-96733333D01*
X258008630Y-96828571D01*
X258008630Y-97019047D01*
X257961011Y-97114285D01*
X257913392Y-97161904D01*
X257818154Y-97209523D01*
X257580059Y-97209523D01*
X257484821Y-97161904D01*
X257437202Y-97114285D01*
X257389583Y-97019047D01*
X257389583Y-96828571D01*
X257437202Y-96733333D01*
X257484821Y-96685714D01*
X257580059Y-96638095D01*
X258008630Y-98161904D02*
X258008630Y-97590476D01*
X258008630Y-97876190D02*
X257008630Y-97876190D01*
X257151488Y-97780952D01*
X257246726Y-97685714D01*
X257294345Y-97590476D01*
%TO.C,D60*%
X269152380Y-70954464D02*
X268152380Y-70954464D01*
X268152380Y-71192559D01*
X268200000Y-71335416D01*
X268295238Y-71430654D01*
X268390476Y-71478273D01*
X268580952Y-71525892D01*
X268723809Y-71525892D01*
X268914285Y-71478273D01*
X269009523Y-71430654D01*
X269104761Y-71335416D01*
X269152380Y-71192559D01*
X269152380Y-70954464D01*
X268152380Y-72383035D02*
X268152380Y-72192559D01*
X268200000Y-72097321D01*
X268247619Y-72049702D01*
X268390476Y-71954464D01*
X268580952Y-71906845D01*
X268961904Y-71906845D01*
X269057142Y-71954464D01*
X269104761Y-72002083D01*
X269152380Y-72097321D01*
X269152380Y-72287797D01*
X269104761Y-72383035D01*
X269057142Y-72430654D01*
X268961904Y-72478273D01*
X268723809Y-72478273D01*
X268628571Y-72430654D01*
X268580952Y-72383035D01*
X268533333Y-72287797D01*
X268533333Y-72097321D01*
X268580952Y-72002083D01*
X268628571Y-71954464D01*
X268723809Y-71906845D01*
X268152380Y-73097321D02*
X268152380Y-73192559D01*
X268200000Y-73287797D01*
X268247619Y-73335416D01*
X268342857Y-73383035D01*
X268533333Y-73430654D01*
X268771428Y-73430654D01*
X268961904Y-73383035D01*
X269057142Y-73335416D01*
X269104761Y-73287797D01*
X269152380Y-73192559D01*
X269152380Y-73097321D01*
X269104761Y-73002083D01*
X269057142Y-72954464D01*
X268961904Y-72906845D01*
X268771428Y-72859226D01*
X268533333Y-72859226D01*
X268342857Y-72906845D01*
X268247619Y-72954464D01*
X268200000Y-73002083D01*
X268152380Y-73097321D01*
%TO.C,D59*%
X247721130Y-35235714D02*
X246721130Y-35235714D01*
X246721130Y-35473809D01*
X246768750Y-35616666D01*
X246863988Y-35711904D01*
X246959226Y-35759523D01*
X247149702Y-35807142D01*
X247292559Y-35807142D01*
X247483035Y-35759523D01*
X247578273Y-35711904D01*
X247673511Y-35616666D01*
X247721130Y-35473809D01*
X247721130Y-35235714D01*
X246721130Y-36711904D02*
X246721130Y-36235714D01*
X247197321Y-36188095D01*
X247149702Y-36235714D01*
X247102083Y-36330952D01*
X247102083Y-36569047D01*
X247149702Y-36664285D01*
X247197321Y-36711904D01*
X247292559Y-36759523D01*
X247530654Y-36759523D01*
X247625892Y-36711904D01*
X247673511Y-36664285D01*
X247721130Y-36569047D01*
X247721130Y-36330952D01*
X247673511Y-36235714D01*
X247625892Y-36188095D01*
X247721130Y-37235714D02*
X247721130Y-37426190D01*
X247673511Y-37521428D01*
X247625892Y-37569047D01*
X247483035Y-37664285D01*
X247292559Y-37711904D01*
X246911607Y-37711904D01*
X246816369Y-37664285D01*
X246768750Y-37616666D01*
X246721130Y-37521428D01*
X246721130Y-37330952D01*
X246768750Y-37235714D01*
X246816369Y-37188095D01*
X246911607Y-37140476D01*
X247149702Y-37140476D01*
X247244940Y-37188095D01*
X247292559Y-37235714D01*
X247340178Y-37330952D01*
X247340178Y-37521428D01*
X247292559Y-37616666D01*
X247244940Y-37664285D01*
X247149702Y-37711904D01*
%TO.C,D58*%
X245339880Y-104291964D02*
X244339880Y-104291964D01*
X244339880Y-104530059D01*
X244387500Y-104672916D01*
X244482738Y-104768154D01*
X244577976Y-104815773D01*
X244768452Y-104863392D01*
X244911309Y-104863392D01*
X245101785Y-104815773D01*
X245197023Y-104768154D01*
X245292261Y-104672916D01*
X245339880Y-104530059D01*
X245339880Y-104291964D01*
X244339880Y-105768154D02*
X244339880Y-105291964D01*
X244816071Y-105244345D01*
X244768452Y-105291964D01*
X244720833Y-105387202D01*
X244720833Y-105625297D01*
X244768452Y-105720535D01*
X244816071Y-105768154D01*
X244911309Y-105815773D01*
X245149404Y-105815773D01*
X245244642Y-105768154D01*
X245292261Y-105720535D01*
X245339880Y-105625297D01*
X245339880Y-105387202D01*
X245292261Y-105291964D01*
X245244642Y-105244345D01*
X244768452Y-106387202D02*
X244720833Y-106291964D01*
X244673214Y-106244345D01*
X244577976Y-106196726D01*
X244530357Y-106196726D01*
X244435119Y-106244345D01*
X244387500Y-106291964D01*
X244339880Y-106387202D01*
X244339880Y-106577678D01*
X244387500Y-106672916D01*
X244435119Y-106720535D01*
X244530357Y-106768154D01*
X244577976Y-106768154D01*
X244673214Y-106720535D01*
X244720833Y-106672916D01*
X244768452Y-106577678D01*
X244768452Y-106387202D01*
X244816071Y-106291964D01*
X244863690Y-106244345D01*
X244958928Y-106196726D01*
X245149404Y-106196726D01*
X245244642Y-106244345D01*
X245292261Y-106291964D01*
X245339880Y-106387202D01*
X245339880Y-106577678D01*
X245292261Y-106672916D01*
X245244642Y-106720535D01*
X245149404Y-106768154D01*
X244958928Y-106768154D01*
X244863690Y-106720535D01*
X244816071Y-106672916D01*
X244768452Y-106577678D01*
%TO.C,D57*%
X259627380Y-87623214D02*
X258627380Y-87623214D01*
X258627380Y-87861309D01*
X258675000Y-88004166D01*
X258770238Y-88099404D01*
X258865476Y-88147023D01*
X259055952Y-88194642D01*
X259198809Y-88194642D01*
X259389285Y-88147023D01*
X259484523Y-88099404D01*
X259579761Y-88004166D01*
X259627380Y-87861309D01*
X259627380Y-87623214D01*
X258627380Y-89099404D02*
X258627380Y-88623214D01*
X259103571Y-88575595D01*
X259055952Y-88623214D01*
X259008333Y-88718452D01*
X259008333Y-88956547D01*
X259055952Y-89051785D01*
X259103571Y-89099404D01*
X259198809Y-89147023D01*
X259436904Y-89147023D01*
X259532142Y-89099404D01*
X259579761Y-89051785D01*
X259627380Y-88956547D01*
X259627380Y-88718452D01*
X259579761Y-88623214D01*
X259532142Y-88575595D01*
X258627380Y-89480357D02*
X258627380Y-90147023D01*
X259627380Y-89718452D01*
%TO.C,D56*%
X240577380Y-68573214D02*
X239577380Y-68573214D01*
X239577380Y-68811309D01*
X239625000Y-68954166D01*
X239720238Y-69049404D01*
X239815476Y-69097023D01*
X240005952Y-69144642D01*
X240148809Y-69144642D01*
X240339285Y-69097023D01*
X240434523Y-69049404D01*
X240529761Y-68954166D01*
X240577380Y-68811309D01*
X240577380Y-68573214D01*
X239577380Y-70049404D02*
X239577380Y-69573214D01*
X240053571Y-69525595D01*
X240005952Y-69573214D01*
X239958333Y-69668452D01*
X239958333Y-69906547D01*
X240005952Y-70001785D01*
X240053571Y-70049404D01*
X240148809Y-70097023D01*
X240386904Y-70097023D01*
X240482142Y-70049404D01*
X240529761Y-70001785D01*
X240577380Y-69906547D01*
X240577380Y-69668452D01*
X240529761Y-69573214D01*
X240482142Y-69525595D01*
X239577380Y-70954166D02*
X239577380Y-70763690D01*
X239625000Y-70668452D01*
X239672619Y-70620833D01*
X239815476Y-70525595D01*
X240005952Y-70477976D01*
X240386904Y-70477976D01*
X240482142Y-70525595D01*
X240529761Y-70573214D01*
X240577380Y-70668452D01*
X240577380Y-70858928D01*
X240529761Y-70954166D01*
X240482142Y-71001785D01*
X240386904Y-71049404D01*
X240148809Y-71049404D01*
X240053571Y-71001785D01*
X240005952Y-70954166D01*
X239958333Y-70858928D01*
X239958333Y-70668452D01*
X240005952Y-70573214D01*
X240053571Y-70525595D01*
X240148809Y-70477976D01*
%TO.C,D55*%
X254864880Y-49523214D02*
X253864880Y-49523214D01*
X253864880Y-49761309D01*
X253912500Y-49904166D01*
X254007738Y-49999404D01*
X254102976Y-50047023D01*
X254293452Y-50094642D01*
X254436309Y-50094642D01*
X254626785Y-50047023D01*
X254722023Y-49999404D01*
X254817261Y-49904166D01*
X254864880Y-49761309D01*
X254864880Y-49523214D01*
X253864880Y-50999404D02*
X253864880Y-50523214D01*
X254341071Y-50475595D01*
X254293452Y-50523214D01*
X254245833Y-50618452D01*
X254245833Y-50856547D01*
X254293452Y-50951785D01*
X254341071Y-50999404D01*
X254436309Y-51047023D01*
X254674404Y-51047023D01*
X254769642Y-50999404D01*
X254817261Y-50951785D01*
X254864880Y-50856547D01*
X254864880Y-50618452D01*
X254817261Y-50523214D01*
X254769642Y-50475595D01*
X253864880Y-51951785D02*
X253864880Y-51475595D01*
X254341071Y-51427976D01*
X254293452Y-51475595D01*
X254245833Y-51570833D01*
X254245833Y-51808928D01*
X254293452Y-51904166D01*
X254341071Y-51951785D01*
X254436309Y-51999404D01*
X254674404Y-51999404D01*
X254769642Y-51951785D01*
X254817261Y-51904166D01*
X254864880Y-51808928D01*
X254864880Y-51570833D01*
X254817261Y-51475595D01*
X254769642Y-51427976D01*
%TO.C,D54*%
X242958630Y-30473214D02*
X241958630Y-30473214D01*
X241958630Y-30711309D01*
X242006250Y-30854166D01*
X242101488Y-30949404D01*
X242196726Y-30997023D01*
X242387202Y-31044642D01*
X242530059Y-31044642D01*
X242720535Y-30997023D01*
X242815773Y-30949404D01*
X242911011Y-30854166D01*
X242958630Y-30711309D01*
X242958630Y-30473214D01*
X241958630Y-31949404D02*
X241958630Y-31473214D01*
X242434821Y-31425595D01*
X242387202Y-31473214D01*
X242339583Y-31568452D01*
X242339583Y-31806547D01*
X242387202Y-31901785D01*
X242434821Y-31949404D01*
X242530059Y-31997023D01*
X242768154Y-31997023D01*
X242863392Y-31949404D01*
X242911011Y-31901785D01*
X242958630Y-31806547D01*
X242958630Y-31568452D01*
X242911011Y-31473214D01*
X242863392Y-31425595D01*
X242291964Y-32854166D02*
X242958630Y-32854166D01*
X241911011Y-32616071D02*
X242625297Y-32377976D01*
X242625297Y-32997023D01*
%TO.C,D53*%
X219908630Y-95685714D02*
X218908630Y-95685714D01*
X218908630Y-95923809D01*
X218956250Y-96066666D01*
X219051488Y-96161904D01*
X219146726Y-96209523D01*
X219337202Y-96257142D01*
X219480059Y-96257142D01*
X219670535Y-96209523D01*
X219765773Y-96161904D01*
X219861011Y-96066666D01*
X219908630Y-95923809D01*
X219908630Y-95685714D01*
X218908630Y-97161904D02*
X218908630Y-96685714D01*
X219384821Y-96638095D01*
X219337202Y-96685714D01*
X219289583Y-96780952D01*
X219289583Y-97019047D01*
X219337202Y-97114285D01*
X219384821Y-97161904D01*
X219480059Y-97209523D01*
X219718154Y-97209523D01*
X219813392Y-97161904D01*
X219861011Y-97114285D01*
X219908630Y-97019047D01*
X219908630Y-96780952D01*
X219861011Y-96685714D01*
X219813392Y-96638095D01*
X218908630Y-97542857D02*
X218908630Y-98161904D01*
X219289583Y-97828571D01*
X219289583Y-97971428D01*
X219337202Y-98066666D01*
X219384821Y-98114285D01*
X219480059Y-98161904D01*
X219718154Y-98161904D01*
X219813392Y-98114285D01*
X219861011Y-98066666D01*
X219908630Y-97971428D01*
X219908630Y-97685714D01*
X219861011Y-97590476D01*
X219813392Y-97542857D01*
%TO.C,D52*%
X227052380Y-76635714D02*
X226052380Y-76635714D01*
X226052380Y-76873809D01*
X226100000Y-77016666D01*
X226195238Y-77111904D01*
X226290476Y-77159523D01*
X226480952Y-77207142D01*
X226623809Y-77207142D01*
X226814285Y-77159523D01*
X226909523Y-77111904D01*
X227004761Y-77016666D01*
X227052380Y-76873809D01*
X227052380Y-76635714D01*
X226052380Y-78111904D02*
X226052380Y-77635714D01*
X226528571Y-77588095D01*
X226480952Y-77635714D01*
X226433333Y-77730952D01*
X226433333Y-77969047D01*
X226480952Y-78064285D01*
X226528571Y-78111904D01*
X226623809Y-78159523D01*
X226861904Y-78159523D01*
X226957142Y-78111904D01*
X227004761Y-78064285D01*
X227052380Y-77969047D01*
X227052380Y-77730952D01*
X227004761Y-77635714D01*
X226957142Y-77588095D01*
X226147619Y-78540476D02*
X226100000Y-78588095D01*
X226052380Y-78683333D01*
X226052380Y-78921428D01*
X226100000Y-79016666D01*
X226147619Y-79064285D01*
X226242857Y-79111904D01*
X226338095Y-79111904D01*
X226480952Y-79064285D01*
X227052380Y-78492857D01*
X227052380Y-79111904D01*
%TO.C,D51*%
X235814880Y-51904464D02*
X234814880Y-51904464D01*
X234814880Y-52142559D01*
X234862500Y-52285416D01*
X234957738Y-52380654D01*
X235052976Y-52428273D01*
X235243452Y-52475892D01*
X235386309Y-52475892D01*
X235576785Y-52428273D01*
X235672023Y-52380654D01*
X235767261Y-52285416D01*
X235814880Y-52142559D01*
X235814880Y-51904464D01*
X234814880Y-53380654D02*
X234814880Y-52904464D01*
X235291071Y-52856845D01*
X235243452Y-52904464D01*
X235195833Y-52999702D01*
X235195833Y-53237797D01*
X235243452Y-53333035D01*
X235291071Y-53380654D01*
X235386309Y-53428273D01*
X235624404Y-53428273D01*
X235719642Y-53380654D01*
X235767261Y-53333035D01*
X235814880Y-53237797D01*
X235814880Y-52999702D01*
X235767261Y-52904464D01*
X235719642Y-52856845D01*
X235814880Y-54380654D02*
X235814880Y-53809226D01*
X235814880Y-54094940D02*
X234814880Y-54094940D01*
X234957738Y-53999702D01*
X235052976Y-53904464D01*
X235100595Y-53809226D01*
%TO.C,D50*%
X226289880Y-32854464D02*
X225289880Y-32854464D01*
X225289880Y-33092559D01*
X225337500Y-33235416D01*
X225432738Y-33330654D01*
X225527976Y-33378273D01*
X225718452Y-33425892D01*
X225861309Y-33425892D01*
X226051785Y-33378273D01*
X226147023Y-33330654D01*
X226242261Y-33235416D01*
X226289880Y-33092559D01*
X226289880Y-32854464D01*
X225289880Y-34330654D02*
X225289880Y-33854464D01*
X225766071Y-33806845D01*
X225718452Y-33854464D01*
X225670833Y-33949702D01*
X225670833Y-34187797D01*
X225718452Y-34283035D01*
X225766071Y-34330654D01*
X225861309Y-34378273D01*
X226099404Y-34378273D01*
X226194642Y-34330654D01*
X226242261Y-34283035D01*
X226289880Y-34187797D01*
X226289880Y-33949702D01*
X226242261Y-33854464D01*
X226194642Y-33806845D01*
X225289880Y-34997321D02*
X225289880Y-35092559D01*
X225337500Y-35187797D01*
X225385119Y-35235416D01*
X225480357Y-35283035D01*
X225670833Y-35330654D01*
X225908928Y-35330654D01*
X226099404Y-35283035D01*
X226194642Y-35235416D01*
X226242261Y-35187797D01*
X226289880Y-35092559D01*
X226289880Y-34997321D01*
X226242261Y-34902083D01*
X226194642Y-34854464D01*
X226099404Y-34806845D01*
X225908928Y-34759226D01*
X225670833Y-34759226D01*
X225480357Y-34806845D01*
X225385119Y-34854464D01*
X225337500Y-34902083D01*
X225289880Y-34997321D01*
%TO.C,D49*%
X204858630Y-104291964D02*
X203858630Y-104291964D01*
X203858630Y-104530059D01*
X203906250Y-104672916D01*
X204001488Y-104768154D01*
X204096726Y-104815773D01*
X204287202Y-104863392D01*
X204430059Y-104863392D01*
X204620535Y-104815773D01*
X204715773Y-104768154D01*
X204811011Y-104672916D01*
X204858630Y-104530059D01*
X204858630Y-104291964D01*
X204191964Y-105720535D02*
X204858630Y-105720535D01*
X203811011Y-105482440D02*
X204525297Y-105244345D01*
X204525297Y-105863392D01*
X204858630Y-106291964D02*
X204858630Y-106482440D01*
X204811011Y-106577678D01*
X204763392Y-106625297D01*
X204620535Y-106720535D01*
X204430059Y-106768154D01*
X204049107Y-106768154D01*
X203953869Y-106720535D01*
X203906250Y-106672916D01*
X203858630Y-106577678D01*
X203858630Y-106387202D01*
X203906250Y-106291964D01*
X203953869Y-106244345D01*
X204049107Y-106196726D01*
X204287202Y-106196726D01*
X204382440Y-106244345D01*
X204430059Y-106291964D01*
X204477678Y-106387202D01*
X204477678Y-106577678D01*
X204430059Y-106672916D01*
X204382440Y-106720535D01*
X204287202Y-106768154D01*
%TO.C,D48*%
X212002380Y-87623214D02*
X211002380Y-87623214D01*
X211002380Y-87861309D01*
X211050000Y-88004166D01*
X211145238Y-88099404D01*
X211240476Y-88147023D01*
X211430952Y-88194642D01*
X211573809Y-88194642D01*
X211764285Y-88147023D01*
X211859523Y-88099404D01*
X211954761Y-88004166D01*
X212002380Y-87861309D01*
X212002380Y-87623214D01*
X211335714Y-89051785D02*
X212002380Y-89051785D01*
X210954761Y-88813690D02*
X211669047Y-88575595D01*
X211669047Y-89194642D01*
X211430952Y-89718452D02*
X211383333Y-89623214D01*
X211335714Y-89575595D01*
X211240476Y-89527976D01*
X211192857Y-89527976D01*
X211097619Y-89575595D01*
X211050000Y-89623214D01*
X211002380Y-89718452D01*
X211002380Y-89908928D01*
X211050000Y-90004166D01*
X211097619Y-90051785D01*
X211192857Y-90099404D01*
X211240476Y-90099404D01*
X211335714Y-90051785D01*
X211383333Y-90004166D01*
X211430952Y-89908928D01*
X211430952Y-89718452D01*
X211478571Y-89623214D01*
X211526190Y-89575595D01*
X211621428Y-89527976D01*
X211811904Y-89527976D01*
X211907142Y-89575595D01*
X211954761Y-89623214D01*
X212002380Y-89718452D01*
X212002380Y-89908928D01*
X211954761Y-90004166D01*
X211907142Y-90051785D01*
X211811904Y-90099404D01*
X211621428Y-90099404D01*
X211526190Y-90051785D01*
X211478571Y-90004166D01*
X211430952Y-89908928D01*
%TO.C,D47*%
X221527380Y-68573214D02*
X220527380Y-68573214D01*
X220527380Y-68811309D01*
X220575000Y-68954166D01*
X220670238Y-69049404D01*
X220765476Y-69097023D01*
X220955952Y-69144642D01*
X221098809Y-69144642D01*
X221289285Y-69097023D01*
X221384523Y-69049404D01*
X221479761Y-68954166D01*
X221527380Y-68811309D01*
X221527380Y-68573214D01*
X220860714Y-70001785D02*
X221527380Y-70001785D01*
X220479761Y-69763690D02*
X221194047Y-69525595D01*
X221194047Y-70144642D01*
X220527380Y-70430357D02*
X220527380Y-71097023D01*
X221527380Y-70668452D01*
%TO.C,D46*%
X216764880Y-49523214D02*
X215764880Y-49523214D01*
X215764880Y-49761309D01*
X215812500Y-49904166D01*
X215907738Y-49999404D01*
X216002976Y-50047023D01*
X216193452Y-50094642D01*
X216336309Y-50094642D01*
X216526785Y-50047023D01*
X216622023Y-49999404D01*
X216717261Y-49904166D01*
X216764880Y-49761309D01*
X216764880Y-49523214D01*
X216098214Y-50951785D02*
X216764880Y-50951785D01*
X215717261Y-50713690D02*
X216431547Y-50475595D01*
X216431547Y-51094642D01*
X215764880Y-51904166D02*
X215764880Y-51713690D01*
X215812500Y-51618452D01*
X215860119Y-51570833D01*
X216002976Y-51475595D01*
X216193452Y-51427976D01*
X216574404Y-51427976D01*
X216669642Y-51475595D01*
X216717261Y-51523214D01*
X216764880Y-51618452D01*
X216764880Y-51808928D01*
X216717261Y-51904166D01*
X216669642Y-51951785D01*
X216574404Y-51999404D01*
X216336309Y-51999404D01*
X216241071Y-51951785D01*
X216193452Y-51904166D01*
X216145833Y-51808928D01*
X216145833Y-51618452D01*
X216193452Y-51523214D01*
X216241071Y-51475595D01*
X216336309Y-51427976D01*
%TO.C,D45*%
X207239880Y-30473214D02*
X206239880Y-30473214D01*
X206239880Y-30711309D01*
X206287500Y-30854166D01*
X206382738Y-30949404D01*
X206477976Y-30997023D01*
X206668452Y-31044642D01*
X206811309Y-31044642D01*
X207001785Y-30997023D01*
X207097023Y-30949404D01*
X207192261Y-30854166D01*
X207239880Y-30711309D01*
X207239880Y-30473214D01*
X206573214Y-31901785D02*
X207239880Y-31901785D01*
X206192261Y-31663690D02*
X206906547Y-31425595D01*
X206906547Y-32044642D01*
X206239880Y-32901785D02*
X206239880Y-32425595D01*
X206716071Y-32377976D01*
X206668452Y-32425595D01*
X206620833Y-32520833D01*
X206620833Y-32758928D01*
X206668452Y-32854166D01*
X206716071Y-32901785D01*
X206811309Y-32949404D01*
X207049404Y-32949404D01*
X207144642Y-32901785D01*
X207192261Y-32854166D01*
X207239880Y-32758928D01*
X207239880Y-32520833D01*
X207192261Y-32425595D01*
X207144642Y-32377976D01*
%TO.C,D44*%
X192952380Y-92385714D02*
X191952380Y-92385714D01*
X191952380Y-92623809D01*
X192000000Y-92766666D01*
X192095238Y-92861904D01*
X192190476Y-92909523D01*
X192380952Y-92957142D01*
X192523809Y-92957142D01*
X192714285Y-92909523D01*
X192809523Y-92861904D01*
X192904761Y-92766666D01*
X192952380Y-92623809D01*
X192952380Y-92385714D01*
X192285714Y-93814285D02*
X192952380Y-93814285D01*
X191904761Y-93576190D02*
X192619047Y-93338095D01*
X192619047Y-93957142D01*
X192285714Y-94766666D02*
X192952380Y-94766666D01*
X191904761Y-94528571D02*
X192619047Y-94290476D01*
X192619047Y-94909523D01*
%TO.C,D43*%
X202477380Y-70954464D02*
X201477380Y-70954464D01*
X201477380Y-71192559D01*
X201525000Y-71335416D01*
X201620238Y-71430654D01*
X201715476Y-71478273D01*
X201905952Y-71525892D01*
X202048809Y-71525892D01*
X202239285Y-71478273D01*
X202334523Y-71430654D01*
X202429761Y-71335416D01*
X202477380Y-71192559D01*
X202477380Y-70954464D01*
X201810714Y-72383035D02*
X202477380Y-72383035D01*
X201429761Y-72144940D02*
X202144047Y-71906845D01*
X202144047Y-72525892D01*
X201477380Y-72811607D02*
X201477380Y-73430654D01*
X201858333Y-73097321D01*
X201858333Y-73240178D01*
X201905952Y-73335416D01*
X201953571Y-73383035D01*
X202048809Y-73430654D01*
X202286904Y-73430654D01*
X202382142Y-73383035D01*
X202429761Y-73335416D01*
X202477380Y-73240178D01*
X202477380Y-72954464D01*
X202429761Y-72859226D01*
X202382142Y-72811607D01*
%TO.C,D42*%
X197714880Y-51904464D02*
X196714880Y-51904464D01*
X196714880Y-52142559D01*
X196762500Y-52285416D01*
X196857738Y-52380654D01*
X196952976Y-52428273D01*
X197143452Y-52475892D01*
X197286309Y-52475892D01*
X197476785Y-52428273D01*
X197572023Y-52380654D01*
X197667261Y-52285416D01*
X197714880Y-52142559D01*
X197714880Y-51904464D01*
X197048214Y-53333035D02*
X197714880Y-53333035D01*
X196667261Y-53094940D02*
X197381547Y-52856845D01*
X197381547Y-53475892D01*
X196810119Y-53809226D02*
X196762500Y-53856845D01*
X196714880Y-53952083D01*
X196714880Y-54190178D01*
X196762500Y-54285416D01*
X196810119Y-54333035D01*
X196905357Y-54380654D01*
X197000595Y-54380654D01*
X197143452Y-54333035D01*
X197714880Y-53761607D01*
X197714880Y-54380654D01*
%TO.C,D41*%
X188189880Y-32854464D02*
X187189880Y-32854464D01*
X187189880Y-33092559D01*
X187237500Y-33235416D01*
X187332738Y-33330654D01*
X187427976Y-33378273D01*
X187618452Y-33425892D01*
X187761309Y-33425892D01*
X187951785Y-33378273D01*
X188047023Y-33330654D01*
X188142261Y-33235416D01*
X188189880Y-33092559D01*
X188189880Y-32854464D01*
X187523214Y-34283035D02*
X188189880Y-34283035D01*
X187142261Y-34044940D02*
X187856547Y-33806845D01*
X187856547Y-34425892D01*
X188189880Y-35330654D02*
X188189880Y-34759226D01*
X188189880Y-35044940D02*
X187189880Y-35044940D01*
X187332738Y-34949702D01*
X187427976Y-34854464D01*
X187475595Y-34759226D01*
%TO.C,D40*%
X164377380Y-104291964D02*
X163377380Y-104291964D01*
X163377380Y-104530059D01*
X163425000Y-104672916D01*
X163520238Y-104768154D01*
X163615476Y-104815773D01*
X163805952Y-104863392D01*
X163948809Y-104863392D01*
X164139285Y-104815773D01*
X164234523Y-104768154D01*
X164329761Y-104672916D01*
X164377380Y-104530059D01*
X164377380Y-104291964D01*
X163710714Y-105720535D02*
X164377380Y-105720535D01*
X163329761Y-105482440D02*
X164044047Y-105244345D01*
X164044047Y-105863392D01*
X163377380Y-106434821D02*
X163377380Y-106530059D01*
X163425000Y-106625297D01*
X163472619Y-106672916D01*
X163567857Y-106720535D01*
X163758333Y-106768154D01*
X163996428Y-106768154D01*
X164186904Y-106720535D01*
X164282142Y-106672916D01*
X164329761Y-106625297D01*
X164377380Y-106530059D01*
X164377380Y-106434821D01*
X164329761Y-106339583D01*
X164282142Y-106291964D01*
X164186904Y-106244345D01*
X163996428Y-106196726D01*
X163758333Y-106196726D01*
X163567857Y-106244345D01*
X163472619Y-106291964D01*
X163425000Y-106339583D01*
X163377380Y-106434821D01*
%TO.C,D39*%
X173902380Y-87623214D02*
X172902380Y-87623214D01*
X172902380Y-87861309D01*
X172950000Y-88004166D01*
X173045238Y-88099404D01*
X173140476Y-88147023D01*
X173330952Y-88194642D01*
X173473809Y-88194642D01*
X173664285Y-88147023D01*
X173759523Y-88099404D01*
X173854761Y-88004166D01*
X173902380Y-87861309D01*
X173902380Y-87623214D01*
X172902380Y-88527976D02*
X172902380Y-89147023D01*
X173283333Y-88813690D01*
X173283333Y-88956547D01*
X173330952Y-89051785D01*
X173378571Y-89099404D01*
X173473809Y-89147023D01*
X173711904Y-89147023D01*
X173807142Y-89099404D01*
X173854761Y-89051785D01*
X173902380Y-88956547D01*
X173902380Y-88670833D01*
X173854761Y-88575595D01*
X173807142Y-88527976D01*
X173902380Y-89623214D02*
X173902380Y-89813690D01*
X173854761Y-89908928D01*
X173807142Y-89956547D01*
X173664285Y-90051785D01*
X173473809Y-90099404D01*
X173092857Y-90099404D01*
X172997619Y-90051785D01*
X172950000Y-90004166D01*
X172902380Y-89908928D01*
X172902380Y-89718452D01*
X172950000Y-89623214D01*
X172997619Y-89575595D01*
X173092857Y-89527976D01*
X173330952Y-89527976D01*
X173426190Y-89575595D01*
X173473809Y-89623214D01*
X173521428Y-89718452D01*
X173521428Y-89908928D01*
X173473809Y-90004166D01*
X173426190Y-90051785D01*
X173330952Y-90099404D01*
%TO.C,D38*%
X183427380Y-68573214D02*
X182427380Y-68573214D01*
X182427380Y-68811309D01*
X182475000Y-68954166D01*
X182570238Y-69049404D01*
X182665476Y-69097023D01*
X182855952Y-69144642D01*
X182998809Y-69144642D01*
X183189285Y-69097023D01*
X183284523Y-69049404D01*
X183379761Y-68954166D01*
X183427380Y-68811309D01*
X183427380Y-68573214D01*
X182427380Y-69477976D02*
X182427380Y-70097023D01*
X182808333Y-69763690D01*
X182808333Y-69906547D01*
X182855952Y-70001785D01*
X182903571Y-70049404D01*
X182998809Y-70097023D01*
X183236904Y-70097023D01*
X183332142Y-70049404D01*
X183379761Y-70001785D01*
X183427380Y-69906547D01*
X183427380Y-69620833D01*
X183379761Y-69525595D01*
X183332142Y-69477976D01*
X182855952Y-70668452D02*
X182808333Y-70573214D01*
X182760714Y-70525595D01*
X182665476Y-70477976D01*
X182617857Y-70477976D01*
X182522619Y-70525595D01*
X182475000Y-70573214D01*
X182427380Y-70668452D01*
X182427380Y-70858928D01*
X182475000Y-70954166D01*
X182522619Y-71001785D01*
X182617857Y-71049404D01*
X182665476Y-71049404D01*
X182760714Y-71001785D01*
X182808333Y-70954166D01*
X182855952Y-70858928D01*
X182855952Y-70668452D01*
X182903571Y-70573214D01*
X182951190Y-70525595D01*
X183046428Y-70477976D01*
X183236904Y-70477976D01*
X183332142Y-70525595D01*
X183379761Y-70573214D01*
X183427380Y-70668452D01*
X183427380Y-70858928D01*
X183379761Y-70954166D01*
X183332142Y-71001785D01*
X183236904Y-71049404D01*
X183046428Y-71049404D01*
X182951190Y-71001785D01*
X182903571Y-70954166D01*
X182855952Y-70858928D01*
%TO.C,D37*%
X178664880Y-49523214D02*
X177664880Y-49523214D01*
X177664880Y-49761309D01*
X177712500Y-49904166D01*
X177807738Y-49999404D01*
X177902976Y-50047023D01*
X178093452Y-50094642D01*
X178236309Y-50094642D01*
X178426785Y-50047023D01*
X178522023Y-49999404D01*
X178617261Y-49904166D01*
X178664880Y-49761309D01*
X178664880Y-49523214D01*
X177664880Y-50427976D02*
X177664880Y-51047023D01*
X178045833Y-50713690D01*
X178045833Y-50856547D01*
X178093452Y-50951785D01*
X178141071Y-50999404D01*
X178236309Y-51047023D01*
X178474404Y-51047023D01*
X178569642Y-50999404D01*
X178617261Y-50951785D01*
X178664880Y-50856547D01*
X178664880Y-50570833D01*
X178617261Y-50475595D01*
X178569642Y-50427976D01*
X177664880Y-51380357D02*
X177664880Y-52047023D01*
X178664880Y-51618452D01*
%TO.C,D36*%
X169139880Y-30473214D02*
X168139880Y-30473214D01*
X168139880Y-30711309D01*
X168187500Y-30854166D01*
X168282738Y-30949404D01*
X168377976Y-30997023D01*
X168568452Y-31044642D01*
X168711309Y-31044642D01*
X168901785Y-30997023D01*
X168997023Y-30949404D01*
X169092261Y-30854166D01*
X169139880Y-30711309D01*
X169139880Y-30473214D01*
X168139880Y-31377976D02*
X168139880Y-31997023D01*
X168520833Y-31663690D01*
X168520833Y-31806547D01*
X168568452Y-31901785D01*
X168616071Y-31949404D01*
X168711309Y-31997023D01*
X168949404Y-31997023D01*
X169044642Y-31949404D01*
X169092261Y-31901785D01*
X169139880Y-31806547D01*
X169139880Y-31520833D01*
X169092261Y-31425595D01*
X169044642Y-31377976D01*
X168139880Y-32854166D02*
X168139880Y-32663690D01*
X168187500Y-32568452D01*
X168235119Y-32520833D01*
X168377976Y-32425595D01*
X168568452Y-32377976D01*
X168949404Y-32377976D01*
X169044642Y-32425595D01*
X169092261Y-32473214D01*
X169139880Y-32568452D01*
X169139880Y-32758928D01*
X169092261Y-32854166D01*
X169044642Y-32901785D01*
X168949404Y-32949404D01*
X168711309Y-32949404D01*
X168616071Y-32901785D01*
X168568452Y-32854166D01*
X168520833Y-32758928D01*
X168520833Y-32568452D01*
X168568452Y-32473214D01*
X168616071Y-32425595D01*
X168711309Y-32377976D01*
%TO.C,D35*%
X154852380Y-92385714D02*
X153852380Y-92385714D01*
X153852380Y-92623809D01*
X153900000Y-92766666D01*
X153995238Y-92861904D01*
X154090476Y-92909523D01*
X154280952Y-92957142D01*
X154423809Y-92957142D01*
X154614285Y-92909523D01*
X154709523Y-92861904D01*
X154804761Y-92766666D01*
X154852380Y-92623809D01*
X154852380Y-92385714D01*
X153852380Y-93290476D02*
X153852380Y-93909523D01*
X154233333Y-93576190D01*
X154233333Y-93719047D01*
X154280952Y-93814285D01*
X154328571Y-93861904D01*
X154423809Y-93909523D01*
X154661904Y-93909523D01*
X154757142Y-93861904D01*
X154804761Y-93814285D01*
X154852380Y-93719047D01*
X154852380Y-93433333D01*
X154804761Y-93338095D01*
X154757142Y-93290476D01*
X153852380Y-94814285D02*
X153852380Y-94338095D01*
X154328571Y-94290476D01*
X154280952Y-94338095D01*
X154233333Y-94433333D01*
X154233333Y-94671428D01*
X154280952Y-94766666D01*
X154328571Y-94814285D01*
X154423809Y-94861904D01*
X154661904Y-94861904D01*
X154757142Y-94814285D01*
X154804761Y-94766666D01*
X154852380Y-94671428D01*
X154852380Y-94433333D01*
X154804761Y-94338095D01*
X154757142Y-94290476D01*
%TO.C,D34*%
X164377380Y-70954464D02*
X163377380Y-70954464D01*
X163377380Y-71192559D01*
X163425000Y-71335416D01*
X163520238Y-71430654D01*
X163615476Y-71478273D01*
X163805952Y-71525892D01*
X163948809Y-71525892D01*
X164139285Y-71478273D01*
X164234523Y-71430654D01*
X164329761Y-71335416D01*
X164377380Y-71192559D01*
X164377380Y-70954464D01*
X163377380Y-71859226D02*
X163377380Y-72478273D01*
X163758333Y-72144940D01*
X163758333Y-72287797D01*
X163805952Y-72383035D01*
X163853571Y-72430654D01*
X163948809Y-72478273D01*
X164186904Y-72478273D01*
X164282142Y-72430654D01*
X164329761Y-72383035D01*
X164377380Y-72287797D01*
X164377380Y-72002083D01*
X164329761Y-71906845D01*
X164282142Y-71859226D01*
X163710714Y-73335416D02*
X164377380Y-73335416D01*
X163329761Y-73097321D02*
X164044047Y-72859226D01*
X164044047Y-73478273D01*
%TO.C,D33*%
X159614880Y-51904464D02*
X158614880Y-51904464D01*
X158614880Y-52142559D01*
X158662500Y-52285416D01*
X158757738Y-52380654D01*
X158852976Y-52428273D01*
X159043452Y-52475892D01*
X159186309Y-52475892D01*
X159376785Y-52428273D01*
X159472023Y-52380654D01*
X159567261Y-52285416D01*
X159614880Y-52142559D01*
X159614880Y-51904464D01*
X158614880Y-52809226D02*
X158614880Y-53428273D01*
X158995833Y-53094940D01*
X158995833Y-53237797D01*
X159043452Y-53333035D01*
X159091071Y-53380654D01*
X159186309Y-53428273D01*
X159424404Y-53428273D01*
X159519642Y-53380654D01*
X159567261Y-53333035D01*
X159614880Y-53237797D01*
X159614880Y-52952083D01*
X159567261Y-52856845D01*
X159519642Y-52809226D01*
X158614880Y-53761607D02*
X158614880Y-54380654D01*
X158995833Y-54047321D01*
X158995833Y-54190178D01*
X159043452Y-54285416D01*
X159091071Y-54333035D01*
X159186309Y-54380654D01*
X159424404Y-54380654D01*
X159519642Y-54333035D01*
X159567261Y-54285416D01*
X159614880Y-54190178D01*
X159614880Y-53904464D01*
X159567261Y-53809226D01*
X159519642Y-53761607D01*
%TO.C,D32*%
X150089880Y-32854464D02*
X149089880Y-32854464D01*
X149089880Y-33092559D01*
X149137500Y-33235416D01*
X149232738Y-33330654D01*
X149327976Y-33378273D01*
X149518452Y-33425892D01*
X149661309Y-33425892D01*
X149851785Y-33378273D01*
X149947023Y-33330654D01*
X150042261Y-33235416D01*
X150089880Y-33092559D01*
X150089880Y-32854464D01*
X149089880Y-33759226D02*
X149089880Y-34378273D01*
X149470833Y-34044940D01*
X149470833Y-34187797D01*
X149518452Y-34283035D01*
X149566071Y-34330654D01*
X149661309Y-34378273D01*
X149899404Y-34378273D01*
X149994642Y-34330654D01*
X150042261Y-34283035D01*
X150089880Y-34187797D01*
X150089880Y-33902083D01*
X150042261Y-33806845D01*
X149994642Y-33759226D01*
X149185119Y-34759226D02*
X149137500Y-34806845D01*
X149089880Y-34902083D01*
X149089880Y-35140178D01*
X149137500Y-35235416D01*
X149185119Y-35283035D01*
X149280357Y-35330654D01*
X149375595Y-35330654D01*
X149518452Y-35283035D01*
X150089880Y-34711607D01*
X150089880Y-35330654D01*
%TO.C,D31*%
X135802380Y-87623214D02*
X134802380Y-87623214D01*
X134802380Y-87861309D01*
X134850000Y-88004166D01*
X134945238Y-88099404D01*
X135040476Y-88147023D01*
X135230952Y-88194642D01*
X135373809Y-88194642D01*
X135564285Y-88147023D01*
X135659523Y-88099404D01*
X135754761Y-88004166D01*
X135802380Y-87861309D01*
X135802380Y-87623214D01*
X134802380Y-88527976D02*
X134802380Y-89147023D01*
X135183333Y-88813690D01*
X135183333Y-88956547D01*
X135230952Y-89051785D01*
X135278571Y-89099404D01*
X135373809Y-89147023D01*
X135611904Y-89147023D01*
X135707142Y-89099404D01*
X135754761Y-89051785D01*
X135802380Y-88956547D01*
X135802380Y-88670833D01*
X135754761Y-88575595D01*
X135707142Y-88527976D01*
X135802380Y-90099404D02*
X135802380Y-89527976D01*
X135802380Y-89813690D02*
X134802380Y-89813690D01*
X134945238Y-89718452D01*
X135040476Y-89623214D01*
X135088095Y-89527976D01*
%TO.C,D30*%
X145327380Y-68573214D02*
X144327380Y-68573214D01*
X144327380Y-68811309D01*
X144375000Y-68954166D01*
X144470238Y-69049404D01*
X144565476Y-69097023D01*
X144755952Y-69144642D01*
X144898809Y-69144642D01*
X145089285Y-69097023D01*
X145184523Y-69049404D01*
X145279761Y-68954166D01*
X145327380Y-68811309D01*
X145327380Y-68573214D01*
X144327380Y-69477976D02*
X144327380Y-70097023D01*
X144708333Y-69763690D01*
X144708333Y-69906547D01*
X144755952Y-70001785D01*
X144803571Y-70049404D01*
X144898809Y-70097023D01*
X145136904Y-70097023D01*
X145232142Y-70049404D01*
X145279761Y-70001785D01*
X145327380Y-69906547D01*
X145327380Y-69620833D01*
X145279761Y-69525595D01*
X145232142Y-69477976D01*
X144327380Y-70716071D02*
X144327380Y-70811309D01*
X144375000Y-70906547D01*
X144422619Y-70954166D01*
X144517857Y-71001785D01*
X144708333Y-71049404D01*
X144946428Y-71049404D01*
X145136904Y-71001785D01*
X145232142Y-70954166D01*
X145279761Y-70906547D01*
X145327380Y-70811309D01*
X145327380Y-70716071D01*
X145279761Y-70620833D01*
X145232142Y-70573214D01*
X145136904Y-70525595D01*
X144946428Y-70477976D01*
X144708333Y-70477976D01*
X144517857Y-70525595D01*
X144422619Y-70573214D01*
X144375000Y-70620833D01*
X144327380Y-70716071D01*
%TO.C,D29*%
X140564880Y-49523214D02*
X139564880Y-49523214D01*
X139564880Y-49761309D01*
X139612500Y-49904166D01*
X139707738Y-49999404D01*
X139802976Y-50047023D01*
X139993452Y-50094642D01*
X140136309Y-50094642D01*
X140326785Y-50047023D01*
X140422023Y-49999404D01*
X140517261Y-49904166D01*
X140564880Y-49761309D01*
X140564880Y-49523214D01*
X139660119Y-50475595D02*
X139612500Y-50523214D01*
X139564880Y-50618452D01*
X139564880Y-50856547D01*
X139612500Y-50951785D01*
X139660119Y-50999404D01*
X139755357Y-51047023D01*
X139850595Y-51047023D01*
X139993452Y-50999404D01*
X140564880Y-50427976D01*
X140564880Y-51047023D01*
X140564880Y-51523214D02*
X140564880Y-51713690D01*
X140517261Y-51808928D01*
X140469642Y-51856547D01*
X140326785Y-51951785D01*
X140136309Y-51999404D01*
X139755357Y-51999404D01*
X139660119Y-51951785D01*
X139612500Y-51904166D01*
X139564880Y-51808928D01*
X139564880Y-51618452D01*
X139612500Y-51523214D01*
X139660119Y-51475595D01*
X139755357Y-51427976D01*
X139993452Y-51427976D01*
X140088690Y-51475595D01*
X140136309Y-51523214D01*
X140183928Y-51618452D01*
X140183928Y-51808928D01*
X140136309Y-51904166D01*
X140088690Y-51951785D01*
X139993452Y-51999404D01*
%TO.C,D28*%
X131039880Y-30473214D02*
X130039880Y-30473214D01*
X130039880Y-30711309D01*
X130087500Y-30854166D01*
X130182738Y-30949404D01*
X130277976Y-30997023D01*
X130468452Y-31044642D01*
X130611309Y-31044642D01*
X130801785Y-30997023D01*
X130897023Y-30949404D01*
X130992261Y-30854166D01*
X131039880Y-30711309D01*
X131039880Y-30473214D01*
X130135119Y-31425595D02*
X130087500Y-31473214D01*
X130039880Y-31568452D01*
X130039880Y-31806547D01*
X130087500Y-31901785D01*
X130135119Y-31949404D01*
X130230357Y-31997023D01*
X130325595Y-31997023D01*
X130468452Y-31949404D01*
X131039880Y-31377976D01*
X131039880Y-31997023D01*
X130468452Y-32568452D02*
X130420833Y-32473214D01*
X130373214Y-32425595D01*
X130277976Y-32377976D01*
X130230357Y-32377976D01*
X130135119Y-32425595D01*
X130087500Y-32473214D01*
X130039880Y-32568452D01*
X130039880Y-32758928D01*
X130087500Y-32854166D01*
X130135119Y-32901785D01*
X130230357Y-32949404D01*
X130277976Y-32949404D01*
X130373214Y-32901785D01*
X130420833Y-32854166D01*
X130468452Y-32758928D01*
X130468452Y-32568452D01*
X130516071Y-32473214D01*
X130563690Y-32425595D01*
X130658928Y-32377976D01*
X130849404Y-32377976D01*
X130944642Y-32425595D01*
X130992261Y-32473214D01*
X131039880Y-32568452D01*
X131039880Y-32758928D01*
X130992261Y-32854166D01*
X130944642Y-32901785D01*
X130849404Y-32949404D01*
X130658928Y-32949404D01*
X130563690Y-32901785D01*
X130516071Y-32854166D01*
X130468452Y-32758928D01*
%TO.C,D27*%
X126277380Y-92385714D02*
X125277380Y-92385714D01*
X125277380Y-92623809D01*
X125325000Y-92766666D01*
X125420238Y-92861904D01*
X125515476Y-92909523D01*
X125705952Y-92957142D01*
X125848809Y-92957142D01*
X126039285Y-92909523D01*
X126134523Y-92861904D01*
X126229761Y-92766666D01*
X126277380Y-92623809D01*
X126277380Y-92385714D01*
X125372619Y-93338095D02*
X125325000Y-93385714D01*
X125277380Y-93480952D01*
X125277380Y-93719047D01*
X125325000Y-93814285D01*
X125372619Y-93861904D01*
X125467857Y-93909523D01*
X125563095Y-93909523D01*
X125705952Y-93861904D01*
X126277380Y-93290476D01*
X126277380Y-93909523D01*
X125277380Y-94242857D02*
X125277380Y-94909523D01*
X126277380Y-94480952D01*
%TO.C,D26*%
X126277380Y-70954464D02*
X125277380Y-70954464D01*
X125277380Y-71192559D01*
X125325000Y-71335416D01*
X125420238Y-71430654D01*
X125515476Y-71478273D01*
X125705952Y-71525892D01*
X125848809Y-71525892D01*
X126039285Y-71478273D01*
X126134523Y-71430654D01*
X126229761Y-71335416D01*
X126277380Y-71192559D01*
X126277380Y-70954464D01*
X125372619Y-71906845D02*
X125325000Y-71954464D01*
X125277380Y-72049702D01*
X125277380Y-72287797D01*
X125325000Y-72383035D01*
X125372619Y-72430654D01*
X125467857Y-72478273D01*
X125563095Y-72478273D01*
X125705952Y-72430654D01*
X126277380Y-71859226D01*
X126277380Y-72478273D01*
X125277380Y-73335416D02*
X125277380Y-73144940D01*
X125325000Y-73049702D01*
X125372619Y-73002083D01*
X125515476Y-72906845D01*
X125705952Y-72859226D01*
X126086904Y-72859226D01*
X126182142Y-72906845D01*
X126229761Y-72954464D01*
X126277380Y-73049702D01*
X126277380Y-73240178D01*
X126229761Y-73335416D01*
X126182142Y-73383035D01*
X126086904Y-73430654D01*
X125848809Y-73430654D01*
X125753571Y-73383035D01*
X125705952Y-73335416D01*
X125658333Y-73240178D01*
X125658333Y-73049702D01*
X125705952Y-72954464D01*
X125753571Y-72906845D01*
X125848809Y-72859226D01*
%TO.C,D25*%
X121514880Y-51904464D02*
X120514880Y-51904464D01*
X120514880Y-52142559D01*
X120562500Y-52285416D01*
X120657738Y-52380654D01*
X120752976Y-52428273D01*
X120943452Y-52475892D01*
X121086309Y-52475892D01*
X121276785Y-52428273D01*
X121372023Y-52380654D01*
X121467261Y-52285416D01*
X121514880Y-52142559D01*
X121514880Y-51904464D01*
X120610119Y-52856845D02*
X120562500Y-52904464D01*
X120514880Y-52999702D01*
X120514880Y-53237797D01*
X120562500Y-53333035D01*
X120610119Y-53380654D01*
X120705357Y-53428273D01*
X120800595Y-53428273D01*
X120943452Y-53380654D01*
X121514880Y-52809226D01*
X121514880Y-53428273D01*
X120514880Y-54333035D02*
X120514880Y-53856845D01*
X120991071Y-53809226D01*
X120943452Y-53856845D01*
X120895833Y-53952083D01*
X120895833Y-54190178D01*
X120943452Y-54285416D01*
X120991071Y-54333035D01*
X121086309Y-54380654D01*
X121324404Y-54380654D01*
X121419642Y-54333035D01*
X121467261Y-54285416D01*
X121514880Y-54190178D01*
X121514880Y-53952083D01*
X121467261Y-53856845D01*
X121419642Y-53809226D01*
%TO.C,D24*%
X111989880Y-32854464D02*
X110989880Y-32854464D01*
X110989880Y-33092559D01*
X111037500Y-33235416D01*
X111132738Y-33330654D01*
X111227976Y-33378273D01*
X111418452Y-33425892D01*
X111561309Y-33425892D01*
X111751785Y-33378273D01*
X111847023Y-33330654D01*
X111942261Y-33235416D01*
X111989880Y-33092559D01*
X111989880Y-32854464D01*
X111085119Y-33806845D02*
X111037500Y-33854464D01*
X110989880Y-33949702D01*
X110989880Y-34187797D01*
X111037500Y-34283035D01*
X111085119Y-34330654D01*
X111180357Y-34378273D01*
X111275595Y-34378273D01*
X111418452Y-34330654D01*
X111989880Y-33759226D01*
X111989880Y-34378273D01*
X111323214Y-35235416D02*
X111989880Y-35235416D01*
X110942261Y-34997321D02*
X111656547Y-34759226D01*
X111656547Y-35378273D01*
%TO.C,D23*%
X107227380Y-104291964D02*
X106227380Y-104291964D01*
X106227380Y-104530059D01*
X106275000Y-104672916D01*
X106370238Y-104768154D01*
X106465476Y-104815773D01*
X106655952Y-104863392D01*
X106798809Y-104863392D01*
X106989285Y-104815773D01*
X107084523Y-104768154D01*
X107179761Y-104672916D01*
X107227380Y-104530059D01*
X107227380Y-104291964D01*
X106322619Y-105244345D02*
X106275000Y-105291964D01*
X106227380Y-105387202D01*
X106227380Y-105625297D01*
X106275000Y-105720535D01*
X106322619Y-105768154D01*
X106417857Y-105815773D01*
X106513095Y-105815773D01*
X106655952Y-105768154D01*
X107227380Y-105196726D01*
X107227380Y-105815773D01*
X106227380Y-106149107D02*
X106227380Y-106768154D01*
X106608333Y-106434821D01*
X106608333Y-106577678D01*
X106655952Y-106672916D01*
X106703571Y-106720535D01*
X106798809Y-106768154D01*
X107036904Y-106768154D01*
X107132142Y-106720535D01*
X107179761Y-106672916D01*
X107227380Y-106577678D01*
X107227380Y-106291964D01*
X107179761Y-106196726D01*
X107132142Y-106149107D01*
%TO.C,D22*%
X97702380Y-87623214D02*
X96702380Y-87623214D01*
X96702380Y-87861309D01*
X96750000Y-88004166D01*
X96845238Y-88099404D01*
X96940476Y-88147023D01*
X97130952Y-88194642D01*
X97273809Y-88194642D01*
X97464285Y-88147023D01*
X97559523Y-88099404D01*
X97654761Y-88004166D01*
X97702380Y-87861309D01*
X97702380Y-87623214D01*
X96797619Y-88575595D02*
X96750000Y-88623214D01*
X96702380Y-88718452D01*
X96702380Y-88956547D01*
X96750000Y-89051785D01*
X96797619Y-89099404D01*
X96892857Y-89147023D01*
X96988095Y-89147023D01*
X97130952Y-89099404D01*
X97702380Y-88527976D01*
X97702380Y-89147023D01*
X96797619Y-89527976D02*
X96750000Y-89575595D01*
X96702380Y-89670833D01*
X96702380Y-89908928D01*
X96750000Y-90004166D01*
X96797619Y-90051785D01*
X96892857Y-90099404D01*
X96988095Y-90099404D01*
X97130952Y-90051785D01*
X97702380Y-89480357D01*
X97702380Y-90099404D01*
%TO.C,D21*%
X107227380Y-68573214D02*
X106227380Y-68573214D01*
X106227380Y-68811309D01*
X106275000Y-68954166D01*
X106370238Y-69049404D01*
X106465476Y-69097023D01*
X106655952Y-69144642D01*
X106798809Y-69144642D01*
X106989285Y-69097023D01*
X107084523Y-69049404D01*
X107179761Y-68954166D01*
X107227380Y-68811309D01*
X107227380Y-68573214D01*
X106322619Y-69525595D02*
X106275000Y-69573214D01*
X106227380Y-69668452D01*
X106227380Y-69906547D01*
X106275000Y-70001785D01*
X106322619Y-70049404D01*
X106417857Y-70097023D01*
X106513095Y-70097023D01*
X106655952Y-70049404D01*
X107227380Y-69477976D01*
X107227380Y-70097023D01*
X107227380Y-71049404D02*
X107227380Y-70477976D01*
X107227380Y-70763690D02*
X106227380Y-70763690D01*
X106370238Y-70668452D01*
X106465476Y-70573214D01*
X106513095Y-70477976D01*
%TO.C,D20*%
X102464880Y-49523214D02*
X101464880Y-49523214D01*
X101464880Y-49761309D01*
X101512500Y-49904166D01*
X101607738Y-49999404D01*
X101702976Y-50047023D01*
X101893452Y-50094642D01*
X102036309Y-50094642D01*
X102226785Y-50047023D01*
X102322023Y-49999404D01*
X102417261Y-49904166D01*
X102464880Y-49761309D01*
X102464880Y-49523214D01*
X101560119Y-50475595D02*
X101512500Y-50523214D01*
X101464880Y-50618452D01*
X101464880Y-50856547D01*
X101512500Y-50951785D01*
X101560119Y-50999404D01*
X101655357Y-51047023D01*
X101750595Y-51047023D01*
X101893452Y-50999404D01*
X102464880Y-50427976D01*
X102464880Y-51047023D01*
X101464880Y-51666071D02*
X101464880Y-51761309D01*
X101512500Y-51856547D01*
X101560119Y-51904166D01*
X101655357Y-51951785D01*
X101845833Y-51999404D01*
X102083928Y-51999404D01*
X102274404Y-51951785D01*
X102369642Y-51904166D01*
X102417261Y-51856547D01*
X102464880Y-51761309D01*
X102464880Y-51666071D01*
X102417261Y-51570833D01*
X102369642Y-51523214D01*
X102274404Y-51475595D01*
X102083928Y-51427976D01*
X101845833Y-51427976D01*
X101655357Y-51475595D01*
X101560119Y-51523214D01*
X101512500Y-51570833D01*
X101464880Y-51666071D01*
%TO.C,D19*%
X92939880Y-30473214D02*
X91939880Y-30473214D01*
X91939880Y-30711309D01*
X91987500Y-30854166D01*
X92082738Y-30949404D01*
X92177976Y-30997023D01*
X92368452Y-31044642D01*
X92511309Y-31044642D01*
X92701785Y-30997023D01*
X92797023Y-30949404D01*
X92892261Y-30854166D01*
X92939880Y-30711309D01*
X92939880Y-30473214D01*
X92939880Y-31997023D02*
X92939880Y-31425595D01*
X92939880Y-31711309D02*
X91939880Y-31711309D01*
X92082738Y-31616071D01*
X92177976Y-31520833D01*
X92225595Y-31425595D01*
X92939880Y-32473214D02*
X92939880Y-32663690D01*
X92892261Y-32758928D01*
X92844642Y-32806547D01*
X92701785Y-32901785D01*
X92511309Y-32949404D01*
X92130357Y-32949404D01*
X92035119Y-32901785D01*
X91987500Y-32854166D01*
X91939880Y-32758928D01*
X91939880Y-32568452D01*
X91987500Y-32473214D01*
X92035119Y-32425595D01*
X92130357Y-32377976D01*
X92368452Y-32377976D01*
X92463690Y-32425595D01*
X92511309Y-32473214D01*
X92558928Y-32568452D01*
X92558928Y-32758928D01*
X92511309Y-32854166D01*
X92463690Y-32901785D01*
X92368452Y-32949404D01*
%TO.C,D18*%
X69127380Y-92385714D02*
X68127380Y-92385714D01*
X68127380Y-92623809D01*
X68175000Y-92766666D01*
X68270238Y-92861904D01*
X68365476Y-92909523D01*
X68555952Y-92957142D01*
X68698809Y-92957142D01*
X68889285Y-92909523D01*
X68984523Y-92861904D01*
X69079761Y-92766666D01*
X69127380Y-92623809D01*
X69127380Y-92385714D01*
X69127380Y-93909523D02*
X69127380Y-93338095D01*
X69127380Y-93623809D02*
X68127380Y-93623809D01*
X68270238Y-93528571D01*
X68365476Y-93433333D01*
X68413095Y-93338095D01*
X68555952Y-94480952D02*
X68508333Y-94385714D01*
X68460714Y-94338095D01*
X68365476Y-94290476D01*
X68317857Y-94290476D01*
X68222619Y-94338095D01*
X68175000Y-94385714D01*
X68127380Y-94480952D01*
X68127380Y-94671428D01*
X68175000Y-94766666D01*
X68222619Y-94814285D01*
X68317857Y-94861904D01*
X68365476Y-94861904D01*
X68460714Y-94814285D01*
X68508333Y-94766666D01*
X68555952Y-94671428D01*
X68555952Y-94480952D01*
X68603571Y-94385714D01*
X68651190Y-94338095D01*
X68746428Y-94290476D01*
X68936904Y-94290476D01*
X69032142Y-94338095D01*
X69079761Y-94385714D01*
X69127380Y-94480952D01*
X69127380Y-94671428D01*
X69079761Y-94766666D01*
X69032142Y-94814285D01*
X68936904Y-94861904D01*
X68746428Y-94861904D01*
X68651190Y-94814285D01*
X68603571Y-94766666D01*
X68555952Y-94671428D01*
%TO.C,D17*%
X88177380Y-70954464D02*
X87177380Y-70954464D01*
X87177380Y-71192559D01*
X87225000Y-71335416D01*
X87320238Y-71430654D01*
X87415476Y-71478273D01*
X87605952Y-71525892D01*
X87748809Y-71525892D01*
X87939285Y-71478273D01*
X88034523Y-71430654D01*
X88129761Y-71335416D01*
X88177380Y-71192559D01*
X88177380Y-70954464D01*
X88177380Y-72478273D02*
X88177380Y-71906845D01*
X88177380Y-72192559D02*
X87177380Y-72192559D01*
X87320238Y-72097321D01*
X87415476Y-72002083D01*
X87463095Y-71906845D01*
X87177380Y-72811607D02*
X87177380Y-73478273D01*
X88177380Y-73049702D01*
%TO.C,D16*%
X83414880Y-51904464D02*
X82414880Y-51904464D01*
X82414880Y-52142559D01*
X82462500Y-52285416D01*
X82557738Y-52380654D01*
X82652976Y-52428273D01*
X82843452Y-52475892D01*
X82986309Y-52475892D01*
X83176785Y-52428273D01*
X83272023Y-52380654D01*
X83367261Y-52285416D01*
X83414880Y-52142559D01*
X83414880Y-51904464D01*
X83414880Y-53428273D02*
X83414880Y-52856845D01*
X83414880Y-53142559D02*
X82414880Y-53142559D01*
X82557738Y-53047321D01*
X82652976Y-52952083D01*
X82700595Y-52856845D01*
X82414880Y-54285416D02*
X82414880Y-54094940D01*
X82462500Y-53999702D01*
X82510119Y-53952083D01*
X82652976Y-53856845D01*
X82843452Y-53809226D01*
X83224404Y-53809226D01*
X83319642Y-53856845D01*
X83367261Y-53904464D01*
X83414880Y-53999702D01*
X83414880Y-54190178D01*
X83367261Y-54285416D01*
X83319642Y-54333035D01*
X83224404Y-54380654D01*
X82986309Y-54380654D01*
X82891071Y-54333035D01*
X82843452Y-54285416D01*
X82795833Y-54190178D01*
X82795833Y-53999702D01*
X82843452Y-53904464D01*
X82891071Y-53856845D01*
X82986309Y-53809226D01*
%TO.C,D15*%
X73889880Y-32854464D02*
X72889880Y-32854464D01*
X72889880Y-33092559D01*
X72937500Y-33235416D01*
X73032738Y-33330654D01*
X73127976Y-33378273D01*
X73318452Y-33425892D01*
X73461309Y-33425892D01*
X73651785Y-33378273D01*
X73747023Y-33330654D01*
X73842261Y-33235416D01*
X73889880Y-33092559D01*
X73889880Y-32854464D01*
X73889880Y-34378273D02*
X73889880Y-33806845D01*
X73889880Y-34092559D02*
X72889880Y-34092559D01*
X73032738Y-33997321D01*
X73127976Y-33902083D01*
X73175595Y-33806845D01*
X72889880Y-35283035D02*
X72889880Y-34806845D01*
X73366071Y-34759226D01*
X73318452Y-34806845D01*
X73270833Y-34902083D01*
X73270833Y-35140178D01*
X73318452Y-35235416D01*
X73366071Y-35283035D01*
X73461309Y-35330654D01*
X73699404Y-35330654D01*
X73794642Y-35283035D01*
X73842261Y-35235416D01*
X73889880Y-35140178D01*
X73889880Y-34902083D01*
X73842261Y-34806845D01*
X73794642Y-34759226D01*
%TO.C,D14*%
X66746130Y-104291964D02*
X65746130Y-104291964D01*
X65746130Y-104530059D01*
X65793750Y-104672916D01*
X65888988Y-104768154D01*
X65984226Y-104815773D01*
X66174702Y-104863392D01*
X66317559Y-104863392D01*
X66508035Y-104815773D01*
X66603273Y-104768154D01*
X66698511Y-104672916D01*
X66746130Y-104530059D01*
X66746130Y-104291964D01*
X66746130Y-105815773D02*
X66746130Y-105244345D01*
X66746130Y-105530059D02*
X65746130Y-105530059D01*
X65888988Y-105434821D01*
X65984226Y-105339583D01*
X66031845Y-105244345D01*
X66079464Y-106672916D02*
X66746130Y-106672916D01*
X65698511Y-106434821D02*
X66412797Y-106196726D01*
X66412797Y-106815773D01*
%TO.C,D13*%
X59602380Y-87623214D02*
X58602380Y-87623214D01*
X58602380Y-87861309D01*
X58650000Y-88004166D01*
X58745238Y-88099404D01*
X58840476Y-88147023D01*
X59030952Y-88194642D01*
X59173809Y-88194642D01*
X59364285Y-88147023D01*
X59459523Y-88099404D01*
X59554761Y-88004166D01*
X59602380Y-87861309D01*
X59602380Y-87623214D01*
X59602380Y-89147023D02*
X59602380Y-88575595D01*
X59602380Y-88861309D02*
X58602380Y-88861309D01*
X58745238Y-88766071D01*
X58840476Y-88670833D01*
X58888095Y-88575595D01*
X58602380Y-89480357D02*
X58602380Y-90099404D01*
X58983333Y-89766071D01*
X58983333Y-89908928D01*
X59030952Y-90004166D01*
X59078571Y-90051785D01*
X59173809Y-90099404D01*
X59411904Y-90099404D01*
X59507142Y-90051785D01*
X59554761Y-90004166D01*
X59602380Y-89908928D01*
X59602380Y-89623214D01*
X59554761Y-89527976D01*
X59507142Y-89480357D01*
%TO.C,D12*%
X69127380Y-68573214D02*
X68127380Y-68573214D01*
X68127380Y-68811309D01*
X68175000Y-68954166D01*
X68270238Y-69049404D01*
X68365476Y-69097023D01*
X68555952Y-69144642D01*
X68698809Y-69144642D01*
X68889285Y-69097023D01*
X68984523Y-69049404D01*
X69079761Y-68954166D01*
X69127380Y-68811309D01*
X69127380Y-68573214D01*
X69127380Y-70097023D02*
X69127380Y-69525595D01*
X69127380Y-69811309D02*
X68127380Y-69811309D01*
X68270238Y-69716071D01*
X68365476Y-69620833D01*
X68413095Y-69525595D01*
X68222619Y-70477976D02*
X68175000Y-70525595D01*
X68127380Y-70620833D01*
X68127380Y-70858928D01*
X68175000Y-70954166D01*
X68222619Y-71001785D01*
X68317857Y-71049404D01*
X68413095Y-71049404D01*
X68555952Y-71001785D01*
X69127380Y-70430357D01*
X69127380Y-71049404D01*
%TO.C,D11*%
X64364880Y-49523214D02*
X63364880Y-49523214D01*
X63364880Y-49761309D01*
X63412500Y-49904166D01*
X63507738Y-49999404D01*
X63602976Y-50047023D01*
X63793452Y-50094642D01*
X63936309Y-50094642D01*
X64126785Y-50047023D01*
X64222023Y-49999404D01*
X64317261Y-49904166D01*
X64364880Y-49761309D01*
X64364880Y-49523214D01*
X64364880Y-51047023D02*
X64364880Y-50475595D01*
X64364880Y-50761309D02*
X63364880Y-50761309D01*
X63507738Y-50666071D01*
X63602976Y-50570833D01*
X63650595Y-50475595D01*
X64364880Y-51999404D02*
X64364880Y-51427976D01*
X64364880Y-51713690D02*
X63364880Y-51713690D01*
X63507738Y-51618452D01*
X63602976Y-51523214D01*
X63650595Y-51427976D01*
%TO.C,D10*%
X54839880Y-30473214D02*
X53839880Y-30473214D01*
X53839880Y-30711309D01*
X53887500Y-30854166D01*
X53982738Y-30949404D01*
X54077976Y-30997023D01*
X54268452Y-31044642D01*
X54411309Y-31044642D01*
X54601785Y-30997023D01*
X54697023Y-30949404D01*
X54792261Y-30854166D01*
X54839880Y-30711309D01*
X54839880Y-30473214D01*
X54839880Y-31997023D02*
X54839880Y-31425595D01*
X54839880Y-31711309D02*
X53839880Y-31711309D01*
X53982738Y-31616071D01*
X54077976Y-31520833D01*
X54125595Y-31425595D01*
X53839880Y-32616071D02*
X53839880Y-32711309D01*
X53887500Y-32806547D01*
X53935119Y-32854166D01*
X54030357Y-32901785D01*
X54220833Y-32949404D01*
X54458928Y-32949404D01*
X54649404Y-32901785D01*
X54744642Y-32854166D01*
X54792261Y-32806547D01*
X54839880Y-32711309D01*
X54839880Y-32616071D01*
X54792261Y-32520833D01*
X54744642Y-32473214D01*
X54649404Y-32425595D01*
X54458928Y-32377976D01*
X54220833Y-32377976D01*
X54030357Y-32425595D01*
X53935119Y-32473214D01*
X53887500Y-32520833D01*
X53839880Y-32616071D01*
%TO.C,D9*%
X36552380Y-96161904D02*
X35552380Y-96161904D01*
X35552380Y-96400000D01*
X35600000Y-96542857D01*
X35695238Y-96638095D01*
X35790476Y-96685714D01*
X35980952Y-96733333D01*
X36123809Y-96733333D01*
X36314285Y-96685714D01*
X36409523Y-96638095D01*
X36504761Y-96542857D01*
X36552380Y-96400000D01*
X36552380Y-96161904D01*
X36552380Y-97209523D02*
X36552380Y-97400000D01*
X36504761Y-97495238D01*
X36457142Y-97542857D01*
X36314285Y-97638095D01*
X36123809Y-97685714D01*
X35742857Y-97685714D01*
X35647619Y-97638095D01*
X35600000Y-97590476D01*
X35552380Y-97495238D01*
X35552380Y-97304761D01*
X35600000Y-97209523D01*
X35647619Y-97161904D01*
X35742857Y-97114285D01*
X35980952Y-97114285D01*
X36076190Y-97161904D01*
X36123809Y-97209523D01*
X36171428Y-97304761D01*
X36171428Y-97495238D01*
X36123809Y-97590476D01*
X36076190Y-97638095D01*
X35980952Y-97685714D01*
%TO.C,D8*%
X50077380Y-71430654D02*
X49077380Y-71430654D01*
X49077380Y-71668750D01*
X49125000Y-71811607D01*
X49220238Y-71906845D01*
X49315476Y-71954464D01*
X49505952Y-72002083D01*
X49648809Y-72002083D01*
X49839285Y-71954464D01*
X49934523Y-71906845D01*
X50029761Y-71811607D01*
X50077380Y-71668750D01*
X50077380Y-71430654D01*
X49505952Y-72573511D02*
X49458333Y-72478273D01*
X49410714Y-72430654D01*
X49315476Y-72383035D01*
X49267857Y-72383035D01*
X49172619Y-72430654D01*
X49125000Y-72478273D01*
X49077380Y-72573511D01*
X49077380Y-72763988D01*
X49125000Y-72859226D01*
X49172619Y-72906845D01*
X49267857Y-72954464D01*
X49315476Y-72954464D01*
X49410714Y-72906845D01*
X49458333Y-72859226D01*
X49505952Y-72763988D01*
X49505952Y-72573511D01*
X49553571Y-72478273D01*
X49601190Y-72430654D01*
X49696428Y-72383035D01*
X49886904Y-72383035D01*
X49982142Y-72430654D01*
X50029761Y-72478273D01*
X50077380Y-72573511D01*
X50077380Y-72763988D01*
X50029761Y-72859226D01*
X49982142Y-72906845D01*
X49886904Y-72954464D01*
X49696428Y-72954464D01*
X49601190Y-72906845D01*
X49553571Y-72859226D01*
X49505952Y-72763988D01*
%TO.C,D7*%
X45314880Y-52380654D02*
X44314880Y-52380654D01*
X44314880Y-52618750D01*
X44362500Y-52761607D01*
X44457738Y-52856845D01*
X44552976Y-52904464D01*
X44743452Y-52952083D01*
X44886309Y-52952083D01*
X45076785Y-52904464D01*
X45172023Y-52856845D01*
X45267261Y-52761607D01*
X45314880Y-52618750D01*
X45314880Y-52380654D01*
X44314880Y-53285416D02*
X44314880Y-53952083D01*
X45314880Y-53523511D01*
%TO.C,D6*%
X33050595Y-22264880D02*
X33050595Y-21264880D01*
X32812500Y-21264880D01*
X32669642Y-21312500D01*
X32574404Y-21407738D01*
X32526785Y-21502976D01*
X32479166Y-21693452D01*
X32479166Y-21836309D01*
X32526785Y-22026785D01*
X32574404Y-22122023D01*
X32669642Y-22217261D01*
X32812500Y-22264880D01*
X33050595Y-22264880D01*
X31622023Y-21264880D02*
X31812500Y-21264880D01*
X31907738Y-21312500D01*
X31955357Y-21360119D01*
X32050595Y-21502976D01*
X32098214Y-21693452D01*
X32098214Y-22074404D01*
X32050595Y-22169642D01*
X32002976Y-22217261D01*
X31907738Y-22264880D01*
X31717261Y-22264880D01*
X31622023Y-22217261D01*
X31574404Y-22169642D01*
X31526785Y-22074404D01*
X31526785Y-21836309D01*
X31574404Y-21741071D01*
X31622023Y-21693452D01*
X31717261Y-21645833D01*
X31907738Y-21645833D01*
X32002976Y-21693452D01*
X32050595Y-21741071D01*
X32098214Y-21836309D01*
%TO.C,D5*%
X19121130Y-104768154D02*
X18121130Y-104768154D01*
X18121130Y-105006250D01*
X18168750Y-105149107D01*
X18263988Y-105244345D01*
X18359226Y-105291964D01*
X18549702Y-105339583D01*
X18692559Y-105339583D01*
X18883035Y-105291964D01*
X18978273Y-105244345D01*
X19073511Y-105149107D01*
X19121130Y-105006250D01*
X19121130Y-104768154D01*
X18121130Y-106244345D02*
X18121130Y-105768154D01*
X18597321Y-105720535D01*
X18549702Y-105768154D01*
X18502083Y-105863392D01*
X18502083Y-106101488D01*
X18549702Y-106196726D01*
X18597321Y-106244345D01*
X18692559Y-106291964D01*
X18930654Y-106291964D01*
X19025892Y-106244345D01*
X19073511Y-106196726D01*
X19121130Y-106101488D01*
X19121130Y-105863392D01*
X19073511Y-105768154D01*
X19025892Y-105720535D01*
%TO.C,D4*%
X35789880Y-85718154D02*
X34789880Y-85718154D01*
X34789880Y-85956250D01*
X34837500Y-86099107D01*
X34932738Y-86194345D01*
X35027976Y-86241964D01*
X35218452Y-86289583D01*
X35361309Y-86289583D01*
X35551785Y-86241964D01*
X35647023Y-86194345D01*
X35742261Y-86099107D01*
X35789880Y-85956250D01*
X35789880Y-85718154D01*
X35123214Y-87146726D02*
X35789880Y-87146726D01*
X34742261Y-86908630D02*
X35456547Y-86670535D01*
X35456547Y-87289583D01*
%TO.C,D3*%
X21502380Y-61905654D02*
X20502380Y-61905654D01*
X20502380Y-62143750D01*
X20550000Y-62286607D01*
X20645238Y-62381845D01*
X20740476Y-62429464D01*
X20930952Y-62477083D01*
X21073809Y-62477083D01*
X21264285Y-62429464D01*
X21359523Y-62381845D01*
X21454761Y-62286607D01*
X21502380Y-62143750D01*
X21502380Y-61905654D01*
X20502380Y-62810416D02*
X20502380Y-63429464D01*
X20883333Y-63096130D01*
X20883333Y-63238988D01*
X20930952Y-63334226D01*
X20978571Y-63381845D01*
X21073809Y-63429464D01*
X21311904Y-63429464D01*
X21407142Y-63381845D01*
X21454761Y-63334226D01*
X21502380Y-63238988D01*
X21502380Y-62953273D01*
X21454761Y-62858035D01*
X21407142Y-62810416D01*
%TO.C,D2*%
X18789880Y-42855654D02*
X17789880Y-42855654D01*
X17789880Y-43093750D01*
X17837500Y-43236607D01*
X17932738Y-43331845D01*
X18027976Y-43379464D01*
X18218452Y-43427083D01*
X18361309Y-43427083D01*
X18551785Y-43379464D01*
X18647023Y-43331845D01*
X18742261Y-43236607D01*
X18789880Y-43093750D01*
X18789880Y-42855654D01*
X17885119Y-43808035D02*
X17837500Y-43855654D01*
X17789880Y-43950892D01*
X17789880Y-44188988D01*
X17837500Y-44284226D01*
X17885119Y-44331845D01*
X17980357Y-44379464D01*
X18075595Y-44379464D01*
X18218452Y-44331845D01*
X18789880Y-43760416D01*
X18789880Y-44379464D01*
%TO.C,D1*%
X11619345Y-24646130D02*
X11619345Y-23646130D01*
X11381250Y-23646130D01*
X11238392Y-23693750D01*
X11143154Y-23788988D01*
X11095535Y-23884226D01*
X11047916Y-24074702D01*
X11047916Y-24217559D01*
X11095535Y-24408035D01*
X11143154Y-24503273D01*
X11238392Y-24598511D01*
X11381250Y-24646130D01*
X11619345Y-24646130D01*
X10095535Y-24646130D02*
X10666964Y-24646130D01*
X10381250Y-24646130D02*
X10381250Y-23646130D01*
X10476488Y-23788988D01*
X10571726Y-23884226D01*
X10666964Y-23931845D01*
%TO.C,B1*%
D12*
X-4964792Y-28328257D02*
X-4935764Y-28415342D01*
X-4906735Y-28444371D01*
X-4848678Y-28473400D01*
X-4761592Y-28473400D01*
X-4703535Y-28444371D01*
X-4674507Y-28415342D01*
X-4645478Y-28357285D01*
X-4645478Y-28125057D01*
X-5255078Y-28125057D01*
X-5255078Y-28328257D01*
X-5226050Y-28386314D01*
X-5197021Y-28415342D01*
X-5138964Y-28444371D01*
X-5080907Y-28444371D01*
X-5022850Y-28415342D01*
X-4993821Y-28386314D01*
X-4964792Y-28328257D01*
X-4964792Y-28125057D01*
X-4645478Y-29053971D02*
X-4645478Y-28705628D01*
X-4645478Y-28879800D02*
X-5255078Y-28879800D01*
X-5167992Y-28821742D01*
X-5109935Y-28763685D01*
X-5080907Y-28705628D01*
X25834521Y-26136600D02*
X25224921Y-26136600D01*
X25224921Y-26368828D01*
X25253950Y-26426885D01*
X25282978Y-26455914D01*
X25341035Y-26484942D01*
X25428121Y-26484942D01*
X25486178Y-26455914D01*
X25515207Y-26426885D01*
X25544235Y-26368828D01*
X25544235Y-26136600D01*
X25834521Y-27094542D02*
X25544235Y-26891342D01*
X25834521Y-26746200D02*
X25224921Y-26746200D01*
X25224921Y-26978428D01*
X25253950Y-27036485D01*
X25282978Y-27065514D01*
X25341035Y-27094542D01*
X25428121Y-27094542D01*
X25486178Y-27065514D01*
X25515207Y-27036485D01*
X25544235Y-26978428D01*
X25544235Y-26746200D01*
X25224921Y-27471914D02*
X25224921Y-27588028D01*
X25253950Y-27646085D01*
X25312007Y-27704142D01*
X25428121Y-27733171D01*
X25631321Y-27733171D01*
X25747435Y-27704142D01*
X25805492Y-27646085D01*
X25834521Y-27588028D01*
X25834521Y-27471914D01*
X25805492Y-27413857D01*
X25747435Y-27355800D01*
X25631321Y-27326771D01*
X25428121Y-27326771D01*
X25312007Y-27355800D01*
X25253950Y-27413857D01*
X25224921Y-27471914D01*
X25892578Y-27849285D02*
X25892578Y-28313742D01*
X25834521Y-28458885D02*
X25224921Y-28458885D01*
X25660350Y-28662085D01*
X25224921Y-28865285D01*
X25834521Y-28865285D01*
X25834521Y-29155571D02*
X25224921Y-29155571D01*
X25776464Y-29794200D02*
X25805492Y-29765171D01*
X25834521Y-29678085D01*
X25834521Y-29620028D01*
X25805492Y-29532942D01*
X25747435Y-29474885D01*
X25689378Y-29445857D01*
X25573264Y-29416828D01*
X25486178Y-29416828D01*
X25370064Y-29445857D01*
X25312007Y-29474885D01*
X25253950Y-29532942D01*
X25224921Y-29620028D01*
X25224921Y-29678085D01*
X25253950Y-29765171D01*
X25282978Y-29794200D01*
X25834521Y-30403800D02*
X25544235Y-30200600D01*
X25834521Y-30055457D02*
X25224921Y-30055457D01*
X25224921Y-30287685D01*
X25253950Y-30345742D01*
X25282978Y-30374771D01*
X25341035Y-30403800D01*
X25428121Y-30403800D01*
X25486178Y-30374771D01*
X25515207Y-30345742D01*
X25544235Y-30287685D01*
X25544235Y-30055457D01*
X25224921Y-30781171D02*
X25224921Y-30897285D01*
X25253950Y-30955342D01*
X25312007Y-31013400D01*
X25428121Y-31042428D01*
X25631321Y-31042428D01*
X25747435Y-31013400D01*
X25805492Y-30955342D01*
X25834521Y-30897285D01*
X25834521Y-30781171D01*
X25805492Y-30723114D01*
X25747435Y-30665057D01*
X25631321Y-30636028D01*
X25428121Y-30636028D01*
X25312007Y-30665057D01*
X25253950Y-30723114D01*
X25224921Y-30781171D01*
%TD*%
M02*
