%TF.GenerationSoftware,KiCad,Pcbnew,(5.1.8-0-10_14)*%
%TF.CreationDate,2021-09-01T06:12:34+09:00*%
%TF.ProjectId,ts68,74733638-2e6b-4696-9361-645f70636258,rev?*%
%TF.SameCoordinates,Original*%
%TF.FileFunction,Soldermask,Bot*%
%TF.FilePolarity,Negative*%
%FSLAX46Y46*%
G04 Gerber Fmt 4.6, Leading zero omitted, Abs format (unit mm)*
G04 Created by KiCad (PCBNEW (5.1.8-0-10_14)) date 2021-09-01 06:12:34*
%MOMM*%
%LPD*%
G01*
G04 APERTURE LIST*
%ADD10C,2.250000*%
%ADD11C,3.987800*%
%ADD12C,1.750000*%
%ADD13R,1.200000X0.900000*%
%ADD14R,0.900000X1.200000*%
%ADD15C,3.048000*%
%ADD16C,2.082800*%
G04 APERTURE END LIST*
D10*
%TO.C,MX65*%
X293052500Y-61595000D03*
D11*
X290512500Y-66675000D03*
D10*
X286702500Y-64135000D03*
D12*
X285432500Y-66675000D03*
X295592500Y-66675000D03*
%TD*%
%TO.C,MX58*%
X238442500Y-104775000D03*
X228282500Y-104775000D03*
D10*
X229552500Y-102235000D03*
D11*
X233362500Y-104775000D03*
D10*
X235902500Y-99695000D03*
%TD*%
D13*
%TO.C,D70*%
X288131250Y-98550000D03*
X288131250Y-95250000D03*
%TD*%
%TO.C,D69*%
X283368750Y-77118750D03*
X283368750Y-73818750D03*
%TD*%
%TO.C,D68*%
X280987500Y-51468750D03*
X280987500Y-54768750D03*
%TD*%
%TO.C,D67*%
X283368750Y-30037500D03*
X283368750Y-33337500D03*
%TD*%
%TO.C,D66*%
X261937500Y-103856250D03*
X261937500Y-107156250D03*
%TD*%
%TO.C,D65*%
X261937500Y-87187500D03*
X261937500Y-90487500D03*
%TD*%
%TO.C,D64*%
X278606250Y-65756250D03*
X278606250Y-69056250D03*
%TD*%
%TO.C,D63*%
X257175000Y-49087500D03*
X257175000Y-52387500D03*
%TD*%
%TO.C,D62*%
X278606250Y-30037500D03*
X278606250Y-33337500D03*
%TD*%
%TO.C,D61*%
X259556250Y-98550000D03*
X259556250Y-95250000D03*
%TD*%
%TO.C,D60*%
X266700000Y-70518750D03*
X266700000Y-73818750D03*
%TD*%
%TO.C,D59*%
X245268750Y-34800000D03*
X245268750Y-38100000D03*
%TD*%
%TO.C,D58*%
X242887500Y-103856250D03*
X242887500Y-107156250D03*
%TD*%
%TO.C,D57*%
X257175000Y-87187500D03*
X257175000Y-90487500D03*
%TD*%
%TO.C,D56*%
X238125000Y-68137500D03*
X238125000Y-71437500D03*
%TD*%
%TO.C,D55*%
X252412500Y-49087500D03*
X252412500Y-52387500D03*
%TD*%
%TO.C,D54*%
X240506250Y-30037500D03*
X240506250Y-33337500D03*
%TD*%
%TO.C,D53*%
X221456250Y-98550000D03*
X221456250Y-95250000D03*
%TD*%
%TO.C,D52*%
X228600000Y-79500000D03*
X228600000Y-76200000D03*
%TD*%
%TO.C,D51*%
X233362500Y-51468750D03*
X233362500Y-54768750D03*
%TD*%
%TO.C,D50*%
X223837500Y-32418750D03*
X223837500Y-35718750D03*
%TD*%
%TO.C,D49*%
X202406250Y-103856250D03*
X202406250Y-107156250D03*
%TD*%
%TO.C,D48*%
X209550000Y-87187500D03*
X209550000Y-90487500D03*
%TD*%
%TO.C,D47*%
X219075000Y-68137500D03*
X219075000Y-71437500D03*
%TD*%
%TO.C,D46*%
X214312500Y-49087500D03*
X214312500Y-52387500D03*
%TD*%
%TO.C,D45*%
X204787500Y-30037500D03*
X204787500Y-33337500D03*
%TD*%
%TO.C,D44*%
X190500000Y-91950000D03*
X190500000Y-95250000D03*
%TD*%
%TO.C,D43*%
X200025000Y-70518750D03*
X200025000Y-73818750D03*
%TD*%
%TO.C,D42*%
X195262500Y-51468750D03*
X195262500Y-54768750D03*
%TD*%
%TO.C,D41*%
X185737500Y-32418750D03*
X185737500Y-35718750D03*
%TD*%
%TO.C,D40*%
X161925000Y-103856250D03*
X161925000Y-107156250D03*
%TD*%
%TO.C,D39*%
X171450000Y-87187500D03*
X171450000Y-90487500D03*
%TD*%
%TO.C,D38*%
X180975000Y-68137500D03*
X180975000Y-71437500D03*
%TD*%
%TO.C,D37*%
X176212500Y-49087500D03*
X176212500Y-52387500D03*
%TD*%
%TO.C,D36*%
X166687500Y-30037500D03*
X166687500Y-33337500D03*
%TD*%
%TO.C,D35*%
X152400000Y-91950000D03*
X152400000Y-95250000D03*
%TD*%
%TO.C,D34*%
X161925000Y-70518750D03*
X161925000Y-73818750D03*
%TD*%
%TO.C,D33*%
X157162500Y-51468750D03*
X157162500Y-54768750D03*
%TD*%
%TO.C,D32*%
X147637500Y-32418750D03*
X147637500Y-35718750D03*
%TD*%
%TO.C,D31*%
X133350000Y-87187500D03*
X133350000Y-90487500D03*
%TD*%
%TO.C,D30*%
X142875000Y-68137500D03*
X142875000Y-71437500D03*
%TD*%
%TO.C,D29*%
X138112500Y-49087500D03*
X138112500Y-52387500D03*
%TD*%
%TO.C,D28*%
X128587500Y-30037500D03*
X128587500Y-33337500D03*
%TD*%
%TO.C,D27*%
X123825000Y-91950000D03*
X123825000Y-95250000D03*
%TD*%
%TO.C,D26*%
X123825000Y-70518750D03*
X123825000Y-73818750D03*
%TD*%
%TO.C,D25*%
X119062500Y-51468750D03*
X119062500Y-54768750D03*
%TD*%
%TO.C,D24*%
X109537500Y-32418750D03*
X109537500Y-35718750D03*
%TD*%
%TO.C,D23*%
X104775000Y-103856250D03*
X104775000Y-107156250D03*
%TD*%
%TO.C,D22*%
X95250000Y-87187500D03*
X95250000Y-90487500D03*
%TD*%
%TO.C,D21*%
X104775000Y-68137500D03*
X104775000Y-71437500D03*
%TD*%
%TO.C,D20*%
X100012500Y-49087500D03*
X100012500Y-52387500D03*
%TD*%
%TO.C,D19*%
X90487500Y-30037500D03*
X90487500Y-33337500D03*
%TD*%
%TO.C,D18*%
X66675000Y-91950000D03*
X66675000Y-95250000D03*
%TD*%
%TO.C,D17*%
X85725000Y-70518750D03*
X85725000Y-73818750D03*
%TD*%
%TO.C,D16*%
X80962500Y-51468750D03*
X80962500Y-54768750D03*
%TD*%
%TO.C,D15*%
X71437500Y-32418750D03*
X71437500Y-35718750D03*
%TD*%
%TO.C,D14*%
X64293750Y-103856250D03*
X64293750Y-107156250D03*
%TD*%
%TO.C,D13*%
X57150000Y-87187500D03*
X57150000Y-90487500D03*
%TD*%
%TO.C,D12*%
X66675000Y-68137500D03*
X66675000Y-71437500D03*
%TD*%
%TO.C,D11*%
X61912500Y-49087500D03*
X61912500Y-52387500D03*
%TD*%
%TO.C,D10*%
X52387500Y-30037500D03*
X52387500Y-33337500D03*
%TD*%
%TO.C,D9*%
X38100000Y-98550000D03*
X38100000Y-95250000D03*
%TD*%
%TO.C,D8*%
X47625000Y-70518750D03*
X47625000Y-73818750D03*
%TD*%
%TO.C,D7*%
X42862500Y-51468750D03*
X42862500Y-54768750D03*
%TD*%
D14*
%TO.C,D6*%
X30662500Y-23812500D03*
X33962500Y-23812500D03*
%TD*%
D13*
%TO.C,D5*%
X16668750Y-103856250D03*
X16668750Y-107156250D03*
%TD*%
%TO.C,D4*%
X33337500Y-84806250D03*
X33337500Y-88106250D03*
%TD*%
%TO.C,D3*%
X19050000Y-60993750D03*
X19050000Y-64293750D03*
%TD*%
%TO.C,D2*%
X16337500Y-41943750D03*
X16337500Y-45243750D03*
%TD*%
D14*
%TO.C,D1*%
X9231250Y-26193750D03*
X12531250Y-26193750D03*
%TD*%
D10*
%TO.C,MX10*%
X45402500Y-23495000D03*
D11*
X42862500Y-28575000D03*
D10*
X39052500Y-26035000D03*
D12*
X37782500Y-28575000D03*
X47942500Y-28575000D03*
%TD*%
D10*
%TO.C,MX45*%
X197802500Y-23495000D03*
D11*
X195262500Y-28575000D03*
D10*
X191452500Y-26035000D03*
D12*
X190182500Y-28575000D03*
X200342500Y-28575000D03*
%TD*%
D10*
%TO.C,MX19*%
X83502500Y-23495000D03*
D11*
X80962500Y-28575000D03*
D10*
X77152500Y-26035000D03*
D12*
X75882500Y-28575000D03*
X86042500Y-28575000D03*
%TD*%
%TO.C,MX44*%
X186055000Y-85725000D03*
X175895000Y-85725000D03*
D10*
X177165000Y-83185000D03*
D11*
X180975000Y-85725000D03*
D10*
X183515000Y-80645000D03*
%TD*%
%TO.C,MX23*%
X97790000Y-99695000D03*
X91440000Y-102235000D03*
D11*
X95250000Y-104775000D03*
D12*
X90170000Y-104775000D03*
X100330000Y-104775000D03*
D15*
X76200000Y-111760000D03*
X114300000Y-111760000D03*
D11*
X76200000Y-96520000D03*
X114300000Y-96520000D03*
%TD*%
D10*
%TO.C,MX40*%
X154940000Y-99695000D03*
X148590000Y-102235000D03*
D11*
X152400000Y-104775000D03*
D12*
X147320000Y-104775000D03*
X157480000Y-104775000D03*
D15*
X133350000Y-111760000D03*
X171450000Y-111760000D03*
D11*
X133350000Y-96520000D03*
X171450000Y-96520000D03*
%TD*%
D10*
%TO.C,MX5*%
X9683750Y-99695000D03*
D11*
X7143750Y-104775000D03*
D10*
X3333750Y-102235000D03*
D12*
X2063750Y-104775000D03*
X12223750Y-104775000D03*
%TD*%
%TO.C,MX3*%
X16986250Y-66675000D03*
X6826250Y-66675000D03*
D10*
X8096250Y-64135000D03*
D11*
X11906250Y-66675000D03*
D10*
X14446250Y-61595000D03*
%TD*%
D12*
%TO.C,MX12*%
X62230000Y-66675000D03*
X52070000Y-66675000D03*
D10*
X53340000Y-64135000D03*
D11*
X57150000Y-66675000D03*
D10*
X59690000Y-61595000D03*
%TD*%
D12*
%TO.C,MX7*%
X38417500Y-47625000D03*
X28257500Y-47625000D03*
D10*
X29527500Y-45085000D03*
D11*
X33337500Y-47625000D03*
D10*
X35877500Y-42545000D03*
%TD*%
D16*
%TO.C,B1*%
X-2381250Y-20955000D03*
X158750Y-20955000D03*
X2698750Y-20955000D03*
X5238750Y-20955000D03*
X7778750Y-20955000D03*
X10318750Y-20955000D03*
X12858750Y-20955000D03*
X15398750Y-20955000D03*
X17938750Y-20955000D03*
X20478750Y-20955000D03*
X23018750Y-20955000D03*
X25558750Y-20955000D03*
X25558750Y-36195000D03*
X23018750Y-36195000D03*
X20478750Y-36195000D03*
X17938750Y-36195000D03*
X15398750Y-36195000D03*
X12858750Y-36195000D03*
X10318750Y-36195000D03*
X7778750Y-36195000D03*
X5238750Y-36195000D03*
X2698750Y-36195000D03*
X158750Y-36195000D03*
X-2381250Y-36195000D03*
%TD*%
D12*
%TO.C,MX1*%
X9842500Y-28575000D03*
X-317500Y-28575000D03*
D10*
X952500Y-26035000D03*
D11*
X4762500Y-28575000D03*
D10*
X7302500Y-23495000D03*
%TD*%
%TO.C,MX2*%
X12065000Y-42545000D03*
D11*
X9525000Y-47625000D03*
D10*
X5715000Y-45085000D03*
D12*
X4445000Y-47625000D03*
X14605000Y-47625000D03*
%TD*%
D11*
%TO.C,MX4*%
X28575000Y-93980000D03*
X4762500Y-93980000D03*
D15*
X28575000Y-78740000D03*
X4762500Y-78740000D03*
D12*
X21748750Y-85725000D03*
X11588750Y-85725000D03*
D10*
X12858750Y-83185000D03*
D11*
X16668750Y-85725000D03*
D10*
X19208750Y-80645000D03*
%TD*%
%TO.C,MX6*%
X26352500Y-23495000D03*
D11*
X23812500Y-28575000D03*
D10*
X20002500Y-26035000D03*
D12*
X18732500Y-28575000D03*
X28892500Y-28575000D03*
%TD*%
D10*
%TO.C,MX8*%
X40640000Y-61595000D03*
D11*
X38100000Y-66675000D03*
D10*
X34290000Y-64135000D03*
D12*
X33020000Y-66675000D03*
X43180000Y-66675000D03*
%TD*%
%TO.C,MX9*%
X36036250Y-104775000D03*
X25876250Y-104775000D03*
D10*
X27146250Y-102235000D03*
D11*
X30956250Y-104775000D03*
D10*
X33496250Y-99695000D03*
%TD*%
D12*
%TO.C,MX11*%
X57467500Y-47625000D03*
X47307500Y-47625000D03*
D10*
X48577500Y-45085000D03*
D11*
X52387500Y-47625000D03*
D10*
X54927500Y-42545000D03*
%TD*%
%TO.C,MX13*%
X50165000Y-80645000D03*
D11*
X47625000Y-85725000D03*
D10*
X43815000Y-83185000D03*
D12*
X42545000Y-85725000D03*
X52705000Y-85725000D03*
%TD*%
%TO.C,MX14*%
X59848750Y-104775000D03*
X49688750Y-104775000D03*
D10*
X50958750Y-102235000D03*
D11*
X54768750Y-104775000D03*
D10*
X57308750Y-99695000D03*
%TD*%
%TO.C,MX15*%
X64452500Y-23495000D03*
D11*
X61912500Y-28575000D03*
D10*
X58102500Y-26035000D03*
D12*
X56832500Y-28575000D03*
X66992500Y-28575000D03*
%TD*%
%TO.C,MX16*%
X76517500Y-47625000D03*
X66357500Y-47625000D03*
D10*
X67627500Y-45085000D03*
D11*
X71437500Y-47625000D03*
D10*
X73977500Y-42545000D03*
%TD*%
D12*
%TO.C,MX17*%
X81280000Y-66675000D03*
X71120000Y-66675000D03*
D10*
X72390000Y-64135000D03*
D11*
X76200000Y-66675000D03*
D10*
X78740000Y-61595000D03*
%TD*%
%TO.C,MX18*%
X69215000Y-80645000D03*
D11*
X66675000Y-85725000D03*
D10*
X62865000Y-83185000D03*
D12*
X61595000Y-85725000D03*
X71755000Y-85725000D03*
%TD*%
%TO.C,MX20*%
X95567500Y-47625000D03*
X85407500Y-47625000D03*
D10*
X86677500Y-45085000D03*
D11*
X90487500Y-47625000D03*
D10*
X93027500Y-42545000D03*
%TD*%
D12*
%TO.C,MX21*%
X100330000Y-66675000D03*
X90170000Y-66675000D03*
D10*
X91440000Y-64135000D03*
D11*
X95250000Y-66675000D03*
D10*
X97790000Y-61595000D03*
%TD*%
%TO.C,MX22*%
X88265000Y-80645000D03*
D11*
X85725000Y-85725000D03*
D10*
X81915000Y-83185000D03*
D12*
X80645000Y-85725000D03*
X90805000Y-85725000D03*
%TD*%
D10*
%TO.C,MX24*%
X102552500Y-23495000D03*
D11*
X100012500Y-28575000D03*
D10*
X96202500Y-26035000D03*
D12*
X94932500Y-28575000D03*
X105092500Y-28575000D03*
%TD*%
%TO.C,MX25*%
X114617500Y-47625000D03*
X104457500Y-47625000D03*
D10*
X105727500Y-45085000D03*
D11*
X109537500Y-47625000D03*
D10*
X112077500Y-42545000D03*
%TD*%
D12*
%TO.C,MX26*%
X119380000Y-66675000D03*
X109220000Y-66675000D03*
D10*
X110490000Y-64135000D03*
D11*
X114300000Y-66675000D03*
D10*
X116840000Y-61595000D03*
%TD*%
%TO.C,MX27*%
X107315000Y-80645000D03*
D11*
X104775000Y-85725000D03*
D10*
X100965000Y-83185000D03*
D12*
X99695000Y-85725000D03*
X109855000Y-85725000D03*
%TD*%
D10*
%TO.C,MX28*%
X121602500Y-23495000D03*
D11*
X119062500Y-28575000D03*
D10*
X115252500Y-26035000D03*
D12*
X113982500Y-28575000D03*
X124142500Y-28575000D03*
%TD*%
%TO.C,MX29*%
X133667500Y-47625000D03*
X123507500Y-47625000D03*
D10*
X124777500Y-45085000D03*
D11*
X128587500Y-47625000D03*
D10*
X131127500Y-42545000D03*
%TD*%
D12*
%TO.C,MX30*%
X138430000Y-66675000D03*
X128270000Y-66675000D03*
D10*
X129540000Y-64135000D03*
D11*
X133350000Y-66675000D03*
D10*
X135890000Y-61595000D03*
%TD*%
%TO.C,MX31*%
X126365000Y-80645000D03*
D11*
X123825000Y-85725000D03*
D10*
X120015000Y-83185000D03*
D12*
X118745000Y-85725000D03*
X128905000Y-85725000D03*
%TD*%
D10*
%TO.C,MX32*%
X140652500Y-23495000D03*
D11*
X138112500Y-28575000D03*
D10*
X134302500Y-26035000D03*
D12*
X133032500Y-28575000D03*
X143192500Y-28575000D03*
%TD*%
%TO.C,MX33*%
X152717500Y-47625000D03*
X142557500Y-47625000D03*
D10*
X143827500Y-45085000D03*
D11*
X147637500Y-47625000D03*
D10*
X150177500Y-42545000D03*
%TD*%
D12*
%TO.C,MX34*%
X157480000Y-66675000D03*
X147320000Y-66675000D03*
D10*
X148590000Y-64135000D03*
D11*
X152400000Y-66675000D03*
D10*
X154940000Y-61595000D03*
%TD*%
%TO.C,MX35*%
X145415000Y-80645000D03*
D11*
X142875000Y-85725000D03*
D10*
X139065000Y-83185000D03*
D12*
X137795000Y-85725000D03*
X147955000Y-85725000D03*
%TD*%
D10*
%TO.C,MX36*%
X159702500Y-23495000D03*
D11*
X157162500Y-28575000D03*
D10*
X153352500Y-26035000D03*
D12*
X152082500Y-28575000D03*
X162242500Y-28575000D03*
%TD*%
%TO.C,MX37*%
X171767500Y-47625000D03*
X161607500Y-47625000D03*
D10*
X162877500Y-45085000D03*
D11*
X166687500Y-47625000D03*
D10*
X169227500Y-42545000D03*
%TD*%
D12*
%TO.C,MX38*%
X176530000Y-66675000D03*
X166370000Y-66675000D03*
D10*
X167640000Y-64135000D03*
D11*
X171450000Y-66675000D03*
D10*
X173990000Y-61595000D03*
%TD*%
%TO.C,MX39*%
X164465000Y-80645000D03*
D11*
X161925000Y-85725000D03*
D10*
X158115000Y-83185000D03*
D12*
X156845000Y-85725000D03*
X167005000Y-85725000D03*
%TD*%
D10*
%TO.C,MX41*%
X178752500Y-23495000D03*
D11*
X176212500Y-28575000D03*
D10*
X172402500Y-26035000D03*
D12*
X171132500Y-28575000D03*
X181292500Y-28575000D03*
%TD*%
%TO.C,MX42*%
X190817500Y-47625000D03*
X180657500Y-47625000D03*
D10*
X181927500Y-45085000D03*
D11*
X185737500Y-47625000D03*
D10*
X188277500Y-42545000D03*
%TD*%
%TO.C,MX43*%
X193040000Y-61595000D03*
D11*
X190500000Y-66675000D03*
D10*
X186690000Y-64135000D03*
D12*
X185420000Y-66675000D03*
X195580000Y-66675000D03*
%TD*%
%TO.C,MX46*%
X209867500Y-47625000D03*
X199707500Y-47625000D03*
D10*
X200977500Y-45085000D03*
D11*
X204787500Y-47625000D03*
D10*
X207327500Y-42545000D03*
%TD*%
%TO.C,MX47*%
X212090000Y-61595000D03*
D11*
X209550000Y-66675000D03*
D10*
X205740000Y-64135000D03*
D12*
X204470000Y-66675000D03*
X214630000Y-66675000D03*
%TD*%
%TO.C,MX48*%
X205105000Y-85725000D03*
X194945000Y-85725000D03*
D10*
X196215000Y-83185000D03*
D11*
X200025000Y-85725000D03*
D10*
X202565000Y-80645000D03*
%TD*%
%TO.C,MX49*%
X195421250Y-99695000D03*
D11*
X192881250Y-104775000D03*
D10*
X189071250Y-102235000D03*
D12*
X187801250Y-104775000D03*
X197961250Y-104775000D03*
%TD*%
D10*
%TO.C,MX50*%
X216852500Y-23495000D03*
D11*
X214312500Y-28575000D03*
D10*
X210502500Y-26035000D03*
D12*
X209232500Y-28575000D03*
X219392500Y-28575000D03*
%TD*%
%TO.C,MX51*%
X228917500Y-47625000D03*
X218757500Y-47625000D03*
D10*
X220027500Y-45085000D03*
D11*
X223837500Y-47625000D03*
D10*
X226377500Y-42545000D03*
%TD*%
%TO.C,MX52*%
X221615000Y-80645000D03*
D11*
X219075000Y-85725000D03*
D10*
X215265000Y-83185000D03*
D12*
X213995000Y-85725000D03*
X224155000Y-85725000D03*
%TD*%
%TO.C,MX53*%
X219392500Y-104775000D03*
X209232500Y-104775000D03*
D10*
X210502500Y-102235000D03*
D11*
X214312500Y-104775000D03*
D10*
X216852500Y-99695000D03*
%TD*%
%TO.C,MX54*%
X235902500Y-23495000D03*
D11*
X233362500Y-28575000D03*
D10*
X229552500Y-26035000D03*
D12*
X228282500Y-28575000D03*
X238442500Y-28575000D03*
%TD*%
%TO.C,MX55*%
X247877501Y-47625000D03*
X237717501Y-47625000D03*
D10*
X238987501Y-45085000D03*
D11*
X242797501Y-47625000D03*
D10*
X245337501Y-42545000D03*
%TD*%
%TO.C,MX56*%
X231140000Y-61595000D03*
D11*
X228600000Y-66675000D03*
D10*
X224790000Y-64135000D03*
D12*
X223520000Y-66675000D03*
X233680000Y-66675000D03*
%TD*%
D10*
%TO.C,MX57*%
X247808750Y-80645000D03*
D11*
X245268750Y-85725000D03*
D10*
X241458750Y-83185000D03*
D12*
X240188750Y-85725000D03*
X250348750Y-85725000D03*
%TD*%
D10*
%TO.C,MX59*%
X254952500Y-23495000D03*
D11*
X252412500Y-28575000D03*
D10*
X248602500Y-26035000D03*
D12*
X247332500Y-28575000D03*
X257492500Y-28575000D03*
%TD*%
D10*
%TO.C,MX60*%
X262096250Y-61595000D03*
D11*
X259556250Y-66675000D03*
D10*
X255746250Y-64135000D03*
D12*
X254476250Y-66675000D03*
X264636250Y-66675000D03*
D15*
X247650000Y-59690000D03*
X271462500Y-59690000D03*
D11*
X247650000Y-74930000D03*
X271462500Y-74930000D03*
%TD*%
D12*
%TO.C,MX61*%
X257492500Y-104775000D03*
X247332500Y-104775000D03*
D10*
X248602500Y-102235000D03*
D11*
X252412500Y-104775000D03*
D10*
X254952500Y-99695000D03*
%TD*%
D11*
%TO.C,MX62*%
X273843750Y-36830000D03*
X250031250Y-36830000D03*
D15*
X273843750Y-21590000D03*
X250031250Y-21590000D03*
D12*
X267017500Y-28575000D03*
X256857500Y-28575000D03*
D10*
X258127500Y-26035000D03*
D11*
X261937500Y-28575000D03*
D10*
X264477500Y-23495000D03*
%TD*%
%TO.C,MX63*%
X274002500Y-23495000D03*
D11*
X271462500Y-28575000D03*
D10*
X267652500Y-26035000D03*
D12*
X266382500Y-28575000D03*
X276542500Y-28575000D03*
%TD*%
%TO.C,MX64*%
X271780000Y-47625000D03*
X261620000Y-47625000D03*
D10*
X262890000Y-45085000D03*
D11*
X266700000Y-47625000D03*
D10*
X269240000Y-42545000D03*
%TD*%
D12*
%TO.C,MX66*%
X276542500Y-85725000D03*
X266382500Y-85725000D03*
D10*
X267652500Y-83185000D03*
D11*
X271462500Y-85725000D03*
D10*
X274002500Y-80645000D03*
%TD*%
D12*
%TO.C,MX67*%
X276542500Y-104775000D03*
X266382500Y-104775000D03*
D10*
X267652500Y-102235000D03*
D11*
X271462500Y-104775000D03*
D10*
X274002500Y-99695000D03*
%TD*%
%TO.C,MX68*%
X293052500Y-23495000D03*
D11*
X290512500Y-28575000D03*
D10*
X286702500Y-26035000D03*
D12*
X285432500Y-28575000D03*
X295592500Y-28575000D03*
%TD*%
%TO.C,MX69*%
X295592500Y-47625000D03*
X285432500Y-47625000D03*
D10*
X286702500Y-45085000D03*
D11*
X290512500Y-47625000D03*
D10*
X293052500Y-42545000D03*
%TD*%
%TO.C,MX70*%
X293052500Y-80645000D03*
D11*
X290512500Y-85725000D03*
D10*
X286702500Y-83185000D03*
D12*
X285432500Y-85725000D03*
X295592500Y-85725000D03*
%TD*%
%TO.C,MX71*%
X295592500Y-104775000D03*
X285432500Y-104775000D03*
D10*
X286702500Y-102235000D03*
D11*
X290512500Y-104775000D03*
D10*
X293052500Y-99695000D03*
%TD*%
M02*
