%TF.GenerationSoftware,KiCad,Pcbnew,(5.1.8-0-10_14)*%
%TF.CreationDate,2021-09-01T06:12:34+09:00*%
%TF.ProjectId,ts68,74733638-2e6b-4696-9361-645f70636258,rev?*%
%TF.SameCoordinates,Original*%
%TF.FileFunction,Paste,Bot*%
%TF.FilePolarity,Positive*%
%FSLAX46Y46*%
G04 Gerber Fmt 4.6, Leading zero omitted, Abs format (unit mm)*
G04 Created by KiCad (PCBNEW (5.1.8-0-10_14)) date 2021-09-01 06:12:34*
%MOMM*%
%LPD*%
G01*
G04 APERTURE LIST*
%ADD10R,1.200000X0.900000*%
%ADD11R,0.900000X1.200000*%
G04 APERTURE END LIST*
D10*
%TO.C,D70*%
X288131250Y-98550000D03*
X288131250Y-95250000D03*
%TD*%
%TO.C,D69*%
X283368750Y-77118750D03*
X283368750Y-73818750D03*
%TD*%
%TO.C,D68*%
X280987500Y-51468750D03*
X280987500Y-54768750D03*
%TD*%
%TO.C,D67*%
X283368750Y-30037500D03*
X283368750Y-33337500D03*
%TD*%
%TO.C,D66*%
X261937500Y-103856250D03*
X261937500Y-107156250D03*
%TD*%
%TO.C,D65*%
X261937500Y-87187500D03*
X261937500Y-90487500D03*
%TD*%
%TO.C,D64*%
X278606250Y-65756250D03*
X278606250Y-69056250D03*
%TD*%
%TO.C,D63*%
X257175000Y-49087500D03*
X257175000Y-52387500D03*
%TD*%
%TO.C,D62*%
X278606250Y-30037500D03*
X278606250Y-33337500D03*
%TD*%
%TO.C,D61*%
X259556250Y-98550000D03*
X259556250Y-95250000D03*
%TD*%
%TO.C,D60*%
X266700000Y-70518750D03*
X266700000Y-73818750D03*
%TD*%
%TO.C,D59*%
X245268750Y-34800000D03*
X245268750Y-38100000D03*
%TD*%
%TO.C,D58*%
X242887500Y-103856250D03*
X242887500Y-107156250D03*
%TD*%
%TO.C,D57*%
X257175000Y-87187500D03*
X257175000Y-90487500D03*
%TD*%
%TO.C,D56*%
X238125000Y-68137500D03*
X238125000Y-71437500D03*
%TD*%
%TO.C,D55*%
X252412500Y-49087500D03*
X252412500Y-52387500D03*
%TD*%
%TO.C,D54*%
X240506250Y-30037500D03*
X240506250Y-33337500D03*
%TD*%
%TO.C,D53*%
X221456250Y-98550000D03*
X221456250Y-95250000D03*
%TD*%
%TO.C,D52*%
X228600000Y-79500000D03*
X228600000Y-76200000D03*
%TD*%
%TO.C,D51*%
X233362500Y-51468750D03*
X233362500Y-54768750D03*
%TD*%
%TO.C,D50*%
X223837500Y-32418750D03*
X223837500Y-35718750D03*
%TD*%
%TO.C,D49*%
X202406250Y-103856250D03*
X202406250Y-107156250D03*
%TD*%
%TO.C,D48*%
X209550000Y-87187500D03*
X209550000Y-90487500D03*
%TD*%
%TO.C,D47*%
X219075000Y-68137500D03*
X219075000Y-71437500D03*
%TD*%
%TO.C,D46*%
X214312500Y-49087500D03*
X214312500Y-52387500D03*
%TD*%
%TO.C,D45*%
X204787500Y-30037500D03*
X204787500Y-33337500D03*
%TD*%
%TO.C,D44*%
X190500000Y-91950000D03*
X190500000Y-95250000D03*
%TD*%
%TO.C,D43*%
X200025000Y-70518750D03*
X200025000Y-73818750D03*
%TD*%
%TO.C,D42*%
X195262500Y-51468750D03*
X195262500Y-54768750D03*
%TD*%
%TO.C,D41*%
X185737500Y-32418750D03*
X185737500Y-35718750D03*
%TD*%
%TO.C,D40*%
X161925000Y-103856250D03*
X161925000Y-107156250D03*
%TD*%
%TO.C,D39*%
X171450000Y-87187500D03*
X171450000Y-90487500D03*
%TD*%
%TO.C,D38*%
X180975000Y-68137500D03*
X180975000Y-71437500D03*
%TD*%
%TO.C,D37*%
X176212500Y-49087500D03*
X176212500Y-52387500D03*
%TD*%
%TO.C,D36*%
X166687500Y-30037500D03*
X166687500Y-33337500D03*
%TD*%
%TO.C,D35*%
X152400000Y-91950000D03*
X152400000Y-95250000D03*
%TD*%
%TO.C,D34*%
X161925000Y-70518750D03*
X161925000Y-73818750D03*
%TD*%
%TO.C,D33*%
X157162500Y-51468750D03*
X157162500Y-54768750D03*
%TD*%
%TO.C,D32*%
X147637500Y-32418750D03*
X147637500Y-35718750D03*
%TD*%
%TO.C,D31*%
X133350000Y-87187500D03*
X133350000Y-90487500D03*
%TD*%
%TO.C,D30*%
X142875000Y-68137500D03*
X142875000Y-71437500D03*
%TD*%
%TO.C,D29*%
X138112500Y-49087500D03*
X138112500Y-52387500D03*
%TD*%
%TO.C,D28*%
X128587500Y-30037500D03*
X128587500Y-33337500D03*
%TD*%
%TO.C,D27*%
X123825000Y-91950000D03*
X123825000Y-95250000D03*
%TD*%
%TO.C,D26*%
X123825000Y-70518750D03*
X123825000Y-73818750D03*
%TD*%
%TO.C,D25*%
X119062500Y-51468750D03*
X119062500Y-54768750D03*
%TD*%
%TO.C,D24*%
X109537500Y-32418750D03*
X109537500Y-35718750D03*
%TD*%
%TO.C,D23*%
X104775000Y-103856250D03*
X104775000Y-107156250D03*
%TD*%
%TO.C,D22*%
X95250000Y-87187500D03*
X95250000Y-90487500D03*
%TD*%
%TO.C,D21*%
X104775000Y-68137500D03*
X104775000Y-71437500D03*
%TD*%
%TO.C,D20*%
X100012500Y-49087500D03*
X100012500Y-52387500D03*
%TD*%
%TO.C,D19*%
X90487500Y-30037500D03*
X90487500Y-33337500D03*
%TD*%
%TO.C,D18*%
X66675000Y-91950000D03*
X66675000Y-95250000D03*
%TD*%
%TO.C,D17*%
X85725000Y-70518750D03*
X85725000Y-73818750D03*
%TD*%
%TO.C,D16*%
X80962500Y-51468750D03*
X80962500Y-54768750D03*
%TD*%
%TO.C,D15*%
X71437500Y-32418750D03*
X71437500Y-35718750D03*
%TD*%
%TO.C,D14*%
X64293750Y-103856250D03*
X64293750Y-107156250D03*
%TD*%
%TO.C,D13*%
X57150000Y-87187500D03*
X57150000Y-90487500D03*
%TD*%
%TO.C,D12*%
X66675000Y-68137500D03*
X66675000Y-71437500D03*
%TD*%
%TO.C,D11*%
X61912500Y-49087500D03*
X61912500Y-52387500D03*
%TD*%
%TO.C,D10*%
X52387500Y-30037500D03*
X52387500Y-33337500D03*
%TD*%
%TO.C,D9*%
X38100000Y-98550000D03*
X38100000Y-95250000D03*
%TD*%
%TO.C,D8*%
X47625000Y-70518750D03*
X47625000Y-73818750D03*
%TD*%
%TO.C,D7*%
X42862500Y-51468750D03*
X42862500Y-54768750D03*
%TD*%
D11*
%TO.C,D6*%
X30662500Y-23812500D03*
X33962500Y-23812500D03*
%TD*%
D10*
%TO.C,D5*%
X16668750Y-103856250D03*
X16668750Y-107156250D03*
%TD*%
%TO.C,D4*%
X33337500Y-84806250D03*
X33337500Y-88106250D03*
%TD*%
%TO.C,D3*%
X19050000Y-60993750D03*
X19050000Y-64293750D03*
%TD*%
%TO.C,D2*%
X16337500Y-41943750D03*
X16337500Y-45243750D03*
%TD*%
D11*
%TO.C,D1*%
X9231250Y-26193750D03*
X12531250Y-26193750D03*
%TD*%
M02*
