<?xml version="1.0" encoding="UTF-8" standalone="no"?>
<svg
   xmlns:dc="http://purl.org/dc/elements/1.1/"
   xmlns:cc="http://creativecommons.org/ns#"
   xmlns:rdf="http://www.w3.org/1999/02/22-rdf-syntax-ns#"
   xmlns:svg="http://www.w3.org/2000/svg"
   xmlns="http://www.w3.org/2000/svg"
   xmlns:sodipodi="http://sodipodi.sourceforge.net/DTD/sodipodi-0.dtd"
   xmlns:inkscape="http://www.inkscape.org/namespaces/inkscape"
   width="306mm"
   height="104.99999999999997mm"
   viewBox="-147 -56.999999999999986 306 104.99999999999997"
   version="1.1"
   id="svg839"
   sodipodi:docname="1.5mm Plate for laser cutting.svg"
   inkscape:version="1.0.2 (e86c8708, 2021-01-15)">
  <metadata
     id="metadata845">
    <rdf:RDF>
      <cc:Work
         rdf:about="">
        <dc:format>image/svg+xml</dc:format>
        <dc:type
           rdf:resource="http://purl.org/dc/dcmitype/StillImage" />
        <dc:title>svgOutput</dc:title>
      </cc:Work>
    </rdf:RDF>
  </metadata>
  <defs
     id="defs843" />
  <sodipodi:namedview
     pagecolor="#ffffff"
     bordercolor="#666666"
     borderopacity="1"
     objecttolerance="10"
     gridtolerance="10"
     guidetolerance="10"
     inkscape:pageopacity="0"
     inkscape:pageshadow="2"
     inkscape:window-width="2560"
     inkscape:window-height="1302"
     id="namedview841"
     showgrid="false"
     inkscape:document-units="mm"
     inkscape:zoom="0.81683158"
     inkscape:cx="657.30604"
     inkscape:cy="301.1326"
     inkscape:window-x="0"
     inkscape:window-y="25"
     inkscape:window-maximized="1"
     inkscape:current-layer="svg839" />
  <title
     id="title833">svgOutput</title>
  <desc
     id="desc835">made with tinkercad</desc>
  <path
     d="M 157.90699768066406 -50.61700057983397 L 158 -50.02863311767577 L 158 -49.997001647949205 L 158 40.998001098632805 L 158 41.02963256835937 L 157.90699768066406 41.61800003051757 L 157.6219940185547 42.17800140380859 L 157.177001953125 42.62200164794921 L 156.6179962158203 42.90700149536132 L 156.0355682373047 42.99999999999999 L 155.9980010986328 42.99999999999999 L 151 42.99999999999999 L 151 44.998001098632805 L 151 45.02963256835937 L 150.99583435058594 45.05599975585937 L 150.90699768066406 45.61800003051757 L 150.6219940185547 46.17800140380859 L 150.177001953125 46.62200164794921 L 149.6179962158203 46.90700149536132 L 149.0355682373047 46.99999999999999 L 148.9980010986328 46.99999999999999 L 145.0030059814453 46.99999999999999 L 144.96536254882812 46.99999999999999 L 144.3820037841797 46.90700149536132 L 143.822998046875 46.62200164794921 L 143.3780059814453 46.17800140380859 L 143.09300231933594 45.61800003051757 L 143.00416564941406 45.05599975585937 L 143 45.02963256835937 L 143 44.998001098632805 L 143 42.99999999999999 L 141.8769989013672 42.99999999999999 L 136.82699584960938 42.99999999999999 L 136.40199279785156 42.99999999999999 L 135.57699584960938 42.99999999999999 L 134.02099609375 42.99999999999999 L 133.8520050048828 42.99999999999999 L 133.1959991455078 42.99999999999999 L 132.06399536132812 42.99999999999999 L 131.4709930419922 42.99999999999999 L 130.552001953125 42.99999999999999 L 128.82699584960938 42.99999999999999 L 128.17100524902344 42.99999999999999 L 127.302001953125 42.99999999999999 L 126.44599914550781 42.99999999999999 L 124.9209976196289 42.99999999999999 L 122.8270034790039 42.99999999999999 L 118.06500244140625 42.99999999999999 L 117.7770004272461 42.99999999999999 L 113.302001953125 42.99999999999999 L 111.7770004272461 42.99999999999999 L 111 42.99999999999999 L 111 44.998001098632805 L 111 45.02963256835937 L 110.99583435058594 45.05599975585937 L 110.90699768066406 45.61800003051757 L 110.62200164794922 46.17800140380859 L 110.177001953125 46.62200164794921 L 109.61799621582031 46.90700149536132 L 109.03557586669922 46.99999999999999 L 108.99800109863281 46.99999999999999 L 33.00299835205078 46.99999999999999 L 32.965362548828125 46.99999999999999 L 32.38199996948242 46.90700149536132 L 31.822999954223633 46.62200164794921 L 31.378000259399414 46.17800140380859 L 31.093000411987305 45.61800003051757 L 31.004167556762695 45.05599975585937 L 31 45.02963256835937 L 31 44.998001098632805 L 31 42.99999999999999 L 27.575000762939453 42.99999999999999 L 26.437999725341797 42.99999999999999 L 22.524999618530273 42.99999999999999 L 18.049999237060547 42.99999999999999 L 17.76300048828125 42.99999999999999 L 13 42.99999999999999 L 8.524999618530273 42.99999999999999 L 3.76200008392334 42.99999999999999 L 3.4749999046325684 42.99999999999999 L -1 42.99999999999999 L -4.913000106811523 42.99999999999999 L -6.050000190734863 42.99999999999999 L -10.524999618530273 42.99999999999999 L -11.663000106811523 42.99999999999999 L -12.48799991607666 42.99999999999999 L -15.288000106811523 42.99999999999999 L -15.574999809265137 42.99999999999999 L -19 42.99999999999999 L -19 44.998001098632805 L -19 45.02963256835937 L -19.004167556762695 45.05599975585937 L -19.093000411987305 45.61800003051757 L -19.378000259399414 46.17800140380859 L -19.822999954223633 46.62200164794921 L -20.381999969482422 46.90700149536132 L -20.965364456176758 46.99999999999999 L -21.003000259399414 46.99999999999999 L -96.99800109863281 46.99999999999999 L -97.02963256835938 46.99999999999999 L -97.61799621582031 46.90700149536132 L -98.177001953125 46.62200164794921 L -98.62200164794922 46.17699813842773 L -98.90699768066406 45.61800003051757 L -98.99583435058594 45.05599975585937 L -99 45.02963256835937 L -99 44.998001098632805 L -99 42.99999999999999 L -101.01399993896484 42.99999999999999 L -101.302001953125 42.99999999999999 L -103.68299865722656 42.99999999999999 L -105.7770004272461 42.99999999999999 L -108.87100219726562 42.99999999999999 L -109.69599914550781 42.99999999999999 L -110.8270034790039 42.99999999999999 L -111.4209976196289 42.99999999999999 L -114.72100067138672 42.99999999999999 L -115.302001953125 42.99999999999999 L -116.44599914550781 42.99999999999999 L -117.68399810791016 42.99999999999999 L -117.97100067138672 42.99999999999999 L -124.8270034790039 42.99999999999999 L -125.11499786376953 42.99999999999999 L -127.49600219726562 42.99999999999999 L -129.8769989013672 42.99999999999999 L -131 42.99999999999999 L -131 44.998001098632805 L -131 45.02963256835937 L -131.00416564941406 45.05599975585937 L -131.09300231933594 45.61800003051757 L -131.3780059814453 46.17800140380859 L -131.822998046875 46.62200164794921 L -132.3820037841797 46.90700149536132 L -132.96536254882812 46.99999999999999 L -133.0030059814453 46.99999999999999 L -136.9980010986328 46.99999999999999 L -137.0355682373047 46.99999999999999 L -137.6179962158203 46.90700149536132 L -138.177001953125 46.62200164794921 L -138.6219940185547 46.17800140380859 L -138.90699768066406 45.61800003051757 L -138.99583435058594 45.05599975585937 L -139 45.02963256835937 L -139 44.998001098632805 L -139 42.99999999999999 L -143.9980010986328 42.99999999999999 L -144.0355682373047 42.99999999999999 L -144.6179962158203 42.90700149536132 L -145.177001953125 42.62200164794921 L -145.6219940185547 42.17800140380859 L -145.90699768066406 41.61800003051757 L -146 41.02963256835937 L -146 40.998001098632805 L -146 -49.997001647949205 L -146 -50.00968551635741 L -145.90699768066406 -50.598999023437486 L -145.6219940185547 -51.15800094604491 L -145.177001953125 -51.60200119018553 L -144.6179962158203 -51.88700103759764 L -144.01678466796875 -51.98300170898436 L -146 -51.98300170898436 L -146 -51.999999999999986 L -143.9980010986328 -51.999999999999986 L -139 -51.999999999999986 L -139 -53.997001647949205 L -139 -53.9980010986328 L -139 -54.02963256835936 L -138.90699768066406 -54.618000030517564 L -138.6219940185547 -55.17699813842772 L -138.177001953125 -55.622001647949205 L -137.6179962158203 -55.907001495361314 L -137.02963256835938 -55.999999999999986 L -136.9980010986328 -55.999999999999986 L -133.0030059814453 -55.999999999999986 L -132.9716339111328 -55.999999999999986 L -132.3820037841797 -55.905998229980455 L -131.822998046875 -55.620998382568345 L -131.3780059814453 -55.17699813842772 L -131.09300231933594 -54.61700057983397 L -131 -54.02863311767577 L -131 -53.997001647949205 L -131 -51.999999999999986 L -129.8769989013672 -51.999999999999986 L -125.11499786376953 -51.999999999999986 L -124.8270034790039 -51.999999999999986 L -110.8270034790039 -51.999999999999986 L -105.7770004272461 -51.999999999999986 L -99 -51.999999999999986 L -99 -53.997001647949205 L -99 -54.02863311767577 L -98.90699768066406 -54.61700057983397 L -98.62200164794922 -55.17699813842772 L -98.177001953125 -55.620998382568345 L -97.61799621582031 -55.905998229980455 L -97.02931213378906 -55.999999999999986 L -96.99800109863281 -55.999999999999986 L -21.003000259399414 -55.999999999999986 L -20.971635818481445 -55.999999999999986 L -20.381999969482422 -55.905998229980455 L -19.822999954223633 -55.620998382568345 L -19.378000259399414 -55.17699813842772 L -19.093000411987305 -54.61700057983397 L -19 -54.02863311767577 L -19 -53.997001647949205 L -19 -51.999999999999986 L -15.574999809265137 -51.999999999999986 L -10.524999618530273 -51.999999999999986 L 3.4749999046325684 -51.999999999999986 L 8.524999618530273 -51.999999999999986 L 22.524999618530273 -51.999999999999986 L 27.575000762939453 -51.999999999999986 L 31 -51.999999999999986 L 31 -53.997001647949205 L 31 -54.02863311767577 L 31.093000411987305 -54.61700057983397 L 31.378000259399414 -55.17699813842772 L 31.822999954223633 -55.620998382568345 L 32.38199996948242 -55.905998229980455 L 32.97163772583008 -55.999999999999986 L 33.00299835205078 -55.999999999999986 L 108.99800109863281 -55.999999999999986 L 109.02931213378906 -55.999999999999986 L 109.61799621582031 -55.905998229980455 L 110.177001953125 -55.620998382568345 L 110.62200164794922 -55.17699813842772 L 110.90699768066406 -54.61700057983397 L 111 -54.02863311767577 L 111 -53.997001647949205 L 111 -51.999999999999986 L 111.7770004272461 -51.999999999999986 L 113.302001953125 -51.999999999999986 L 127.302001953125 -51.999999999999986 L 128.82699584960938 -51.999999999999986 L 135.57699584960938 -51.999999999999986 L 136.40199279785156 -51.999999999999986 L 136.82699584960938 -51.999999999999986 L 141.8769989013672 -51.999999999999986 L 143 -51.999999999999986 L 143 -53.997001647949205 L 143 -54.02863311767577 L 143.09300231933594 -54.61700057983397 L 143.3780059814453 -55.17699813842772 L 143.822998046875 -55.620998382568345 L 144.3820037841797 -55.905998229980455 L 144.9716339111328 -55.999999999999986 L 145.0030059814453 -55.999999999999986 L 148.9980010986328 -55.999999999999986 L 149.02931213378906 -55.999999999999986 L 149.6179962158203 -55.905998229980455 L 150.177001953125 -55.620998382568345 L 150.6219940185547 -55.17699813842772 L 150.90699768066406 -54.61700057983397 L 151 -54.02863311767577 L 151 -53.997001647949205 L 151 -51.999999999999986 L 155.9980010986328 -51.999999999999986 L 156.02931213378906 -51.999999999999986 L 156.6179962158203 -51.905998229980455 L 157.177001953125 -51.620998382568345 L 157.6219940185547 -51.17699813842772 L 157.90699768066406 -50.61700057983397 M 128.82699584960938 -44.90200042724609 L 127.302001953125 -44.90200042724609 L 127.302001953125 -49.60200119018553 L 113.302001953125 -49.60200119018553 L 113.302001953125 -44.90200042724609 L 111.7770004272461 -44.90200042724609 L 111.7770004272461 -48.13199996948241 L 111 -48.13199996948241 L 105.0270004272461 -48.13199996948241 L 105.0270004272461 -44.90200042724609 L 104.2020034790039 -44.90200042724609 L 104.2020034790039 -42.11700057983398 L 105.0270004272461 -42.11700057983398 L 105.0270004272461 -35.83200073242187 L 106.75199890136719 -35.83200073242187 L 106.75199890136719 -34.631999969482415 L 108.25199890136719 -34.631999969482415 L 109.3949966430664 -34.631999969482415 L 110.052001953125 -34.631999969482415 L 110.052001953125 -35.83200073242187 L 110.9209976196289 -35.83200073242187 L 111 -35.83200073242187 L 111.7770004272461 -35.83200073242187 L 111.7770004272461 -40.30199813842773 L 113.302001953125 -40.30199813842773 L 113.302001953125 -35.60200119018554 L 118.06500244140625 -35.60200119018554 L 127.302001953125 -35.60200119018554 L 127.302001953125 -40.30199813842773 L 128.82699584960938 -40.30199813842773 L 128.82699584960938 -35.83200073242187 L 130.552001953125 -35.83200073242187 L 130.552001953125 -34.631999969482415 L 132.06399536132812 -34.631999969482415 L 133.1959991455078 -34.631999969482415 L 133.8520050048828 -34.631999969482415 L 133.8520050048828 -35.83200073242187 L 134.02099609375 -35.83200073242187 L 135.57699584960938 -35.83200073242187 L 135.57699584960938 -42.11700057983398 L 136.40199279785156 -42.11700057983398 L 136.40199279785156 -44.90200042724609 L 135.57699584960938 -44.90200042724609 L 135.57699584960938 -48.13199996948241 L 128.82699584960938 -48.13199996948241 L 128.82699584960938 -44.90200042724609 M 126.44599914550781 -6.8000001907348615 L 124.9209976196289 -6.8000001907348615 L 124.9209976196289 -11.499999999999998 L 118.06500244140625 -11.499999999999998 L 113.302001953125 -11.499999999999998 L 111.7770004272461 -11.499999999999998 L 111 -11.499999999999998 L 110.9209976196289 -11.499999999999998 L 110.9209976196289 -6.8000001907348615 L 110.052001953125 -6.8000001907348615 L 109.3949966430664 -6.8000001907348615 L 109.3949966430664 -10.02999973297119 L 108.25199890136719 -10.02999973297119 L 106.75199890136719 -10.02999973297119 L 105.0270004272461 -10.02999973297119 L 104.2020034790039 -10.02999973297119 L 102.6449966430664 -10.02999973297119 L 102.6449966430664 -6.8000001907348615 L 101.81999969482422 -6.8000001907348615 L 101.81999969482422 -4.014999866485595 L 102.6449966430664 -4.014999866485595 L 102.6449966430664 2.2699999809265132 L 104.2020034790039 2.2699999809265132 L 104.37000274658203 2.2699999809265132 L 104.37000274658203 3.4700000286102286 L 105.0270004272461 3.4700000286102286 L 106.75199890136719 3.4700000286102286 L 107.66999816894531 3.4700000286102286 L 107.66999816894531 2.2699999809265132 L 108.25199890136719 2.2699999809265132 L 109.3949966430664 2.2699999809265132 L 109.3949966430664 -2.2000000476837154 L 110.052001953125 -2.2000000476837154 L 110.63300323486328 -2.2000000476837154 L 110.9209976196289 -2.2000000476837154 L 110.9209976196289 2.4999999999999996 L 111 2.4999999999999996 L 111.7770004272461 2.4999999999999996 L 113.302001953125 2.4999999999999996 L 117.7770004272461 2.4999999999999996 L 118.06500244140625 2.4999999999999996 L 122.8270034790039 2.4999999999999996 L 124.9209976196289 2.4999999999999996 L 124.9209976196289 -2.2000000476837154 L 126.44599914550781 -2.2000000476837154 L 126.44599914550781 2.2699999809265132 L 127.302001953125 2.2699999809265132 L 128.17100524902344 2.2699999809265132 L 128.17100524902344 3.4700000286102286 L 128.82699584960938 3.4700000286102286 L 130.552001953125 3.4700000286102286 L 131.4709930419922 3.4700000286102286 L 131.4709930419922 2.2699999809265132 L 132.06399536132812 2.2699999809265132 L 133.1959991455078 2.2699999809265132 L 133.1959991455078 -4.014999866485595 L 133.8520050048828 -4.014999866485595 L 134.02099609375 -4.014999866485595 L 134.02099609375 -6.8000001907348615 L 133.8520050048828 -6.8000001907348615 L 133.1959991455078 -6.8000001907348615 L 133.1959991455078 -10.02999973297119 L 132.06399536132812 -10.02999973297119 L 130.552001953125 -10.02999973297119 L 128.82699584960938 -10.02999973297119 L 127.302001953125 -10.02999973297119 L 126.44599914550781 -10.02999973297119 L 126.44599914550781 -6.8000001907348615 M -9.937999725341797 26.832000732421868 L -10.524999618530273 26.832000732421868 L -10.812999725341797 26.832000732421868 L -11.663000106811523 26.832000732421868 L -11.663000106811523 33.11700057983398 L -12.48799991607666 33.11700057983398 L -12.48799991607666 35.90200042724609 L -11.663000106811523 35.90200042724609 L -11.663000106811523 39.131999969482415 L -10.524999618530273 39.131999969482415 L -6.050000190734863 39.131999969482415 L -4.913000106811523 39.131999969482415 L -4.913000106811523 35.90200042724609 L -1 35.90200042724609 L 3.4749999046325684 35.90200042724609 L 3.76200008392334 35.90200042724609 L 3.76200008392334 40.60300064086913 L 8.524999618530273 40.60300064086913 L 13 40.60300064086913 L 17.76300048828125 40.60300064086913 L 17.76300048828125 35.90200042724609 L 18.049999237060547 35.90200042724609 L 22.524999618530273 35.90200042724609 L 26.437999725341797 35.90200042724609 L 26.437999725341797 39.131999969482415 L 27.575000762939453 39.131999969482415 L 31 39.131999969482415 L 32.04999923706055 39.131999969482415 L 33.1879997253418 39.131999969482415 L 33.1879997253418 35.90200042724609 L 34.01300048828125 35.90200042724609 L 34.01300048828125 33.11700057983398 L 33.1879997253418 33.11700057983398 L 33.1879997253418 26.832000732421868 L 32.3380012512207 26.832000732421868 L 32.04999923706055 26.832000732421868 L 31.46299934387207 26.832000732421868 L 31.46299934387207 25.631999969482415 L 31 25.631999969482415 L 28.163000106811523 25.631999969482415 L 28.163000106811523 26.832000732421868 L 27.575000762939453 26.832000732421868 L 27.288000106811523 26.832000732421868 L 26.437999725341797 26.832000732421868 L 26.437999725341797 31.30200004577636 L 22.812999725341797 31.30200004577636 L 22.524999618530273 31.30200004577636 L 18.049999237060547 31.30200004577636 L 17.76300048828125 31.30200004577636 L 17.76300048828125 26.601999282836907 L 13.288000106811523 26.601999282836907 L 13 26.601999282836907 L 8.524999618530273 26.601999282836907 L 8.23799991607666 26.601999282836907 L 3.76200008392334 26.601999282836907 L 3.76200008392334 31.30200004577636 L 3.4749999046325684 31.30200004577636 L -1 31.30200004577636 L -1.2879999876022339 31.30200004577636 L -4.913000106811523 31.30200004577636 L -4.913000106811523 26.832000732421868 L -5.763000011444092 26.832000732421868 L -6.050000190734863 26.832000732421868 L -6.638000011444092 26.832000732421868 L -6.638000011444092 25.631999969482415 L -9.937999725341797 25.631999969482415 L -9.937999725341797 26.832000732421868 M -116.44599914550781 12.251000404357907 L -117.97100067138672 12.251000404357907 L -117.97100067138672 7.5510001182556135 L -122.73300170898438 7.5510001182556135 L -124.8270034790039 7.5510001182556135 L -125.11499786376953 7.5510001182556135 L -129.8769989013672 7.5510001182556135 L -131 7.5510001182556135 L -131.9709930419922 7.5510001182556135 L -131.9709930419922 12.251000404357907 L -133.49600219726562 12.251000404357907 L -133.49600219726562 9.020999908447264 L -136.73300170898438 9.020999908447264 L -139 9.020999908447264 L -139.11500549316406 9.020999908447264 L -140.24600219726562 9.020999908447264 L -140.24600219726562 12.251000404357907 L -141.0709991455078 12.251000404357907 L -141.0709991455078 15.036000251770016 L -140.24600219726562 15.036000251770016 L -140.24600219726562 21.32099914550781 L -139.11500549316406 21.32099914550781 L -139 21.32099914550781 L -138.52099609375 21.32099914550781 L -138.52099609375 22.521999359130856 L -135.2209930419922 22.521999359130856 L -135.2209930419922 21.32099914550781 L -133.49600219726562 21.32099914550781 L -133.49600219726562 16.850999832153317 L -131.9709930419922 16.850999832153317 L -131.9709930419922 21.55100059509277 L -131 21.55100059509277 L -129.8769989013672 21.55100059509277 L -127.49600219726562 21.55100059509277 L -125.11499786376953 21.55100059509277 L -124.8270034790039 21.55100059509277 L -117.97100067138672 21.55100059509277 L -117.97100067138672 16.850999832153317 L -117.68399810791016 16.850999832153317 L -116.44599914550781 16.850999832153317 L -116.44599914550781 21.32099914550781 L -115.302001953125 21.32099914550781 L -114.72100067138672 21.32099914550781 L -114.72100067138672 22.521999359130856 L -111.4209976196289 22.521999359130856 L -111.4209976196289 21.32099914550781 L -110.8270034790039 21.32099914550781 L -109.69599914550781 21.32099914550781 L -109.69599914550781 15.036000251770016 L -108.87100219726562 15.036000251770016 L -108.87100219726562 12.251000404357907 L -109.69599914550781 12.251000404357907 L -109.69599914550781 9.020999908447264 L -110.53900146484375 9.020999908447264 L -110.8270034790039 9.020999908447264 L -115.302001953125 9.020999908447264 L -116.44599914550781 9.020999908447264 L -116.44599914550781 12.251000404357907 M -67.08899688720703 26.832000732421868 L -67.6760025024414 26.832000732421868 L -67.96399688720703 26.832000732421868 L -68.81400299072266 26.832000732421868 L -68.81400299072266 33.11700057983398 L -69.63899993896484 33.11700057983398 L -69.63899993896484 35.90200042724609 L -68.81400299072266 35.90200042724609 L -68.81400299072266 39.131999969482415 L -67.6760025024414 39.131999969482415 L -63.20100021362305 39.131999969482415 L -62.06399917602539 39.131999969482415 L -62.06399917602539 35.90200042724609 L -58.1510009765625 35.90200042724609 L -53.67599868774414 35.90200042724609 L -53.38800048828125 35.90200042724609 L -53.38800048828125 40.60300064086913 L -48.625999450683594 40.60300064086913 L -44.1510009765625 40.60300064086913 L -39.38800048828125 40.60300064086913 L -39.38800048828125 35.90200042724609 L -39.10100173950195 35.90200042724609 L -34.625999450683594 35.90200042724609 L -30.71299934387207 35.90200042724609 L -30.71299934387207 39.131999969482415 L -29.576000213623047 39.131999969482415 L -25.10099983215332 39.131999969482415 L -23.96299934387207 39.131999969482415 L -23.96299934387207 35.90200042724609 L -23.13800048828125 35.90200042724609 L -23.13800048828125 33.11700057983398 L -23.96299934387207 33.11700057983398 L -23.96299934387207 26.832000732421868 L -24.812999725341797 26.832000732421868 L -25.10099983215332 26.832000732421868 L -25.687999725341797 26.832000732421868 L -25.687999725341797 25.631999969482415 L -28.988000869750977 25.631999969482415 L -28.988000869750977 26.832000732421868 L -29.576000213623047 26.832000732421868 L -29.863000869750977 26.832000732421868 L -30.71299934387207 26.832000732421868 L -30.71299934387207 31.30200004577636 L -34.3380012512207 31.30200004577636 L -34.625999450683594 31.30200004577636 L -39.10100173950195 31.30200004577636 L -39.38800048828125 31.30200004577636 L -39.38800048828125 26.601999282836907 L -43.862998962402344 26.601999282836907 L -44.1510009765625 26.601999282836907 L -48.625999450683594 26.601999282836907 L -48.91299819946289 26.601999282836907 L -53.38800048828125 26.601999282836907 L -53.38800048828125 31.30200004577636 L -53.67599868774414 31.30200004577636 L -58.1510009765625 31.30200004577636 L -58.43899917602539 31.30200004577636 L -62.06399917602539 31.30200004577636 L -62.06399917602539 26.832000732421868 L -62.91400146484375 26.832000732421868 L -63.20100021362305 26.832000732421868 L -63.78900146484375 26.832000732421868 L -63.78900146484375 25.631999969482415 L -67.08899688720703 25.631999969482415 L -67.08899688720703 26.832000732421868 M 141.8769989013672 40.60300064086913 L 143 40.60300064086913 L 151 40.60300064086913 L 155.8780059814453 40.60300064086913 L 155.8780059814453 26.601999282836907 L 151 26.601999282836907 L 143 26.601999282836907 L 141.8769989013672 26.601999282836907 L 141.8769989013672 40.60300064086913 M -9.937999725341797 -11.499999999999998 L -10.524999618530273 -11.499999999999998 L -11.663000106811523 -11.499999999999998 L -12.48799991607666 -11.499999999999998 L -15.288000106811523 -11.499999999999998 L -15.288000106811523 2.4999999999999996 L -12.48799991607666 2.4999999999999996 L -11.663000106811523 2.4999999999999996 L -10.812999725341797 2.4999999999999996 L -10.524999618530273 2.4999999999999996 L -9.937999725341797 2.4999999999999996 L -6.638000011444092 2.4999999999999996 L -6.050000190734863 2.4999999999999996 L -5.763000011444092 2.4999999999999996 L -4.913000106811523 2.4999999999999996 L -1.2879999876022339 2.4999999999999996 L -1.2879999876022339 -11.499999999999998 L -4.913000106811523 -11.499999999999998 L -6.050000190734863 -11.499999999999998 L -6.638000011444092 -11.499999999999998 L -9.937999725341797 -11.499999999999998 M -6.050000190734863 -16.55100059509277 L -6.050000190734863 -30.551000595092766 L -10.524999618530273 -30.551000595092766 L -15.574999809265137 -30.551000595092766 L -19 -30.551000595092766 L -20.049999237060547 -30.551000595092766 L -20.049999237060547 -16.55100059509277 L -19 -16.55100059509277 L -15.574999809265137 -16.55100059509277 L -15.288000106811523 -16.55100059509277 L -12.48799991607666 -16.55100059509277 L -11.663000106811523 -16.55100059509277 L -10.524999618530273 -16.55100059509277 L -9.937999725341797 -16.55100059509277 L -6.638000011444092 -16.55100059509277 L -6.050000190734863 -16.55100059509277 M -1 -35.60200119018554 L 3.4749999046325684 -35.60200119018554 L 3.4749999046325684 -49.60200119018553 L -10.524999618530273 -49.60200119018553 L -10.524999618530273 -35.60200119018554 L -6.050000190734863 -35.60200119018554 L -4.913000106811523 -35.60200119018554 L -1.2879999876022339 -35.60200119018554 L -1 -35.60200119018554 M -10.812999725341797 7.5510001182556135 L -11.663000106811523 7.5510001182556135 L -12.48799991607666 7.5510001182556135 L -15.288000106811523 7.5510001182556135 L -15.574999809265137 7.5510001182556135 L -19 7.5510001182556135 L -20.049999237060547 7.5510001182556135 L -20.33799934387207 7.5510001182556135 L -23.13800048828125 7.5510001182556135 L -23.96299934387207 7.5510001182556135 L -24.812999725341797 7.5510001182556135 L -24.812999725341797 21.55100059509277 L -23.96299934387207 21.55100059509277 L -23.13800048828125 21.55100059509277 L -20.33799934387207 21.55100059509277 L -20.049999237060547 21.55100059509277 L -19 21.55100059509277 L -15.574999809265137 21.55100059509277 L -15.288000106811523 21.55100059509277 L -12.48799991607666 21.55100059509277 L -11.663000106811523 21.55100059509277 L -10.812999725341797 21.55100059509277 L -10.812999725341797 7.5510001182556135 M 8.524999618530273 2.4999999999999996 L 13 2.4999999999999996 L 13.288000106811523 2.4999999999999996 L 17.76300048828125 2.4999999999999996 L 17.76300048828125 -11.499999999999998 L 13 -11.499999999999998 L 8.524999618530273 -11.499999999999998 L 3.76200008392334 -11.499999999999998 L 3.76200008392334 2.4999999999999996 L 8.23799991607666 2.4999999999999996 L 8.524999618530273 2.4999999999999996 M 8.23799991607666 7.5510001182556135 L 3.76200008392334 7.5510001182556135 L 3.4749999046325684 7.5510001182556135 L -1 7.5510001182556135 L -1.2879999876022339 7.5510001182556135 L -4.913000106811523 7.5510001182556135 L -5.763000011444092 7.5510001182556135 L -5.763000011444092 21.55100059509277 L -4.913000106811523 21.55100059509277 L -1.2879999876022339 21.55100059509277 L -1 21.55100059509277 L 3.4749999046325684 21.55100059509277 L 3.76200008392334 21.55100059509277 L 8.23799991607666 21.55100059509277 L 8.23799991607666 7.5510001182556135 M 26.437999725341797 -16.55100059509277 L 27.575000762939453 -16.55100059509277 L 28.163000106811523 -16.55100059509277 L 31 -16.55100059509277 L 31.46299934387207 -16.55100059509277 L 32.04999923706055 -16.55100059509277 L 32.04999923706055 -30.551000595092766 L 31 -30.551000595092766 L 27.575000762939453 -30.551000595092766 L 22.524999618530273 -30.551000595092766 L 18.049999237060547 -30.551000595092766 L 18.049999237060547 -16.55100059509277 L 22.524999618530273 -16.55100059509277 L 22.812999725341797 -16.55100059509277 L 26.437999725341797 -16.55100059509277 M 27.288000106811523 7.5510001182556135 L 26.437999725341797 7.5510001182556135 L 22.812999725341797 7.5510001182556135 L 22.524999618530273 7.5510001182556135 L 18.049999237060547 7.5510001182556135 L 17.76300048828125 7.5510001182556135 L 13.288000106811523 7.5510001182556135 L 13.288000106811523 21.55100059509277 L 17.76300048828125 21.55100059509277 L 18.049999237060547 21.55100059509277 L 22.524999618530273 21.55100059509277 L 22.812999725341797 21.55100059509277 L 26.437999725341797 21.55100059509277 L 27.288000106811523 21.55100059509277 L 27.288000106811523 7.5510001182556135 M 31.46299934387207 -11.499999999999998 L 31 -11.499999999999998 L 28.163000106811523 -11.499999999999998 L 27.575000762939453 -11.499999999999998 L 26.437999725341797 -11.499999999999998 L 22.812999725341797 -11.499999999999998 L 22.812999725341797 2.4999999999999996 L 26.437999725341797 2.4999999999999996 L 27.288000106811523 2.4999999999999996 L 27.575000762939453 2.4999999999999996 L 28.163000106811523 2.4999999999999996 L 31 2.4999999999999996 L 31.46299934387207 2.4999999999999996 L 32.04999923706055 2.4999999999999996 L 32.3380012512207 2.4999999999999996 L 33.1879997253418 2.4999999999999996 L 34.01300048828125 2.4999999999999996 L 36.8129997253418 2.4999999999999996 L 36.8129997253418 -11.499999999999998 L 34.01300048828125 -11.499999999999998 L 33.1879997253418 -11.499999999999998 L 32.04999923706055 -11.499999999999998 L 31.46299934387207 -11.499999999999998 M 46.625999450683594 2.4999999999999996 L 51.10100173950195 2.4999999999999996 L 51.38800048828125 2.4999999999999996 L 55.862998962402344 2.4999999999999996 L 55.862998962402344 -11.499999999999998 L 51.10100173950195 -11.499999999999998 L 46.625999450683594 -11.499999999999998 L 44.24399948120117 -11.499999999999998 L 41.862998962402344 -11.499999999999998 L 41.862998962402344 2.4999999999999996 L 44.24399948120117 2.4999999999999996 L 46.3380012512207 2.4999999999999996 L 46.625999450683594 2.4999999999999996 M 56.1510009765625 -35.60200119018554 L 60.625999450683594 -35.60200119018554 L 60.625999450683594 -49.60200119018553 L 46.625999450683594 -49.60200119018553 L 46.625999450683594 -35.60200119018554 L 51.10100173950195 -35.60200119018554 L 55.862998962402344 -35.60200119018554 L 56.1510009765625 -35.60200119018554 M 46.3380012512207 7.5510001182556135 L 44.24399948120117 7.5510001182556135 L 41.862998962402344 7.5510001182556135 L 41.57600021362305 7.5510001182556135 L 37.10100173950195 7.5510001182556135 L 36.8129997253418 7.5510001182556135 L 34.01300048828125 7.5510001182556135 L 33.1879997253418 7.5510001182556135 L 32.3380012512207 7.5510001182556135 L 32.3380012512207 21.55100059509277 L 33.1879997253418 21.55100059509277 L 34.01300048828125 21.55100059509277 L 36.8129997253418 21.55100059509277 L 37.10100173950195 21.55100059509277 L 41.57600021362305 21.55100059509277 L 41.862998962402344 21.55100059509277 L 44.24399948120117 21.55100059509277 L 46.3380012512207 21.55100059509277 L 46.3380012512207 7.5510001182556135 M 110.9209976196289 40.60300064086913 L 111 40.60300064086913 L 111.7770004272461 40.60300064086913 L 113.302001953125 40.60300064086913 L 117.7770004272461 40.60300064086913 L 117.7770004272461 26.601999282836907 L 113.302001953125 26.601999282836907 L 111.7770004272461 26.601999282836907 L 111 26.601999282836907 L 110.9209976196289 26.601999282836907 L 110.63300323486328 26.601999282836907 L 110.052001953125 26.601999282836907 L 109.3949966430664 26.601999282836907 L 108.25199890136719 26.601999282836907 L 107.66999816894531 26.601999282836907 L 106.75199890136719 26.601999282836907 L 105.0270004272461 26.601999282836907 L 104.37000274658203 26.601999282836907 L 104.2020034790039 26.601999282836907 L 103.7770004272461 26.601999282836907 L 103.7770004272461 40.60300064086913 L 104.2020034790039 40.60300064086913 L 104.37000274658203 40.60300064086913 L 105.0270004272461 40.60300064086913 L 106.75199890136719 40.60300064086913 L 107.66999816894531 40.60300064086913 L 108.25199890136719 40.60300064086913 L 109.3949966430664 40.60300064086913 L 110.052001953125 40.60300064086913 L 110.63300323486328 40.60300064086913 L 110.9209976196289 40.60300064086913 M -122.73300170898438 -11.499999999999998 L -124.8270034790039 -11.499999999999998 L -125.11499786376953 -11.499999999999998 L -129.8769989013672 -11.499999999999998 L -131 -11.499999999999998 L -131.9709930419922 -11.499999999999998 L -133.49600219726562 -11.499999999999998 L -136.73300170898438 -11.499999999999998 L -136.73300170898438 2.4999999999999996 L -133.49600219726562 2.4999999999999996 L -131.9709930419922 2.4999999999999996 L -131 2.4999999999999996 L -129.8769989013672 2.4999999999999996 L -125.11499786376953 2.4999999999999996 L -124.8270034790039 2.4999999999999996 L -122.73300170898438 2.4999999999999996 L -122.73300170898438 -11.499999999999998 M -101.01399993896484 21.55100059509277 L -99 21.55100059509277 L -96.53900146484375 21.55100059509277 L -96.25199890136719 21.55100059509277 L -93.87100219726562 21.55100059509277 L -91.7770004272461 21.55100059509277 L -91.48899841308594 21.55100059509277 L -87.01399993896484 21.55100059509277 L -87.01399993896484 7.5510001182556135 L -91.48899841308594 7.5510001182556135 L -91.7770004272461 7.5510001182556135 L -93.87100219726562 7.5510001182556135 L -96.25199890136719 7.5510001182556135 L -96.53900146484375 7.5510001182556135 L -99 7.5510001182556135 L -101.01399993896484 7.5510001182556135 L -101.01399993896484 21.55100059509277 M -109.69599914550781 -16.55100059509277 L -108.87100219726562 -16.55100059509277 L -105.7770004272461 -16.55100059509277 L -103.68299865722656 -16.55100059509277 L -101.302001953125 -16.55100059509277 L -101.302001953125 -30.551000595092766 L -105.7770004272461 -30.551000595092766 L -110.8270034790039 -30.551000595092766 L -115.302001953125 -30.551000595092766 L -115.302001953125 -16.55100059509277 L -110.8270034790039 -16.55100059509277 L -110.53900146484375 -16.55100059509277 L -109.69599914550781 -16.55100059509277 M -86.72699737548828 -16.55100059509277 L -82.2509994506836 -16.55100059509277 L -82.2509994506836 -30.551000595092766 L -86.72699737548828 -30.551000595092766 L -91.7770004272461 -30.551000595092766 L -96.25199890136719 -30.551000595092766 L -96.25199890136719 -16.55100059509277 L -93.87100219726562 -16.55100059509277 L -91.7770004272461 -16.55100059509277 L -91.48899841308594 -16.55100059509277 L -86.72699737548828 -16.55100059509277 M -79.87000274658203 2.4999999999999996 L -77.48899841308594 2.4999999999999996 L -77.48899841308594 -11.499999999999998 L -79.87000274658203 -11.499999999999998 L -82.2509994506836 -11.499999999999998 L -86.72699737548828 -11.499999999999998 L -91.48899841308594 -11.499999999999998 L -91.48899841308594 2.4999999999999996 L -87.01399993896484 2.4999999999999996 L -86.72699737548828 2.4999999999999996 L -82.2509994506836 2.4999999999999996 L -81.96399688720703 2.4999999999999996 L -79.87000274658203 2.4999999999999996 M -91.48899841308594 26.601999282836907 L -91.7770004272461 26.601999282836907 L -93.87100219726562 26.601999282836907 L -93.87100219726562 40.60300064086913 L -91.7770004272461 40.60300064086913 L -86.72699737548828 40.60300064086913 L -82.2509994506836 40.60300064086913 L -79.87000274658203 40.60300064086913 L -79.87000274658203 26.601999282836907 L -81.96399688720703 26.601999282836907 L -82.2509994506836 26.601999282836907 L -86.72699737548828 26.601999282836907 L -87.01399993896484 26.601999282836907 L -91.48899841308594 26.601999282836907 M -67.08899688720703 -11.499999999999998 L -67.6760025024414 -11.499999999999998 L -68.81400299072266 -11.499999999999998 L -69.63899993896484 -11.499999999999998 L -72.43900299072266 -11.499999999999998 L -72.43900299072266 2.4999999999999996 L -69.63899993896484 2.4999999999999996 L -68.81400299072266 2.4999999999999996 L -67.96399688720703 2.4999999999999996 L -67.6760025024414 2.4999999999999996 L -67.08899688720703 2.4999999999999996 L -63.78900146484375 2.4999999999999996 L -63.20100021362305 2.4999999999999996 L -62.91400146484375 2.4999999999999996 L -62.06399917602539 2.4999999999999996 L -58.43899917602539 2.4999999999999996 L -58.43899917602539 -11.499999999999998 L -62.06399917602539 -11.499999999999998 L -63.20100021362305 -11.499999999999998 L -63.78900146484375 -11.499999999999998 L -67.08899688720703 -11.499999999999998 M -63.20100021362305 -16.55100059509277 L -63.20100021362305 -30.551000595092766 L -67.6760025024414 -30.551000595092766 L -72.72599792480469 -30.551000595092766 L -77.20099639892578 -30.551000595092766 L -77.20099639892578 -16.55100059509277 L -72.72599792480469 -16.55100059509277 L -72.43900299072266 -16.55100059509277 L -69.63899993896484 -16.55100059509277 L -68.81400299072266 -16.55100059509277 L -67.6760025024414 -16.55100059509277 L -67.08899688720703 -16.55100059509277 L -63.78900146484375 -16.55100059509277 L -63.20100021362305 -16.55100059509277 M -58.1510009765625 -35.60200119018554 L -53.67599868774414 -35.60200119018554 L -53.67599868774414 -49.60200119018553 L -67.6760025024414 -49.60200119018553 L -67.6760025024414 -35.60200119018554 L -63.20100021362305 -35.60200119018554 L -62.06399917602539 -35.60200119018554 L -58.43899917602539 -35.60200119018554 L -58.1510009765625 -35.60200119018554 M -67.96399688720703 7.5510001182556135 L -68.81400299072266 7.5510001182556135 L -69.63899993896484 7.5510001182556135 L -72.43900299072266 7.5510001182556135 L -72.72599792480469 7.5510001182556135 L -77.20099639892578 7.5510001182556135 L -77.48899841308594 7.5510001182556135 L -79.87000274658203 7.5510001182556135 L -81.96399688720703 7.5510001182556135 L -81.96399688720703 21.55100059509277 L -79.87000274658203 21.55100059509277 L -77.48899841308594 21.55100059509277 L -77.20099639892578 21.55100059509277 L -72.72599792480469 21.55100059509277 L -72.43900299072266 21.55100059509277 L -69.63899993896484 21.55100059509277 L -68.81400299072266 21.55100059509277 L -67.96399688720703 21.55100059509277 L -67.96399688720703 7.5510001182556135 M -48.625999450683594 2.4999999999999996 L -44.1510009765625 2.4999999999999996 L -43.862998962402344 2.4999999999999996 L -39.38800048828125 2.4999999999999996 L -39.38800048828125 -11.499999999999998 L -44.1510009765625 -11.499999999999998 L -48.625999450683594 -11.499999999999998 L -53.38800048828125 -11.499999999999998 L -53.38800048828125 2.4999999999999996 L -48.91299819946289 2.4999999999999996 L -48.625999450683594 2.4999999999999996 M -48.91299819946289 7.5510001182556135 L -53.38800048828125 7.5510001182556135 L -53.67599868774414 7.5510001182556135 L -58.1510009765625 7.5510001182556135 L -58.43899917602539 7.5510001182556135 L -62.06399917602539 7.5510001182556135 L -62.91400146484375 7.5510001182556135 L -62.91400146484375 21.55100059509277 L -62.06399917602539 21.55100059509277 L -58.43899917602539 21.55100059509277 L -58.1510009765625 21.55100059509277 L -53.67599868774414 21.55100059509277 L -53.38800048828125 21.55100059509277 L -48.91299819946289 21.55100059509277 L -48.91299819946289 7.5510001182556135 M -28.988000869750977 -11.499999999999998 L -29.576000213623047 -11.499999999999998 L -30.71299934387207 -11.499999999999998 L -34.3380012512207 -11.499999999999998 L -34.3380012512207 2.4999999999999996 L -30.71299934387207 2.4999999999999996 L -29.863000869750977 2.4999999999999996 L -29.576000213623047 2.4999999999999996 L -28.988000869750977 2.4999999999999996 L -25.687999725341797 2.4999999999999996 L -25.10099983215332 2.4999999999999996 L -24.812999725341797 2.4999999999999996 L -23.96299934387207 2.4999999999999996 L -23.13800048828125 2.4999999999999996 L -20.33799934387207 2.4999999999999996 L -20.33799934387207 -11.499999999999998 L -23.13800048828125 -11.499999999999998 L -23.96299934387207 -11.499999999999998 L -25.10099983215332 -11.499999999999998 L -25.687999725341797 -11.499999999999998 L -28.988000869750977 -11.499999999999998 M -25.10099983215332 -16.55100059509277 L -25.10099983215332 -30.551000595092766 L -29.576000213623047 -30.551000595092766 L -34.625999450683594 -30.551000595092766 L -39.10100173950195 -30.551000595092766 L -39.10100173950195 -16.55100059509277 L -34.625999450683594 -16.55100059509277 L -34.3380012512207 -16.55100059509277 L -30.71299934387207 -16.55100059509277 L -29.576000213623047 -16.55100059509277 L -28.988000869750977 -16.55100059509277 L -25.687999725341797 -16.55100059509277 L -25.10099983215332 -16.55100059509277 M -29.863000869750977 7.5510001182556135 L -30.71299934387207 7.5510001182556135 L -34.3380012512207 7.5510001182556135 L -34.625999450683594 7.5510001182556135 L -39.10100173950195 7.5510001182556135 L -39.38800048828125 7.5510001182556135 L -43.862998962402344 7.5510001182556135 L -43.862998962402344 21.55100059509277 L -39.38800048828125 21.55100059509277 L -39.10100173950195 21.55100059509277 L -34.625999450683594 21.55100059509277 L -34.3380012512207 21.55100059509277 L -30.71299934387207 21.55100059509277 L -29.863000869750977 21.55100059509277 L -29.863000869750977 7.5510001182556135 M -139.11500549316406 40.60300064086913 L -139 40.60300064086913 L -138.52099609375 40.60300064086913 L -135.2209930419922 40.60300064086913 L -133.49600219726562 40.60300064086913 L -131.9709930419922 40.60300064086913 L -131 40.60300064086913 L -129.8769989013672 40.60300064086913 L -127.49600219726562 40.60300064086913 L -127.49600219726562 26.601999282836907 L -129.8769989013672 26.601999282836907 L -131 26.601999282836907 L -131.9709930419922 26.601999282836907 L -133.49600219726562 26.601999282836907 L -135.2209930419922 26.601999282836907 L -138.52099609375 26.601999282836907 L -139 26.601999282836907 L -139.11500549316406 26.601999282836907 L -140.24600219726562 26.601999282836907 L -141.0709991455078 26.601999282836907 L -141.49600219726562 26.601999282836907 L -141.49600219726562 40.60300064086913 L -141.0709991455078 40.60300064086913 L -140.24600219726562 40.60300064086913 L -139.11500549316406 40.60300064086913 M -133.49600219726562 -16.55100059509277 L -131.9709930419922 -16.55100059509277 L -131 -16.55100059509277 L -129.8769989013672 -16.55100059509277 L -125.11499786376953 -16.55100059509277 L -125.11499786376953 -30.551000595092766 L -129.8769989013672 -30.551000595092766 L -131 -30.551000595092766 L -139 -30.551000595092766 L -139.11500549316406 -30.551000595092766 L -139.11500549316406 -16.55100059509277 L -139 -16.55100059509277 L -136.73300170898438 -16.55100059509277 L -133.49600219726562 -16.55100059509277 M 155.8780059814453 -49.60200119018553 L 151 -49.60200119018553 L 143 -49.60200119018553 L 141.8769989013672 -49.60200119018553 L 141.8769989013672 -35.60200119018554 L 143 -35.60200119018554 L 151 -35.60200119018554 L 155.8780059814453 -35.60200119018554 L 155.8780059814453 -49.60200119018553 M 151 -30.551000595092766 L 143 -30.551000595092766 L 141.8769989013672 -30.551000595092766 L 141.8769989013672 -16.55100059509277 L 143 -16.55100059509277 L 151 -16.55100059509277 L 155.8780059814453 -16.55100059509277 L 155.8780059814453 -30.551000595092766 L 151 -30.551000595092766 M 151 -11.499999999999998 L 143 -11.499999999999998 L 141.8769989013672 -11.499999999999998 L 141.8769989013672 2.4999999999999996 L 143 2.4999999999999996 L 151 2.4999999999999996 L 155.8780059814453 2.4999999999999996 L 155.8780059814453 -11.499999999999998 L 151 -11.499999999999998 M 151 7.5510001182556135 L 143 7.5510001182556135 L 141.8769989013672 7.5510001182556135 L 141.8769989013672 21.55100059509277 L 143 21.55100059509277 L 151 21.55100059509277 L 155.8780059814453 21.55100059509277 L 155.8780059814453 7.5510001182556135 L 151 7.5510001182556135 M 135.57699584960938 26.601999282836907 L 134.02099609375 26.601999282836907 L 133.8520050048828 26.601999282836907 L 133.1959991455078 26.601999282836907 L 132.06399536132812 26.601999282836907 L 131.4709930419922 26.601999282836907 L 130.552001953125 26.601999282836907 L 128.82699584960938 26.601999282836907 L 128.17100524902344 26.601999282836907 L 127.302001953125 26.601999282836907 L 126.44599914550781 26.601999282836907 L 124.9209976196289 26.601999282836907 L 122.8270034790039 26.601999282836907 L 122.8270034790039 40.60300064086913 L 124.9209976196289 40.60300064086913 L 126.44599914550781 40.60300064086913 L 127.302001953125 40.60300064086913 L 128.17100524902344 40.60300064086913 L 128.82699584960938 40.60300064086913 L 130.552001953125 40.60300064086913 L 131.4709930419922 40.60300064086913 L 132.06399536132812 40.60300064086913 L 133.1959991455078 40.60300064086913 L 133.8520050048828 40.60300064086913 L 134.02099609375 40.60300064086913 L 135.57699584960938 40.60300064086913 L 136.40199279785156 40.60300064086913 L 136.82699584960938 40.60300064086913 L 136.82699584960938 26.601999282836907 L 136.40199279785156 26.601999282836907 L 135.57699584960938 26.601999282836907 M 136.40199279785156 21.55100059509277 L 136.82699584960938 21.55100059509277 L 136.82699584960938 7.5510001182556135 L 136.40199279785156 7.5510001182556135 L 135.57699584960938 7.5510001182556135 L 134.02099609375 7.5510001182556135 L 133.8520050048828 7.5510001182556135 L 133.1959991455078 7.5510001182556135 L 132.06399536132812 7.5510001182556135 L 131.4709930419922 7.5510001182556135 L 130.552001953125 7.5510001182556135 L 128.82699584960938 7.5510001182556135 L 128.17100524902344 7.5510001182556135 L 127.302001953125 7.5510001182556135 L 126.44599914550781 7.5510001182556135 L 124.9209976196289 7.5510001182556135 L 122.8270034790039 7.5510001182556135 L 122.8270034790039 21.55100059509277 L 124.9209976196289 21.55100059509277 L 126.44599914550781 21.55100059509277 L 127.302001953125 21.55100059509277 L 128.17100524902344 21.55100059509277 L 128.82699584960938 21.55100059509277 L 130.552001953125 21.55100059509277 L 131.4709930419922 21.55100059509277 L 132.06399536132812 21.55100059509277 L 133.1959991455078 21.55100059509277 L 133.8520050048828 21.55100059509277 L 134.02099609375 21.55100059509277 L 135.57699584960938 21.55100059509277 L 136.40199279785156 21.55100059509277 M 130.552001953125 -30.551000595092766 L 128.82699584960938 -30.551000595092766 L 127.302001953125 -30.551000595092766 L 118.06500244140625 -30.551000595092766 L 118.06500244140625 -16.55100059509277 L 124.9209976196289 -16.55100059509277 L 126.44599914550781 -16.55100059509277 L 127.302001953125 -16.55100059509277 L 128.82699584960938 -16.55100059509277 L 130.552001953125 -16.55100059509277 L 132.06399536132812 -16.55100059509277 L 132.06399536132812 -30.551000595092766 L 130.552001953125 -30.551000595092766 M -19 -49.60200119018553 L -29.576000213623047 -49.60200119018553 L -29.576000213623047 -35.60200119018554 L -25.10099983215332 -35.60200119018554 L -23.96299934387207 -35.60200119018554 L -23.13800048828125 -35.60200119018554 L -20.33799934387207 -35.60200119018554 L -20.049999237060547 -35.60200119018554 L -19 -35.60200119018554 L -15.574999809265137 -35.60200119018554 L -15.574999809265137 -49.60200119018553 L -19 -49.60200119018553 M 3.4749999046325684 -16.55100059509277 L 3.76200008392334 -16.55100059509277 L 8.524999618530273 -16.55100059509277 L 13 -16.55100059509277 L 13 -30.551000595092766 L 8.524999618530273 -30.551000595092766 L 3.4749999046325684 -30.551000595092766 L -1 -30.551000595092766 L -1 -16.55100059509277 L 3.4749999046325684 -16.55100059509277 M 22.524999618530273 -49.60200119018553 L 8.524999618530273 -49.60200119018553 L 8.524999618530273 -35.60200119018554 L 13 -35.60200119018554 L 17.76300048828125 -35.60200119018554 L 18.049999237060547 -35.60200119018554 L 22.524999618530273 -35.60200119018554 L 22.524999618530273 -49.60200119018553 M 31 -49.60200119018553 L 27.575000762939453 -49.60200119018553 L 27.575000762939453 -35.60200119018554 L 31 -35.60200119018554 L 32.04999923706055 -35.60200119018554 L 33.1879997253418 -35.60200119018554 L 34.01300048828125 -35.60200119018554 L 36.8129997253418 -35.60200119018554 L 37.10100173950195 -35.60200119018554 L 41.57600021362305 -35.60200119018554 L 41.57600021362305 -49.60200119018553 L 31 -49.60200119018553 M 41.57600021362305 -16.55100059509277 L 41.862998962402344 -16.55100059509277 L 44.24399948120117 -16.55100059509277 L 46.625999450683594 -16.55100059509277 L 51.10100173950195 -16.55100059509277 L 51.10100173950195 -30.551000595092766 L 46.625999450683594 -30.551000595092766 L 41.57600021362305 -30.551000595092766 L 37.10100173950195 -30.551000595092766 L 37.10100173950195 -16.55100059509277 L 41.57600021362305 -16.55100059509277 M 51.10100173950195 40.60300064086913 L 56.1510009765625 40.60300064086913 L 58.24399948120117 40.60300064086913 L 58.24399948120117 26.601999282836907 L 56.1510009765625 26.601999282836907 L 55.862998962402344 26.601999282836907 L 51.38800048828125 26.601999282836907 L 51.10100173950195 26.601999282836907 L 46.625999450683594 26.601999282836907 L 46.3380012512207 26.601999282836907 L 44.24399948120117 26.601999282836907 L 44.24399948120117 40.60300064086913 L 46.625999450683594 40.60300064086913 L 51.10100173950195 40.60300064086913 M 58.24399948120117 7.5510001182556135 L 56.1510009765625 7.5510001182556135 L 55.862998962402344 7.5510001182556135 L 51.38800048828125 7.5510001182556135 L 51.38800048828125 21.55100059509277 L 55.862998962402344 21.55100059509277 L 56.1510009765625 21.55100059509277 L 58.24399948120117 21.55100059509277 L 60.625999450683594 21.55100059509277 L 60.91299819946289 21.55100059509277 L 65.38800048828125 21.55100059509277 L 65.38800048828125 7.5510001182556135 L 60.91299819946289 7.5510001182556135 L 60.625999450683594 7.5510001182556135 L 58.24399948120117 7.5510001182556135 M 58.24399948120117 -16.55100059509277 L 60.625999450683594 -16.55100059509277 L 60.91299819946289 -16.55100059509277 L 65.6760025024414 -16.55100059509277 L 70.1510009765625 -16.55100059509277 L 70.1510009765625 -30.551000595092766 L 65.6760025024414 -30.551000595092766 L 60.625999450683594 -30.551000595092766 L 56.1510009765625 -30.551000595092766 L 56.1510009765625 -16.55100059509277 L 58.24399948120117 -16.55100059509277 M 79.6760025024414 -49.60200119018553 L 65.6760025024414 -49.60200119018553 L 65.6760025024414 -35.60200119018554 L 70.1510009765625 -35.60200119018554 L 74.91400146484375 -35.60200119018554 L 75.20099639892578 -35.60200119018554 L 79.6760025024414 -35.60200119018554 L 79.6760025024414 -49.60200119018553 M 65.6760025024414 -11.499999999999998 L 60.91299819946289 -11.499999999999998 L 60.91299819946289 2.4999999999999996 L 65.38800048828125 2.4999999999999996 L 65.6760025024414 2.4999999999999996 L 70.1510009765625 2.4999999999999996 L 70.43900299072266 2.4999999999999996 L 74.91400146484375 2.4999999999999996 L 74.91400146484375 -11.499999999999998 L 70.1510009765625 -11.499999999999998 L 65.6760025024414 -11.499999999999998 M 70.1510009765625 40.60300064086913 L 70.43900299072266 40.60300064086913 L 74.91400146484375 40.60300064086913 L 75.20099639892578 40.60300064086913 L 79.6760025024414 40.60300064086913 L 79.6760025024414 26.601999282836907 L 75.20099639892578 26.601999282836907 L 74.91400146484375 26.601999282836907 L 70.43900299072266 26.601999282836907 L 70.1510009765625 26.601999282836907 L 65.6760025024414 26.601999282836907 L 65.6760025024414 40.60300064086913 L 70.1510009765625 40.60300064086913 M 75.20099639892578 7.5510001182556135 L 74.91400146484375 7.5510001182556135 L 70.43900299072266 7.5510001182556135 L 70.43900299072266 21.55100059509277 L 74.91400146484375 21.55100059509277 L 75.20099639892578 21.55100059509277 L 79.6760025024414 21.55100059509277 L 79.96399688720703 21.55100059509277 L 84.43900299072266 21.55100059509277 L 84.43900299072266 7.5510001182556135 L 79.96399688720703 7.5510001182556135 L 79.6760025024414 7.5510001182556135 L 75.20099639892578 7.5510001182556135 M 79.6760025024414 -16.55100059509277 L 79.96399688720703 -16.55100059509277 L 84.72599792480469 -16.55100059509277 L 89.20099639892578 -16.55100059509277 L 89.20099639892578 -30.551000595092766 L 84.72599792480469 -30.551000595092766 L 79.6760025024414 -30.551000595092766 L 75.20099639892578 -30.551000595092766 L 75.20099639892578 -16.55100059509277 L 79.6760025024414 -16.55100059509277 M 98.72699737548828 -49.60200119018553 L 84.72599792480469 -49.60200119018553 L 84.72599792480469 -35.60200119018554 L 89.20099639892578 -35.60200119018554 L 93.96399688720703 -35.60200119018554 L 94.2509994506836 -35.60200119018554 L 98.72699737548828 -35.60200119018554 L 98.72699737548828 -49.60200119018553 M 84.72599792480469 -11.499999999999998 L 79.96399688720703 -11.499999999999998 L 79.96399688720703 2.4999999999999996 L 84.43900299072266 2.4999999999999996 L 84.72599792480469 2.4999999999999996 L 89.20099639892578 2.4999999999999996 L 93.96399688720703 2.4999999999999996 L 93.96399688720703 -11.499999999999998 L 89.20099639892578 -11.499999999999998 L 84.72599792480469 -11.499999999999998 M 89.20099639892578 26.601999282836907 L 84.72599792480469 26.601999282836907 L 84.72599792480469 40.60300064086913 L 89.20099639892578 40.60300064086913 L 93.96399688720703 40.60300064086913 L 94.2509994506836 40.60300064086913 L 96.63300323486328 40.60300064086913 L 98.72699737548828 40.60300064086913 L 98.72699737548828 26.601999282836907 L 96.63300323486328 26.601999282836907 L 94.2509994506836 26.601999282836907 L 93.96399688720703 26.601999282836907 L 89.20099639892578 26.601999282836907 M 98.72699737548828 -16.55100059509277 L 101.81999969482422 -16.55100059509277 L 102.6449966430664 -16.55100059509277 L 104.2020034790039 -16.55100059509277 L 105.0270004272461 -16.55100059509277 L 106.75199890136719 -16.55100059509277 L 108.25199890136719 -16.55100059509277 L 108.25199890136719 -30.551000595092766 L 106.75199890136719 -30.551000595092766 L 105.0270004272461 -30.551000595092766 L 104.2020034790039 -30.551000595092766 L 98.72699737548828 -30.551000595092766 L 94.2509994506836 -30.551000595092766 L 94.2509994506836 -16.55100059509277 L 96.63300323486328 -16.55100059509277 L 98.72699737548828 -16.55100059509277 M 96.63300323486328 21.55100059509277 L 98.72699737548828 21.55100059509277 L 101.81999969482422 21.55100059509277 L 102.6449966430664 21.55100059509277 L 103.7770004272461 21.55100059509277 L 104.2020034790039 21.55100059509277 L 104.37000274658203 21.55100059509277 L 105.0270004272461 21.55100059509277 L 106.75199890136719 21.55100059509277 L 107.66999816894531 21.55100059509277 L 108.25199890136719 21.55100059509277 L 109.3949966430664 21.55100059509277 L 110.052001953125 21.55100059509277 L 110.63300323486328 21.55100059509277 L 110.63300323486328 7.5510001182556135 L 110.052001953125 7.5510001182556135 L 109.3949966430664 7.5510001182556135 L 108.25199890136719 7.5510001182556135 L 107.66999816894531 7.5510001182556135 L 106.75199890136719 7.5510001182556135 L 105.0270004272461 7.5510001182556135 L 104.37000274658203 7.5510001182556135 L 104.2020034790039 7.5510001182556135 L 102.6449966430664 7.5510001182556135 L 101.81999969482422 7.5510001182556135 L 98.72699737548828 7.5510001182556135 L 96.63300323486328 7.5510001182556135 L 96.63300323486328 21.55100059509277 M -131 -49.60200119018553 L -139 -49.60200119018553 L -143.8769989013672 -49.60200119018553 L -143.8769989013672 -35.60200119018554 L -141.49600219726562 -35.60200119018554 L -141.0709991455078 -35.60200119018554 L -140.24600219726562 -35.60200119018554 L -139.11500549316406 -35.60200119018554 L -139 -35.60200119018554 L -131 -35.60200119018554 L -129.8769989013672 -35.60200119018554 L -129.8769989013672 -49.60200119018553 L -131 -49.60200119018553 M -110.8270034790039 -49.60200119018553 L -124.8270034790039 -49.60200119018553 L -124.8270034790039 -35.60200119018554 L -122.73300170898438 -35.60200119018554 L -117.97100067138672 -35.60200119018554 L -116.44599914550781 -35.60200119018554 L -115.302001953125 -35.60200119018554 L -110.8270034790039 -35.60200119018554 L -110.8270034790039 -49.60200119018553 M -114.72100067138672 26.601999282836907 L -115.302001953125 26.601999282836907 L -116.44599914550781 26.601999282836907 L -117.68399810791016 26.601999282836907 L -117.68399810791016 40.60300064086913 L -116.44599914550781 40.60300064086913 L -115.302001953125 40.60300064086913 L -114.72100067138672 40.60300064086913 L -111.4209976196289 40.60300064086913 L -110.8270034790039 40.60300064086913 L -109.69599914550781 40.60300064086913 L -108.87100219726562 40.60300064086913 L -105.7770004272461 40.60300064086913 L -103.68299865722656 40.60300064086913 L -103.68299865722656 26.601999282836907 L -105.7770004272461 26.601999282836907 L -108.87100219726562 26.601999282836907 L -109.69599914550781 26.601999282836907 L -110.8270034790039 26.601999282836907 L -111.4209976196289 26.601999282836907 L -114.72100067138672 26.601999282836907 M -99 -49.60200119018553 L -105.7770004272461 -49.60200119018553 L -105.7770004272461 -35.60200119018554 L -101.302001953125 -35.60200119018554 L -99 -35.60200119018554 L -96.53900146484375 -35.60200119018554 L -96.25199890136719 -35.60200119018554 L -91.7770004272461 -35.60200119018554 L -91.7770004272461 -49.60200119018553 L -99 -49.60200119018553 M -105.7770004272461 -11.499999999999998 L -108.87100219726562 -11.499999999999998 L -109.69599914550781 -11.499999999999998 L -110.53900146484375 -11.499999999999998 L -110.53900146484375 2.4999999999999996 L -109.69599914550781 2.4999999999999996 L -108.87100219726562 2.4999999999999996 L -105.7770004272461 2.4999999999999996 L -103.68299865722656 2.4999999999999996 L -101.302001953125 2.4999999999999996 L -101.01399993896484 2.4999999999999996 L -99 2.4999999999999996 L -96.53900146484375 2.4999999999999996 L -96.53900146484375 -11.499999999999998 L -99 -11.499999999999998 L -101.302001953125 -11.499999999999998 L -103.68299865722656 -11.499999999999998 L -105.7770004272461 -11.499999999999998 M -72.72599792480469 -49.60200119018553 L -86.72699737548828 -49.60200119018553 L -86.72699737548828 -35.60200119018554 L -82.2509994506836 -35.60200119018554 L -79.87000274658203 -35.60200119018554 L -77.48899841308594 -35.60200119018554 L -77.20099639892578 -35.60200119018554 L -72.72599792480469 -35.60200119018554 L -72.72599792480469 -49.60200119018553 M -53.67599868774414 -16.55100059509277 L -53.38800048828125 -16.55100059509277 L -48.625999450683594 -16.55100059509277 L -44.1510009765625 -16.55100059509277 L -44.1510009765625 -30.551000595092766 L -48.625999450683594 -30.551000595092766 L -53.67599868774414 -30.551000595092766 L -58.1510009765625 -30.551000595092766 L -58.1510009765625 -16.55100059509277 L -53.67599868774414 -16.55100059509277 M -34.625999450683594 -49.60200119018553 L -48.625999450683594 -49.60200119018553 L -48.625999450683594 -35.60200119018554 L -44.1510009765625 -35.60200119018554 L -39.38800048828125 -35.60200119018554 L -39.10100173950195 -35.60200119018554 L -34.625999450683594 -35.60200119018554 L -34.625999450683594 -49.60200119018553 z"
     fill="none"
     stroke="rgb(255,0,0)"
     stroke-width="0.001mm"
     id="path837"
     style="stroke-width:0.1;stroke-miterlimit:4;stroke-dasharray:none" />
</svg>
