999
"DXF R12 Output" (www.mydxf.blogspot.com)
 0 
SECTION
 2 
HEADER
 9 
$ACADVER
 1 
AC1009
 9 
$EXTMIN
 10 
 0 
 20 
 0 
 9 
$EXTMAX
 10 
 8.5 
 20 
 11 
 0 
ENDSEC
 0 
SECTION
 2 
ENTITIES
0
LINE
8
Layer 1
10
44.564800
20
43.918500
11
44.591100
21
43.752500
0
LINE
8
Layer 1
10
44.591100
20
43.752500
11
44.591100
21
43.743600
0
LINE
8
Layer 1
10
44.591100
20
43.743600
11
44.591100
21
18.062800
0
LINE
8
Layer 1
10
44.591100
20
18.062800
11
44.591100
21
18.053800
0
LINE
8
Layer 1
10
44.591100
20
18.053800
11
44.564800
21
17.887800
0
LINE
8
Layer 1
10
44.564800
20
17.887800
11
44.484400
21
17.729700
0
LINE
8
Layer 1
10
44.484400
20
17.729700
11
44.358800
21
17.604400
0
LINE
8
Layer 1
10
44.358800
20
17.604400
11
44.201000
21
17.524000
0
LINE
8
Layer 1
10
44.201000
20
17.524000
11
44.036700
21
17.497800
0
LINE
8
Layer 1
10
44.036700
20
17.497800
11
44.026100
21
17.497800
0
LINE
8
Layer 1
10
44.026100
20
17.497800
11
42.615500
21
17.497800
0
LINE
8
Layer 1
10
42.615500
20
17.497800
11
42.615500
21
16.933900
0
LINE
8
Layer 1
10
42.615500
20
16.933900
11
42.615500
21
16.924900
0
LINE
8
Layer 1
10
42.615500
20
16.924900
11
42.614300
21
16.917500
0
LINE
8
Layer 1
10
42.614300
20
16.917500
11
42.589300
21
16.758900
0
LINE
8
Layer 1
10
42.589300
20
16.758900
11
42.508800
21
16.600900
0
LINE
8
Layer 1
10
42.508800
20
16.600900
11
42.383300
21
16.475500
0
LINE
8
Layer 1
10
42.383300
20
16.475500
11
42.225500
21
16.395100
0
LINE
8
Layer 1
10
42.225500
20
16.395100
11
42.061100
21
16.368900
0
LINE
8
Layer 1
10
42.061100
20
16.368900
11
42.050500
21
16.368900
0
LINE
8
Layer 1
10
42.050500
20
16.368900
11
40.923000
21
16.368900
0
LINE
8
Layer 1
10
40.923000
20
16.368900
11
40.912400
21
16.368900
0
LINE
8
Layer 1
10
40.912400
20
16.368900
11
40.747800
21
16.395100
0
LINE
8
Layer 1
10
40.747800
20
16.395100
11
40.590000
21
16.475500
0
LINE
8
Layer 1
10
40.590000
20
16.475500
11
40.464400
21
16.600900
0
LINE
8
Layer 1
10
40.464400
20
16.600900
11
40.384000
21
16.758900
0
LINE
8
Layer 1
10
40.384000
20
16.758900
11
40.358900
21
16.917500
0
LINE
8
Layer 1
10
40.358900
20
16.917500
11
40.357700
21
16.924900
0
LINE
8
Layer 1
10
40.357700
20
16.924900
11
40.357700
21
16.933900
0
LINE
8
Layer 1
10
40.357700
20
16.933900
11
40.357700
21
17.497800
0
LINE
8
Layer 1
10
40.357700
20
17.497800
11
40.040800
21
17.497800
0
LINE
8
Layer 1
10
40.040800
20
17.497800
11
38.615600
21
17.497800
0
LINE
8
Layer 1
10
38.615600
20
17.497800
11
38.495600
21
17.497800
0
LINE
8
Layer 1
10
38.495600
20
17.497800
11
38.262800
21
17.497800
0
LINE
8
Layer 1
10
38.262800
20
17.497800
11
37.823700
21
17.497800
0
LINE
8
Layer 1
10
37.823700
20
17.497800
11
37.776000
21
17.497800
0
LINE
8
Layer 1
10
37.776000
20
17.497800
11
37.590800
21
17.497800
0
LINE
8
Layer 1
10
37.590800
20
17.497800
11
37.271400
21
17.497800
0
LINE
8
Layer 1
10
37.271400
20
17.497800
11
37.104000
21
17.497800
0
LINE
8
Layer 1
10
37.104000
20
17.497800
11
36.844600
21
17.497800
0
LINE
8
Layer 1
10
36.844600
20
17.497800
11
36.357800
21
17.497800
0
LINE
8
Layer 1
10
36.357800
20
17.497800
11
36.172700
21
17.497800
0
LINE
8
Layer 1
10
36.172700
20
17.497800
11
35.927400
21
17.497800
0
LINE
8
Layer 1
10
35.927400
20
17.497800
11
35.685800
21
17.497800
0
LINE
8
Layer 1
10
35.685800
20
17.497800
11
35.255500
21
17.497800
0
LINE
8
Layer 1
10
35.255500
20
17.497800
11
34.664500
21
17.497800
0
LINE
8
Layer 1
10
34.664500
20
17.497800
11
33.320500
21
17.497800
0
LINE
8
Layer 1
10
33.320500
20
17.497800
11
33.239300
21
17.497800
0
LINE
8
Layer 1
10
33.239300
20
17.497800
11
31.976300
21
17.497800
0
LINE
8
Layer 1
10
31.976300
20
17.497800
11
31.545900
21
17.497800
0
LINE
8
Layer 1
10
31.545900
20
17.497800
11
31.326600
21
17.497800
0
LINE
8
Layer 1
10
31.326600
20
17.497800
11
31.326600
21
16.933900
0
LINE
8
Layer 1
10
31.326600
20
16.933900
11
31.326600
21
16.924900
0
LINE
8
Layer 1
10
31.326600
20
16.924900
11
31.325500
21
16.917500
0
LINE
8
Layer 1
10
31.325500
20
16.917500
11
31.300400
21
16.758900
0
LINE
8
Layer 1
10
31.300400
20
16.758900
11
31.220000
21
16.600900
0
LINE
8
Layer 1
10
31.220000
20
16.600900
11
31.094400
21
16.475500
0
LINE
8
Layer 1
10
31.094400
20
16.475500
11
30.936600
21
16.395100
0
LINE
8
Layer 1
10
30.936600
20
16.395100
11
30.772200
21
16.368900
0
LINE
8
Layer 1
10
30.772200
20
16.368900
11
30.761600
21
16.368900
0
LINE
8
Layer 1
10
30.761600
20
16.368900
11
9.314170
21
16.368900
0
LINE
8
Layer 1
10
9.314170
20
16.368900
11
9.303550
21
16.368900
0
LINE
8
Layer 1
10
9.303550
20
16.368900
11
9.138910
21
16.395100
0
LINE
8
Layer 1
10
9.138910
20
16.395100
11
8.981150
21
16.475500
0
LINE
8
Layer 1
10
8.981150
20
16.475500
11
8.855560
21
16.600900
0
LINE
8
Layer 1
10
8.855560
20
16.600900
11
8.775130
21
16.758900
0
LINE
8
Layer 1
10
8.775130
20
16.758900
11
8.750060
21
16.917500
0
LINE
8
Layer 1
10
8.750060
20
16.917500
11
8.748880
21
16.924900
0
LINE
8
Layer 1
10
8.748880
20
16.924900
11
8.748880
21
16.933900
0
LINE
8
Layer 1
10
8.748880
20
16.933900
11
8.748880
21
17.497800
0
LINE
8
Layer 1
10
8.748880
20
17.497800
11
7.782270
21
17.497800
0
LINE
8
Layer 1
10
7.782270
20
17.497800
11
7.461390
21
17.497800
0
LINE
8
Layer 1
10
7.461390
20
17.497800
11
6.357050
21
17.497800
0
LINE
8
Layer 1
10
6.357050
20
17.497800
11
5.094110
21
17.497800
0
LINE
8
Layer 1
10
5.094110
20
17.497800
11
5.013110
21
17.497800
0
LINE
8
Layer 1
10
5.013110
20
17.497800
11
3.668890
21
17.497800
0
LINE
8
Layer 1
10
3.668890
20
17.497800
11
2.405940
21
17.497800
0
LINE
8
Layer 1
10
2.405940
20
17.497800
11
1.061720
21
17.497800
0
LINE
8
Layer 1
10
1.061720
20
17.497800
11
0.980721
21
17.497800
0
LINE
8
Layer 1
10
0.980721
20
17.497800
11
-0.282222
21
17.497800
0
LINE
8
Layer 1
10
-0.282222
20
17.497800
11
-1.386560
21
17.497800
0
LINE
8
Layer 1
10
-1.386560
20
17.497800
11
-1.707440
21
17.497800
0
LINE
8
Layer 1
10
-1.707440
20
17.497800
11
-2.970390
21
17.497800
0
LINE
8
Layer 1
10
-2.970390
20
17.497800
11
-3.291560
21
17.497800
0
LINE
8
Layer 1
10
-3.291560
20
17.497800
11
-3.524390
21
17.497800
0
LINE
8
Layer 1
10
-3.524390
20
17.497800
11
-4.314610
21
17.497800
0
LINE
8
Layer 1
10
-4.314610
20
17.497800
11
-4.395610
21
17.497800
0
LINE
8
Layer 1
10
-4.395610
20
17.497800
11
-5.362220
21
17.497800
0
LINE
8
Layer 1
10
-5.362220
20
17.497800
11
-5.362220
21
16.933900
0
LINE
8
Layer 1
10
-5.362220
20
16.933900
11
-5.362220
21
16.924900
0
LINE
8
Layer 1
10
-5.362220
20
16.924900
11
-5.363390
21
16.917500
0
LINE
8
Layer 1
10
-5.363390
20
16.917500
11
-5.388460
21
16.758900
0
LINE
8
Layer 1
10
-5.388460
20
16.758900
11
-5.468900
21
16.600900
0
LINE
8
Layer 1
10
-5.468900
20
16.600900
11
-5.594490
21
16.475500
0
LINE
8
Layer 1
10
-5.594490
20
16.475500
11
-5.752250
21
16.395100
0
LINE
8
Layer 1
10
-5.752250
20
16.395100
11
-5.916890
21
16.368900
0
LINE
8
Layer 1
10
-5.916890
20
16.368900
11
-5.927510
21
16.368900
0
LINE
8
Layer 1
10
-5.927510
20
16.368900
11
-27.375000
21
16.368900
0
LINE
8
Layer 1
10
-27.375000
20
16.368900
11
-27.383900
21
16.368900
0
LINE
8
Layer 1
10
-27.383900
20
16.368900
11
-27.549900
21
16.395100
0
LINE
8
Layer 1
10
-27.549900
20
16.395100
11
-27.707700
21
16.475500
0
LINE
8
Layer 1
10
-27.707700
20
16.475500
11
-27.833300
21
16.601100
0
LINE
8
Layer 1
10
-27.833300
20
16.601100
11
-27.913700
21
16.758900
0
LINE
8
Layer 1
10
-27.913700
20
16.758900
11
-27.938800
21
16.917500
0
LINE
8
Layer 1
10
-27.938800
20
16.917500
11
-27.940000
21
16.924900
0
LINE
8
Layer 1
10
-27.940000
20
16.924900
11
-27.940000
21
16.933900
0
LINE
8
Layer 1
10
-27.940000
20
16.933900
11
-27.940000
21
17.497800
0
LINE
8
Layer 1
10
-27.940000
20
17.497800
11
-28.508400
21
17.497800
0
LINE
8
Layer 1
10
-28.508400
20
17.497800
11
-28.589700
21
17.497800
0
LINE
8
Layer 1
10
-28.589700
20
17.497800
11
-29.261600
21
17.497800
0
LINE
8
Layer 1
10
-29.261600
20
17.497800
11
-29.852600
21
17.497800
0
LINE
8
Layer 1
10
-29.852600
20
17.497800
11
-30.725800
21
17.497800
0
LINE
8
Layer 1
10
-30.725800
20
17.497800
11
-30.958600
21
17.497800
0
LINE
8
Layer 1
10
-30.958600
20
17.497800
11
-31.277800
21
17.497800
0
LINE
8
Layer 1
10
-31.277800
20
17.497800
11
-31.445500
21
17.497800
0
LINE
8
Layer 1
10
-31.445500
20
17.497800
11
-32.376800
21
17.497800
0
LINE
8
Layer 1
10
-32.376800
20
17.497800
11
-32.540800
21
17.497800
0
LINE
8
Layer 1
10
-32.540800
20
17.497800
11
-32.863600
21
17.497800
0
LINE
8
Layer 1
10
-32.863600
20
17.497800
11
-33.213000
21
17.497800
0
LINE
8
Layer 1
10
-33.213000
20
17.497800
11
-33.294000
21
17.497800
0
LINE
8
Layer 1
10
-33.294000
20
17.497800
11
-35.228900
21
17.497800
0
LINE
8
Layer 1
10
-35.228900
20
17.497800
11
-35.310200
21
17.497800
0
LINE
8
Layer 1
10
-35.310200
20
17.497800
11
-35.982200
21
17.497800
0
LINE
8
Layer 1
10
-35.982200
20
17.497800
11
-36.654100
21
17.497800
0
LINE
8
Layer 1
10
-36.654100
20
17.497800
11
-36.971100
21
17.497800
0
LINE
8
Layer 1
10
-36.971100
20
17.497800
11
-36.971100
21
16.933900
0
LINE
8
Layer 1
10
-36.971100
20
16.933900
11
-36.971100
21
16.924900
0
LINE
8
Layer 1
10
-36.971100
20
16.924900
11
-36.972300
21
16.917500
0
LINE
8
Layer 1
10
-36.972300
20
16.917500
11
-36.997300
21
16.758900
0
LINE
8
Layer 1
10
-36.997300
20
16.758900
11
-37.077800
21
16.600900
0
LINE
8
Layer 1
10
-37.077800
20
16.600900
11
-37.203400
21
16.475500
0
LINE
8
Layer 1
10
-37.203400
20
16.475500
11
-37.361100
21
16.395100
0
LINE
8
Layer 1
10
-37.361100
20
16.395100
11
-37.525800
21
16.368900
0
LINE
8
Layer 1
10
-37.525800
20
16.368900
11
-37.536400
21
16.368900
0
LINE
8
Layer 1
10
-37.536400
20
16.368900
11
-38.663800
21
16.368900
0
LINE
8
Layer 1
10
-38.663800
20
16.368900
11
-38.674500
21
16.368900
0
LINE
8
Layer 1
10
-38.674500
20
16.368900
11
-38.838800
21
16.395100
0
LINE
8
Layer 1
10
-38.838800
20
16.395100
11
-38.996600
21
16.475500
0
LINE
8
Layer 1
10
-38.996600
20
16.475500
11
-39.122200
21
16.600900
0
LINE
8
Layer 1
10
-39.122200
20
16.600900
11
-39.202600
21
16.758900
0
LINE
8
Layer 1
10
-39.202600
20
16.758900
11
-39.227700
21
16.917500
0
LINE
8
Layer 1
10
-39.227700
20
16.917500
11
-39.228900
21
16.924900
0
LINE
8
Layer 1
10
-39.228900
20
16.924900
11
-39.228900
21
16.933900
0
LINE
8
Layer 1
10
-39.228900
20
16.933900
11
-39.228900
21
17.497800
0
LINE
8
Layer 1
10
-39.228900
20
17.497800
11
-40.639400
21
17.497800
0
LINE
8
Layer 1
10
-40.639400
20
17.497800
11
-40.650000
21
17.497800
0
LINE
8
Layer 1
10
-40.650000
20
17.497800
11
-40.814400
21
17.524000
0
LINE
8
Layer 1
10
-40.814400
20
17.524000
11
-40.972100
21
17.604400
0
LINE
8
Layer 1
10
-40.972100
20
17.604400
11
-41.097700
21
17.729700
0
LINE
8
Layer 1
10
-41.097700
20
17.729700
11
-41.178200
21
17.887800
0
LINE
8
Layer 1
10
-41.178200
20
17.887800
11
-41.204400
21
18.053800
0
LINE
8
Layer 1
10
-41.204400
20
18.053800
11
-41.204400
21
18.062800
0
LINE
8
Layer 1
10
-41.204400
20
18.062800
11
-41.204400
21
43.743600
0
LINE
8
Layer 1
10
-41.204400
20
43.743600
11
-41.204400
21
43.747100
0
LINE
8
Layer 1
10
-41.204400
20
43.747100
11
-41.178200
21
43.913500
0
LINE
8
Layer 1
10
-41.178200
20
43.913500
11
-41.097700
21
44.071200
0
LINE
8
Layer 1
10
-41.097700
20
44.071200
11
-40.972100
21
44.196500
0
LINE
8
Layer 1
10
-40.972100
20
44.196500
11
-40.814400
21
44.277000
0
LINE
8
Layer 1
10
-40.814400
20
44.277000
11
-40.644700
21
44.304000
0
LINE
8
Layer 1
10
-40.644700
20
44.304000
11
-41.204400
21
44.304000
0
LINE
8
Layer 1
10
-41.204400
20
44.304000
11
-41.204400
21
44.308800
0
LINE
8
Layer 1
10
-41.204400
20
44.308800
11
-40.639400
21
44.308800
0
LINE
8
Layer 1
10
-40.639400
20
44.308800
11
-39.228900
21
44.308800
0
LINE
8
Layer 1
10
-39.228900
20
44.308800
11
-39.228900
21
44.872400
0
LINE
8
Layer 1
10
-39.228900
20
44.872400
11
-39.228900
21
44.872700
0
LINE
8
Layer 1
10
-39.228900
20
44.872700
11
-39.228900
21
44.881700
0
LINE
8
Layer 1
10
-39.228900
20
44.881700
11
-39.202600
21
45.047700
0
LINE
8
Layer 1
10
-39.202600
20
45.047700
11
-39.122200
21
45.205500
0
LINE
8
Layer 1
10
-39.122200
20
45.205500
11
-38.996600
21
45.331100
0
LINE
8
Layer 1
10
-38.996600
20
45.331100
11
-38.838800
21
45.411500
0
LINE
8
Layer 1
10
-38.838800
20
45.411500
11
-38.672800
21
45.437700
0
LINE
8
Layer 1
10
-38.672800
20
45.437700
11
-38.663800
21
45.437700
0
LINE
8
Layer 1
10
-38.663800
20
45.437700
11
-37.536400
21
45.437700
0
LINE
8
Layer 1
10
-37.536400
20
45.437700
11
-37.527500
21
45.437700
0
LINE
8
Layer 1
10
-37.527500
20
45.437700
11
-37.361100
21
45.411200
0
LINE
8
Layer 1
10
-37.361100
20
45.411200
11
-37.203400
21
45.330800
0
LINE
8
Layer 1
10
-37.203400
20
45.330800
11
-37.077800
21
45.205500
0
LINE
8
Layer 1
10
-37.077800
20
45.205500
11
-36.997300
21
45.047400
0
LINE
8
Layer 1
10
-36.997300
20
45.047400
11
-36.971100
21
44.881400
0
LINE
8
Layer 1
10
-36.971100
20
44.881400
11
-36.971100
21
44.872400
0
LINE
8
Layer 1
10
-36.971100
20
44.872400
11
-36.971100
21
44.308800
0
LINE
8
Layer 1
10
-36.971100
20
44.308800
11
-36.654100
21
44.308800
0
LINE
8
Layer 1
10
-36.654100
20
44.308800
11
-35.310200
21
44.308800
0
LINE
8
Layer 1
10
-35.310200
20
44.308800
11
-35.228900
21
44.308800
0
LINE
8
Layer 1
10
-35.228900
20
44.308800
11
-31.277800
21
44.308800
0
LINE
8
Layer 1
10
-31.277800
20
44.308800
11
-29.852600
21
44.308800
0
LINE
8
Layer 1
10
-29.852600
20
44.308800
11
-27.940000
21
44.308800
0
LINE
8
Layer 1
10
-27.940000
20
44.308800
11
-27.940000
21
44.872400
0
LINE
8
Layer 1
10
-27.940000
20
44.872400
11
-27.940000
21
44.881400
0
LINE
8
Layer 1
10
-27.940000
20
44.881400
11
-27.913700
21
45.047400
0
LINE
8
Layer 1
10
-27.913700
20
45.047400
11
-27.833300
21
45.205500
0
LINE
8
Layer 1
10
-27.833300
20
45.205500
11
-27.707700
21
45.330800
0
LINE
8
Layer 1
10
-27.707700
20
45.330800
11
-27.549900
21
45.411200
0
LINE
8
Layer 1
10
-27.549900
20
45.411200
11
-27.383800
21
45.437700
0
LINE
8
Layer 1
10
-27.383800
20
45.437700
11
-27.375000
21
45.437700
0
LINE
8
Layer 1
10
-27.375000
20
45.437700
11
-5.927510
21
45.437700
0
LINE
8
Layer 1
10
-5.927510
20
45.437700
11
-5.918660
21
45.437700
0
LINE
8
Layer 1
10
-5.918660
20
45.437700
11
-5.752250
21
45.411200
0
LINE
8
Layer 1
10
-5.752250
20
45.411200
11
-5.594490
21
45.330800
0
LINE
8
Layer 1
10
-5.594490
20
45.330800
11
-5.468900
21
45.205500
0
LINE
8
Layer 1
10
-5.468900
20
45.205500
11
-5.388460
21
45.047400
0
LINE
8
Layer 1
10
-5.388460
20
45.047400
11
-5.362220
21
44.881400
0
LINE
8
Layer 1
10
-5.362220
20
44.881400
11
-5.362220
21
44.872400
0
LINE
8
Layer 1
10
-5.362220
20
44.872400
11
-5.362220
21
44.308800
0
LINE
8
Layer 1
10
-5.362220
20
44.308800
11
-4.395610
21
44.308800
0
LINE
8
Layer 1
10
-4.395610
20
44.308800
11
-2.970390
21
44.308800
0
LINE
8
Layer 1
10
-2.970390
20
44.308800
11
0.980721
21
44.308800
0
LINE
8
Layer 1
10
0.980721
20
44.308800
11
2.405940
21
44.308800
0
LINE
8
Layer 1
10
2.405940
20
44.308800
11
6.357050
21
44.308800
0
LINE
8
Layer 1
10
6.357050
20
44.308800
11
7.782270
21
44.308800
0
LINE
8
Layer 1
10
7.782270
20
44.308800
11
8.748880
21
44.308800
0
LINE
8
Layer 1
10
8.748880
20
44.308800
11
8.748880
21
44.872400
0
LINE
8
Layer 1
10
8.748880
20
44.872400
11
8.748880
21
44.881400
0
LINE
8
Layer 1
10
8.748880
20
44.881400
11
8.775130
21
45.047400
0
LINE
8
Layer 1
10
8.775130
20
45.047400
11
8.855560
21
45.205500
0
LINE
8
Layer 1
10
8.855560
20
45.205500
11
8.981150
21
45.330800
0
LINE
8
Layer 1
10
8.981150
20
45.330800
11
9.138910
21
45.411200
0
LINE
8
Layer 1
10
9.138910
20
45.411200
11
9.305320
21
45.437700
0
LINE
8
Layer 1
10
9.305320
20
45.437700
11
9.314170
21
45.437700
0
LINE
8
Layer 1
10
9.314170
20
45.437700
11
30.761600
21
45.437700
0
LINE
8
Layer 1
10
30.761600
20
45.437700
11
30.770500
21
45.437700
0
LINE
8
Layer 1
10
30.770500
20
45.437700
11
30.936600
21
45.411200
0
LINE
8
Layer 1
10
30.936600
20
45.411200
11
31.094400
21
45.330800
0
LINE
8
Layer 1
10
31.094400
20
45.330800
11
31.220000
21
45.205500
0
LINE
8
Layer 1
10
31.220000
20
45.205500
11
31.300400
21
45.047400
0
LINE
8
Layer 1
10
31.300400
20
45.047400
11
31.326600
21
44.881400
0
LINE
8
Layer 1
10
31.326600
20
44.881400
11
31.326600
21
44.872400
0
LINE
8
Layer 1
10
31.326600
20
44.872400
11
31.326600
21
44.308800
0
LINE
8
Layer 1
10
31.326600
20
44.308800
11
31.545900
21
44.308800
0
LINE
8
Layer 1
10
31.545900
20
44.308800
11
31.976300
21
44.308800
0
LINE
8
Layer 1
10
31.976300
20
44.308800
11
35.927400
21
44.308800
0
LINE
8
Layer 1
10
35.927400
20
44.308800
11
36.357800
21
44.308800
0
LINE
8
Layer 1
10
36.357800
20
44.308800
11
38.262800
21
44.308800
0
LINE
8
Layer 1
10
38.262800
20
44.308800
11
38.495600
21
44.308800
0
LINE
8
Layer 1
10
38.495600
20
44.308800
11
38.615600
21
44.308800
0
LINE
8
Layer 1
10
38.615600
20
44.308800
11
40.040800
21
44.308800
0
LINE
8
Layer 1
10
40.040800
20
44.308800
11
40.357700
21
44.308800
0
LINE
8
Layer 1
10
40.357700
20
44.308800
11
40.357700
21
44.872400
0
LINE
8
Layer 1
10
40.357700
20
44.872400
11
40.357700
21
44.881400
0
LINE
8
Layer 1
10
40.357700
20
44.881400
11
40.384000
21
45.047400
0
LINE
8
Layer 1
10
40.384000
20
45.047400
11
40.464400
21
45.205500
0
LINE
8
Layer 1
10
40.464400
20
45.205500
11
40.590000
21
45.330800
0
LINE
8
Layer 1
10
40.590000
20
45.330800
11
40.747800
21
45.411200
0
LINE
8
Layer 1
10
40.747800
20
45.411200
11
40.914200
21
45.437700
0
LINE
8
Layer 1
10
40.914200
20
45.437700
11
40.923000
21
45.437700
0
LINE
8
Layer 1
10
40.923000
20
45.437700
11
42.050500
21
45.437700
0
LINE
8
Layer 1
10
42.050500
20
45.437700
11
42.059400
21
45.437700
0
LINE
8
Layer 1
10
42.059400
20
45.437700
11
42.225500
21
45.411200
0
LINE
8
Layer 1
10
42.225500
20
45.411200
11
42.383300
21
45.330800
0
LINE
8
Layer 1
10
42.383300
20
45.330800
11
42.508800
21
45.205500
0
LINE
8
Layer 1
10
42.508800
20
45.205500
11
42.589300
21
45.047400
0
LINE
8
Layer 1
10
42.589300
20
45.047400
11
42.615500
21
44.881400
0
LINE
8
Layer 1
10
42.615500
20
44.881400
11
42.615500
21
44.872400
0
LINE
8
Layer 1
10
42.615500
20
44.872400
11
42.615500
21
44.308800
0
LINE
8
Layer 1
10
42.615500
20
44.308800
11
44.026100
21
44.308800
0
LINE
8
Layer 1
10
44.026100
20
44.308800
11
44.034900
21
44.308800
0
LINE
8
Layer 1
10
44.034900
20
44.308800
11
44.201000
21
44.282300
0
LINE
8
Layer 1
10
44.201000
20
44.282300
11
44.358800
21
44.201900
0
LINE
8
Layer 1
10
44.358800
20
44.201900
11
44.484400
21
44.076600
0
LINE
8
Layer 1
10
44.484400
20
44.076600
11
44.564800
21
43.918500
0
LINE
8
Layer 1
10
36.357800
20
42.305600
11
35.927400
21
42.305600
0
LINE
8
Layer 1
10
35.927400
20
42.305600
11
35.927400
21
43.632100
0
LINE
8
Layer 1
10
35.927400
20
43.632100
11
31.976300
21
43.632100
0
LINE
8
Layer 1
10
31.976300
20
43.632100
11
31.976300
21
42.305600
0
LINE
8
Layer 1
10
31.976300
20
42.305600
11
31.545900
21
42.305600
0
LINE
8
Layer 1
10
31.545900
20
42.305600
11
31.545900
21
43.217200
0
LINE
8
Layer 1
10
31.545900
20
43.217200
11
31.326600
21
43.217200
0
LINE
8
Layer 1
10
31.326600
20
43.217200
11
29.640900
21
43.217200
0
LINE
8
Layer 1
10
29.640900
20
43.217200
11
29.640900
21
42.305600
0
LINE
8
Layer 1
10
29.640900
20
42.305600
11
29.408100
21
42.305600
0
LINE
8
Layer 1
10
29.408100
20
42.305600
11
29.408100
21
41.519600
0
LINE
8
Layer 1
10
29.408100
20
41.519600
11
29.640900
21
41.519600
0
LINE
8
Layer 1
10
29.640900
20
41.519600
11
29.640900
21
39.745900
0
LINE
8
Layer 1
10
29.640900
20
39.745900
11
30.127800
21
39.745900
0
LINE
8
Layer 1
10
30.127800
20
39.745900
11
30.127800
21
39.407200
0
LINE
8
Layer 1
10
30.127800
20
39.407200
11
30.551100
21
39.407200
0
LINE
8
Layer 1
10
30.551100
20
39.407200
11
30.873700
21
39.407200
0
LINE
8
Layer 1
10
30.873700
20
39.407200
11
31.059100
21
39.407200
0
LINE
8
Layer 1
10
31.059100
20
39.407200
11
31.059100
21
39.745900
0
LINE
8
Layer 1
10
31.059100
20
39.745900
11
31.304300
21
39.745900
0
LINE
8
Layer 1
10
31.304300
20
39.745900
11
31.326600
21
39.745900
0
LINE
8
Layer 1
10
31.326600
20
39.745900
11
31.545900
21
39.745900
0
LINE
8
Layer 1
10
31.545900
20
39.745900
11
31.545900
21
41.007400
0
LINE
8
Layer 1
10
31.545900
20
41.007400
11
31.976300
21
41.007400
0
LINE
8
Layer 1
10
31.976300
20
41.007400
11
31.976300
21
39.681000
0
LINE
8
Layer 1
10
31.976300
20
39.681000
11
33.320500
21
39.681000
0
LINE
8
Layer 1
10
33.320500
20
39.681000
11
35.927400
21
39.681000
0
LINE
8
Layer 1
10
35.927400
20
39.681000
11
35.927400
21
41.007400
0
LINE
8
Layer 1
10
35.927400
20
41.007400
11
36.357800
21
41.007400
0
LINE
8
Layer 1
10
36.357800
20
41.007400
11
36.357800
21
39.745900
0
LINE
8
Layer 1
10
36.357800
20
39.745900
11
36.844600
21
39.745900
0
LINE
8
Layer 1
10
36.844600
20
39.745900
11
36.844600
21
39.407200
0
LINE
8
Layer 1
10
36.844600
20
39.407200
11
37.271400
21
39.407200
0
LINE
8
Layer 1
10
37.271400
20
39.407200
11
37.590800
21
39.407200
0
LINE
8
Layer 1
10
37.590800
20
39.407200
11
37.776000
21
39.407200
0
LINE
8
Layer 1
10
37.776000
20
39.407200
11
37.776000
21
39.745900
0
LINE
8
Layer 1
10
37.776000
20
39.745900
11
37.823700
21
39.745900
0
LINE
8
Layer 1
10
37.823700
20
39.745900
11
38.262800
21
39.745900
0
LINE
8
Layer 1
10
38.262800
20
39.745900
11
38.262800
21
41.519600
0
LINE
8
Layer 1
10
38.262800
20
41.519600
11
38.495600
21
41.519600
0
LINE
8
Layer 1
10
38.495600
20
41.519600
11
38.495600
21
42.305600
0
LINE
8
Layer 1
10
38.495600
20
42.305600
11
38.262800
21
42.305600
0
LINE
8
Layer 1
10
38.262800
20
42.305600
11
38.262800
21
43.217200
0
LINE
8
Layer 1
10
38.262800
20
43.217200
11
36.357800
21
43.217200
0
LINE
8
Layer 1
10
36.357800
20
43.217200
11
36.357800
21
42.305600
0
LINE
8
Layer 1
10
35.685800
20
31.552400
11
35.255500
21
31.552400
0
LINE
8
Layer 1
10
35.255500
20
31.552400
11
35.255500
21
32.878900
0
LINE
8
Layer 1
10
35.255500
20
32.878900
11
33.320500
21
32.878900
0
LINE
8
Layer 1
10
33.320500
20
32.878900
11
31.976300
21
32.878900
0
LINE
8
Layer 1
10
31.976300
20
32.878900
11
31.545900
21
32.878900
0
LINE
8
Layer 1
10
31.545900
20
32.878900
11
31.326600
21
32.878900
0
LINE
8
Layer 1
10
31.326600
20
32.878900
11
31.304300
21
32.878900
0
LINE
8
Layer 1
10
31.304300
20
32.878900
11
31.304300
21
31.552400
0
LINE
8
Layer 1
10
31.304300
20
31.552400
11
31.059100
21
31.552400
0
LINE
8
Layer 1
10
31.059100
20
31.552400
11
30.873700
21
31.552400
0
LINE
8
Layer 1
10
30.873700
20
31.552400
11
30.873700
21
32.464000
0
LINE
8
Layer 1
10
30.873700
20
32.464000
11
30.551100
21
32.464000
0
LINE
8
Layer 1
10
30.551100
20
32.464000
11
30.127800
21
32.464000
0
LINE
8
Layer 1
10
30.127800
20
32.464000
11
29.640900
21
32.464000
0
LINE
8
Layer 1
10
29.640900
20
32.464000
11
29.408100
21
32.464000
0
LINE
8
Layer 1
10
29.408100
20
32.464000
11
28.968700
21
32.464000
0
LINE
8
Layer 1
10
28.968700
20
32.464000
11
28.968700
21
31.552400
0
LINE
8
Layer 1
10
28.968700
20
31.552400
11
28.735800
21
31.552400
0
LINE
8
Layer 1
10
28.735800
20
31.552400
11
28.735800
21
30.766400
0
LINE
8
Layer 1
10
28.735800
20
30.766400
11
28.968700
21
30.766400
0
LINE
8
Layer 1
10
28.968700
20
30.766400
11
28.968700
21
28.992700
0
LINE
8
Layer 1
10
28.968700
20
28.992700
11
29.408100
21
28.992700
0
LINE
8
Layer 1
10
29.408100
20
28.992700
11
29.455500
21
28.992700
0
LINE
8
Layer 1
10
29.455500
20
28.992700
11
29.455500
21
28.654000
0
LINE
8
Layer 1
10
29.455500
20
28.654000
11
29.640900
21
28.654000
0
LINE
8
Layer 1
10
29.640900
20
28.654000
11
30.127800
21
28.654000
0
LINE
8
Layer 1
10
30.127800
20
28.654000
11
30.386800
21
28.654000
0
LINE
8
Layer 1
10
30.386800
20
28.654000
11
30.386800
21
28.992700
0
LINE
8
Layer 1
10
30.386800
20
28.992700
11
30.551100
21
28.992700
0
LINE
8
Layer 1
10
30.551100
20
28.992700
11
30.873700
21
28.992700
0
LINE
8
Layer 1
10
30.873700
20
28.992700
11
30.873700
21
30.254200
0
LINE
8
Layer 1
10
30.873700
20
30.254200
11
31.059100
21
30.254200
0
LINE
8
Layer 1
10
31.059100
20
30.254200
11
31.223100
21
30.254200
0
LINE
8
Layer 1
10
31.223100
20
30.254200
11
31.304300
21
30.254200
0
LINE
8
Layer 1
10
31.304300
20
30.254200
11
31.304300
21
28.927700
0
LINE
8
Layer 1
10
31.304300
20
28.927700
11
31.326600
21
28.927700
0
LINE
8
Layer 1
10
31.326600
20
28.927700
11
31.545900
21
28.927700
0
LINE
8
Layer 1
10
31.545900
20
28.927700
11
31.976300
21
28.927700
0
LINE
8
Layer 1
10
31.976300
20
28.927700
11
33.239300
21
28.927700
0
LINE
8
Layer 1
10
33.239300
20
28.927700
11
33.320500
21
28.927700
0
LINE
8
Layer 1
10
33.320500
20
28.927700
11
34.664500
21
28.927700
0
LINE
8
Layer 1
10
34.664500
20
28.927700
11
35.255500
21
28.927700
0
LINE
8
Layer 1
10
35.255500
20
28.927700
11
35.255500
21
30.254200
0
LINE
8
Layer 1
10
35.255500
20
30.254200
11
35.685800
21
30.254200
0
LINE
8
Layer 1
10
35.685800
20
30.254200
11
35.685800
21
28.992700
0
LINE
8
Layer 1
10
35.685800
20
28.992700
11
35.927400
21
28.992700
0
LINE
8
Layer 1
10
35.927400
20
28.992700
11
36.172700
21
28.992700
0
LINE
8
Layer 1
10
36.172700
20
28.992700
11
36.172700
21
28.654000
0
LINE
8
Layer 1
10
36.172700
20
28.654000
11
36.357800
21
28.654000
0
LINE
8
Layer 1
10
36.357800
20
28.654000
11
36.844600
21
28.654000
0
LINE
8
Layer 1
10
36.844600
20
28.654000
11
37.104000
21
28.654000
0
LINE
8
Layer 1
10
37.104000
20
28.654000
11
37.104000
21
28.992700
0
LINE
8
Layer 1
10
37.104000
20
28.992700
11
37.271400
21
28.992700
0
LINE
8
Layer 1
10
37.271400
20
28.992700
11
37.590800
21
28.992700
0
LINE
8
Layer 1
10
37.590800
20
28.992700
11
37.590800
21
30.766400
0
LINE
8
Layer 1
10
37.590800
20
30.766400
11
37.776000
21
30.766400
0
LINE
8
Layer 1
10
37.776000
20
30.766400
11
37.823700
21
30.766400
0
LINE
8
Layer 1
10
37.823700
20
30.766400
11
37.823700
21
31.552400
0
LINE
8
Layer 1
10
37.823700
20
31.552400
11
37.776000
21
31.552400
0
LINE
8
Layer 1
10
37.776000
20
31.552400
11
37.590800
21
31.552400
0
LINE
8
Layer 1
10
37.590800
20
31.552400
11
37.590800
21
32.464000
0
LINE
8
Layer 1
10
37.590800
20
32.464000
11
37.271400
21
32.464000
0
LINE
8
Layer 1
10
37.271400
20
32.464000
11
36.844600
21
32.464000
0
LINE
8
Layer 1
10
36.844600
20
32.464000
11
36.357800
21
32.464000
0
LINE
8
Layer 1
10
36.357800
20
32.464000
11
35.927400
21
32.464000
0
LINE
8
Layer 1
10
35.927400
20
32.464000
11
35.685800
21
32.464000
0
LINE
8
Layer 1
10
35.685800
20
32.464000
11
35.685800
21
31.552400
0
LINE
8
Layer 1
10
-2.804720
20
22.060700
11
-2.970390
21
22.060700
0
LINE
8
Layer 1
10
-2.970390
20
22.060700
11
-3.051670
21
22.060700
0
LINE
8
Layer 1
10
-3.051670
20
22.060700
11
-3.291560
21
22.060700
0
LINE
8
Layer 1
10
-3.291560
20
22.060700
11
-3.291560
21
20.287000
0
LINE
8
Layer 1
10
-3.291560
20
20.287000
11
-3.524390
21
20.287000
0
LINE
8
Layer 1
10
-3.524390
20
20.287000
11
-3.524390
21
19.501000
0
LINE
8
Layer 1
10
-3.524390
20
19.501000
11
-3.291560
21
19.501000
0
LINE
8
Layer 1
10
-3.291560
20
19.501000
11
-3.291560
21
18.589400
0
LINE
8
Layer 1
10
-3.291560
20
18.589400
11
-2.970390
21
18.589400
0
LINE
8
Layer 1
10
-2.970390
20
18.589400
11
-1.707440
21
18.589400
0
LINE
8
Layer 1
10
-1.707440
20
18.589400
11
-1.386560
21
18.589400
0
LINE
8
Layer 1
10
-1.386560
20
18.589400
11
-1.386560
21
19.501000
0
LINE
8
Layer 1
10
-1.386560
20
19.501000
11
-0.282222
21
19.501000
0
LINE
8
Layer 1
10
-0.282222
20
19.501000
11
0.980721
21
19.501000
0
LINE
8
Layer 1
10
0.980721
20
19.501000
11
1.061720
21
19.501000
0
LINE
8
Layer 1
10
1.061720
20
19.501000
11
1.061720
21
18.174200
0
LINE
8
Layer 1
10
1.061720
20
18.174200
11
2.405940
21
18.174200
0
LINE
8
Layer 1
10
2.405940
20
18.174200
11
3.668890
21
18.174200
0
LINE
8
Layer 1
10
3.668890
20
18.174200
11
5.013110
21
18.174200
0
LINE
8
Layer 1
10
5.013110
20
18.174200
11
5.013110
21
19.501000
0
LINE
8
Layer 1
10
5.013110
20
19.501000
11
5.094110
21
19.501000
0
LINE
8
Layer 1
10
5.094110
20
19.501000
11
6.357050
21
19.501000
0
LINE
8
Layer 1
10
6.357050
20
19.501000
11
7.461390
21
19.501000
0
LINE
8
Layer 1
10
7.461390
20
19.501000
11
7.461390
21
18.589400
0
LINE
8
Layer 1
10
7.461390
20
18.589400
11
7.782270
21
18.589400
0
LINE
8
Layer 1
10
7.782270
20
18.589400
11
8.748880
21
18.589400
0
LINE
8
Layer 1
10
8.748880
20
18.589400
11
9.045210
21
18.589400
0
LINE
8
Layer 1
10
9.045210
20
18.589400
11
9.366380
21
18.589400
0
LINE
8
Layer 1
10
9.366380
20
18.589400
11
9.366380
21
19.501000
0
LINE
8
Layer 1
10
9.366380
20
19.501000
11
9.599220
21
19.501000
0
LINE
8
Layer 1
10
9.599220
20
19.501000
11
9.599220
21
20.287000
0
LINE
8
Layer 1
10
9.599220
20
20.287000
11
9.366380
21
20.287000
0
LINE
8
Layer 1
10
9.366380
20
20.287000
11
9.366380
21
22.060700
0
LINE
8
Layer 1
10
9.366380
20
22.060700
11
9.126500
21
22.060700
0
LINE
8
Layer 1
10
9.126500
20
22.060700
11
9.045210
21
22.060700
0
LINE
8
Layer 1
10
9.045210
20
22.060700
11
8.879550
21
22.060700
0
LINE
8
Layer 1
10
8.879550
20
22.060700
11
8.879550
21
22.399400
0
LINE
8
Layer 1
10
8.879550
20
22.399400
11
8.748880
21
22.399400
0
LINE
8
Layer 1
10
8.748880
20
22.399400
11
7.948220
21
22.399400
0
LINE
8
Layer 1
10
7.948220
20
22.399400
11
7.948220
21
22.060700
0
LINE
8
Layer 1
10
7.948220
20
22.060700
11
7.782270
21
22.060700
0
LINE
8
Layer 1
10
7.782270
20
22.060700
11
7.701270
21
22.060700
0
LINE
8
Layer 1
10
7.701270
20
22.060700
11
7.461390
21
22.060700
0
LINE
8
Layer 1
10
7.461390
20
22.060700
11
7.461390
21
20.799200
0
LINE
8
Layer 1
10
7.461390
20
20.799200
11
6.438330
21
20.799200
0
LINE
8
Layer 1
10
6.438330
20
20.799200
11
6.357050
21
20.799200
0
LINE
8
Layer 1
10
6.357050
20
20.799200
11
5.094110
21
20.799200
0
LINE
8
Layer 1
10
5.094110
20
20.799200
11
5.013110
21
20.799200
0
LINE
8
Layer 1
10
5.013110
20
20.799200
11
5.013110
21
22.125600
0
LINE
8
Layer 1
10
5.013110
20
22.125600
11
3.750170
21
22.125600
0
LINE
8
Layer 1
10
3.750170
20
22.125600
11
3.668890
21
22.125600
0
LINE
8
Layer 1
10
3.668890
20
22.125600
11
2.405940
21
22.125600
0
LINE
8
Layer 1
10
2.405940
20
22.125600
11
2.324940
21
22.125600
0
LINE
8
Layer 1
10
2.324940
20
22.125600
11
1.061720
21
22.125600
0
LINE
8
Layer 1
10
1.061720
20
22.125600
11
1.061720
21
20.799200
0
LINE
8
Layer 1
10
1.061720
20
20.799200
11
0.980721
21
20.799200
0
LINE
8
Layer 1
10
0.980721
20
20.799200
11
-0.282222
21
20.799200
0
LINE
8
Layer 1
10
-0.282222
20
20.799200
11
-0.363502
21
20.799200
0
LINE
8
Layer 1
10
-0.363502
20
20.799200
11
-1.386560
21
20.799200
0
LINE
8
Layer 1
10
-1.386560
20
20.799200
11
-1.386560
21
22.060700
0
LINE
8
Layer 1
10
-1.386560
20
22.060700
11
-1.626450
21
22.060700
0
LINE
8
Layer 1
10
-1.626450
20
22.060700
11
-1.707440
21
22.060700
0
LINE
8
Layer 1
10
-1.707440
20
22.060700
11
-1.873390
21
22.060700
0
LINE
8
Layer 1
10
-1.873390
20
22.060700
11
-1.873390
21
22.399400
0
LINE
8
Layer 1
10
-1.873390
20
22.399400
11
-2.804720
21
22.399400
0
LINE
8
Layer 1
10
-2.804720
20
22.399400
11
-2.804720
21
22.060700
0
LINE
8
Layer 1
10
-32.863600
20
26.175800
11
-33.294000
21
26.175800
0
LINE
8
Layer 1
10
-33.294000
20
26.175800
11
-33.294000
21
27.502200
0
LINE
8
Layer 1
10
-33.294000
20
27.502200
11
-34.638000
21
27.502200
0
LINE
8
Layer 1
10
-34.638000
20
27.502200
11
-35.228900
21
27.502200
0
LINE
8
Layer 1
10
-35.228900
20
27.502200
11
-35.310200
21
27.502200
0
LINE
8
Layer 1
10
-35.310200
20
27.502200
11
-36.654100
21
27.502200
0
LINE
8
Layer 1
10
-36.654100
20
27.502200
11
-36.971100
21
27.502200
0
LINE
8
Layer 1
10
-36.971100
20
27.502200
11
-37.245100
21
27.502200
0
LINE
8
Layer 1
10
-37.245100
20
27.502200
11
-37.245100
21
26.175800
0
LINE
8
Layer 1
10
-37.245100
20
26.175800
11
-37.675500
21
26.175800
0
LINE
8
Layer 1
10
-37.675500
20
26.175800
11
-37.675500
21
27.087400
0
LINE
8
Layer 1
10
-37.675500
20
27.087400
11
-38.589100
21
27.087400
0
LINE
8
Layer 1
10
-38.589100
20
27.087400
11
-39.228900
21
27.087400
0
LINE
8
Layer 1
10
-39.228900
20
27.087400
11
-39.261300
21
27.087400
0
LINE
8
Layer 1
10
-39.261300
20
27.087400
11
-39.580500
21
27.087400
0
LINE
8
Layer 1
10
-39.580500
20
27.087400
11
-39.580500
21
26.175800
0
LINE
8
Layer 1
10
-39.580500
20
26.175800
11
-39.813300
21
26.175800
0
LINE
8
Layer 1
10
-39.813300
20
26.175800
11
-39.813300
21
25.389800
0
LINE
8
Layer 1
10
-39.813300
20
25.389800
11
-39.580500
21
25.389800
0
LINE
8
Layer 1
10
-39.580500
20
25.389800
11
-39.580500
21
23.616000
0
LINE
8
Layer 1
10
-39.580500
20
23.616000
11
-39.261300
21
23.616000
0
LINE
8
Layer 1
10
-39.261300
20
23.616000
11
-39.228900
21
23.616000
0
LINE
8
Layer 1
10
-39.228900
20
23.616000
11
-39.093700
21
23.616000
0
LINE
8
Layer 1
10
-39.093700
20
23.616000
11
-39.093700
21
23.277100
0
LINE
8
Layer 1
10
-39.093700
20
23.277100
11
-38.162300
21
23.277100
0
LINE
8
Layer 1
10
-38.162300
20
23.277100
11
-38.162300
21
23.616000
0
LINE
8
Layer 1
10
-38.162300
20
23.616000
11
-37.675500
21
23.616000
0
LINE
8
Layer 1
10
-37.675500
20
23.616000
11
-37.675500
21
24.877600
0
LINE
8
Layer 1
10
-37.675500
20
24.877600
11
-37.245100
21
24.877600
0
LINE
8
Layer 1
10
-37.245100
20
24.877600
11
-37.245100
21
23.551100
0
LINE
8
Layer 1
10
-37.245100
20
23.551100
11
-36.971100
21
23.551100
0
LINE
8
Layer 1
10
-36.971100
20
23.551100
11
-36.654100
21
23.551100
0
LINE
8
Layer 1
10
-36.654100
20
23.551100
11
-35.982200
21
23.551100
0
LINE
8
Layer 1
10
-35.982200
20
23.551100
11
-35.310200
21
23.551100
0
LINE
8
Layer 1
10
-35.310200
20
23.551100
11
-35.228900
21
23.551100
0
LINE
8
Layer 1
10
-35.228900
20
23.551100
11
-33.294000
21
23.551100
0
LINE
8
Layer 1
10
-33.294000
20
23.551100
11
-33.294000
21
24.877600
0
LINE
8
Layer 1
10
-33.294000
20
24.877600
11
-33.213000
21
24.877600
0
LINE
8
Layer 1
10
-33.213000
20
24.877600
11
-32.863600
21
24.877600
0
LINE
8
Layer 1
10
-32.863600
20
24.877600
11
-32.863600
21
23.616000
0
LINE
8
Layer 1
10
-32.863600
20
23.616000
11
-32.540800
21
23.616000
0
LINE
8
Layer 1
10
-32.540800
20
23.616000
11
-32.376800
21
23.616000
0
LINE
8
Layer 1
10
-32.376800
20
23.616000
11
-32.376800
21
23.277100
0
LINE
8
Layer 1
10
-32.376800
20
23.277100
11
-31.445500
21
23.277100
0
LINE
8
Layer 1
10
-31.445500
20
23.277100
11
-31.445500
21
23.616000
0
LINE
8
Layer 1
10
-31.445500
20
23.616000
11
-31.277800
21
23.616000
0
LINE
8
Layer 1
10
-31.277800
20
23.616000
11
-30.958600
21
23.616000
0
LINE
8
Layer 1
10
-30.958600
20
23.616000
11
-30.958600
21
25.389800
0
LINE
8
Layer 1
10
-30.958600
20
25.389800
11
-30.725800
21
25.389800
0
LINE
8
Layer 1
10
-30.725800
20
25.389800
11
-30.725800
21
26.175800
0
LINE
8
Layer 1
10
-30.725800
20
26.175800
11
-30.958600
21
26.175800
0
LINE
8
Layer 1
10
-30.958600
20
26.175800
11
-30.958600
21
27.087400
0
LINE
8
Layer 1
10
-30.958600
20
27.087400
11
-31.196500
21
27.087400
0
LINE
8
Layer 1
10
-31.196500
20
27.087400
11
-31.277800
21
27.087400
0
LINE
8
Layer 1
10
-31.277800
20
27.087400
11
-32.540800
21
27.087400
0
LINE
8
Layer 1
10
-32.540800
20
27.087400
11
-32.863600
21
27.087400
0
LINE
8
Layer 1
10
-32.863600
20
27.087400
11
-32.863600
21
26.175800
0
LINE
8
Layer 1
10
-18.934000
20
22.060700
11
-19.099700
21
22.060700
0
LINE
8
Layer 1
10
-19.099700
20
22.060700
11
-19.180900
21
22.060700
0
LINE
8
Layer 1
10
-19.180900
20
22.060700
11
-19.420800
21
22.060700
0
LINE
8
Layer 1
10
-19.420800
20
22.060700
11
-19.420800
21
20.287000
0
LINE
8
Layer 1
10
-19.420800
20
20.287000
11
-19.653700
21
20.287000
0
LINE
8
Layer 1
10
-19.653700
20
20.287000
11
-19.653700
21
19.501000
0
LINE
8
Layer 1
10
-19.653700
20
19.501000
11
-19.420800
21
19.501000
0
LINE
8
Layer 1
10
-19.420800
20
19.501000
11
-19.420800
21
18.589400
0
LINE
8
Layer 1
10
-19.420800
20
18.589400
11
-19.099700
21
18.589400
0
LINE
8
Layer 1
10
-19.099700
20
18.589400
11
-17.836700
21
18.589400
0
LINE
8
Layer 1
10
-17.836700
20
18.589400
11
-17.515800
21
18.589400
0
LINE
8
Layer 1
10
-17.515800
20
18.589400
11
-17.515800
21
19.501000
0
LINE
8
Layer 1
10
-17.515800
20
19.501000
11
-16.411500
21
19.501000
0
LINE
8
Layer 1
10
-16.411500
20
19.501000
11
-15.148500
21
19.501000
0
LINE
8
Layer 1
10
-15.148500
20
19.501000
11
-15.067300
21
19.501000
0
LINE
8
Layer 1
10
-15.067300
20
19.501000
11
-15.067300
21
18.174200
0
LINE
8
Layer 1
10
-15.067300
20
18.174200
11
-13.723300
21
18.174200
0
LINE
8
Layer 1
10
-13.723300
20
18.174200
11
-12.460400
21
18.174200
0
LINE
8
Layer 1
10
-12.460400
20
18.174200
11
-11.116200
21
18.174200
0
LINE
8
Layer 1
10
-11.116200
20
18.174200
11
-11.116200
21
19.501000
0
LINE
8
Layer 1
10
-11.116200
20
19.501000
11
-11.035200
21
19.501000
0
LINE
8
Layer 1
10
-11.035200
20
19.501000
11
-9.772220
21
19.501000
0
LINE
8
Layer 1
10
-9.772220
20
19.501000
11
-8.667880
21
19.501000
0
LINE
8
Layer 1
10
-8.667880
20
19.501000
11
-8.667880
21
18.589400
0
LINE
8
Layer 1
10
-8.667880
20
18.589400
11
-8.347000
21
18.589400
0
LINE
8
Layer 1
10
-8.347000
20
18.589400
11
-7.084050
21
18.589400
0
LINE
8
Layer 1
10
-7.084050
20
18.589400
11
-6.762890
21
18.589400
0
LINE
8
Layer 1
10
-6.762890
20
18.589400
11
-6.762890
21
19.501000
0
LINE
8
Layer 1
10
-6.762890
20
19.501000
11
-6.530050
21
19.501000
0
LINE
8
Layer 1
10
-6.530050
20
19.501000
11
-6.530050
21
20.287000
0
LINE
8
Layer 1
10
-6.530050
20
20.287000
11
-6.762890
21
20.287000
0
LINE
8
Layer 1
10
-6.762890
20
20.287000
11
-6.762890
21
22.060700
0
LINE
8
Layer 1
10
-6.762890
20
22.060700
11
-7.002770
21
22.060700
0
LINE
8
Layer 1
10
-7.002770
20
22.060700
11
-7.084050
21
22.060700
0
LINE
8
Layer 1
10
-7.084050
20
22.060700
11
-7.249720
21
22.060700
0
LINE
8
Layer 1
10
-7.249720
20
22.060700
11
-7.249720
21
22.399400
0
LINE
8
Layer 1
10
-7.249720
20
22.399400
11
-8.181050
21
22.399400
0
LINE
8
Layer 1
10
-8.181050
20
22.399400
11
-8.181050
21
22.060700
0
LINE
8
Layer 1
10
-8.181050
20
22.060700
11
-8.347000
21
22.060700
0
LINE
8
Layer 1
10
-8.347000
20
22.060700
11
-8.428000
21
22.060700
0
LINE
8
Layer 1
10
-8.428000
20
22.060700
11
-8.667880
21
22.060700
0
LINE
8
Layer 1
10
-8.667880
20
22.060700
11
-8.667880
21
20.799200
0
LINE
8
Layer 1
10
-8.667880
20
20.799200
11
-9.690940
21
20.799200
0
LINE
8
Layer 1
10
-9.690940
20
20.799200
11
-9.772220
21
20.799200
0
LINE
8
Layer 1
10
-9.772220
20
20.799200
11
-11.035200
21
20.799200
0
LINE
8
Layer 1
10
-11.035200
20
20.799200
11
-11.116200
21
20.799200
0
LINE
8
Layer 1
10
-11.116200
20
20.799200
11
-11.116200
21
22.125600
0
LINE
8
Layer 1
10
-11.116200
20
22.125600
11
-12.379100
21
22.125600
0
LINE
8
Layer 1
10
-12.379100
20
22.125600
11
-12.460400
21
22.125600
0
LINE
8
Layer 1
10
-12.460400
20
22.125600
11
-13.723300
21
22.125600
0
LINE
8
Layer 1
10
-13.723300
20
22.125600
11
-13.804300
21
22.125600
0
LINE
8
Layer 1
10
-13.804300
20
22.125600
11
-15.067300
21
22.125600
0
LINE
8
Layer 1
10
-15.067300
20
22.125600
11
-15.067300
21
20.799200
0
LINE
8
Layer 1
10
-15.067300
20
20.799200
11
-15.148500
21
20.799200
0
LINE
8
Layer 1
10
-15.148500
20
20.799200
11
-16.411500
21
20.799200
0
LINE
8
Layer 1
10
-16.411500
20
20.799200
11
-16.492800
21
20.799200
0
LINE
8
Layer 1
10
-16.492800
20
20.799200
11
-17.515800
21
20.799200
0
LINE
8
Layer 1
10
-17.515800
20
20.799200
11
-17.515800
21
22.060700
0
LINE
8
Layer 1
10
-17.515800
20
22.060700
11
-17.755700
21
22.060700
0
LINE
8
Layer 1
10
-17.755700
20
22.060700
11
-17.836700
21
22.060700
0
LINE
8
Layer 1
10
-17.836700
20
22.060700
11
-18.002700
21
22.060700
0
LINE
8
Layer 1
10
-18.002700
20
22.060700
11
-18.002700
21
22.399400
0
LINE
8
Layer 1
10
-18.002700
20
22.399400
11
-18.934000
21
22.399400
0
LINE
8
Layer 1
10
-18.934000
20
22.399400
11
-18.934000
21
22.060700
0
LINE
8
Layer 1
10
40.040800
20
18.174200
11
40.357700
21
18.174200
0
LINE
8
Layer 1
10
40.357700
20
18.174200
11
42.615500
21
18.174200
0
LINE
8
Layer 1
10
42.615500
20
18.174200
11
43.992200
21
18.174200
0
LINE
8
Layer 1
10
43.992200
20
18.174200
11
43.992200
21
22.125600
0
LINE
8
Layer 1
10
43.992200
20
22.125600
11
42.615500
21
22.125600
0
LINE
8
Layer 1
10
42.615500
20
22.125600
11
40.357700
21
22.125600
0
LINE
8
Layer 1
10
40.357700
20
22.125600
11
40.040800
21
22.125600
0
LINE
8
Layer 1
10
40.040800
20
22.125600
11
40.040800
21
18.174200
0
LINE
8
Layer 1
10
-2.804720
20
32.878900
11
-2.970390
21
32.878900
0
LINE
8
Layer 1
10
-2.970390
20
32.878900
11
-3.291560
21
32.878900
0
LINE
8
Layer 1
10
-3.291560
20
32.878900
11
-3.524390
21
32.878900
0
LINE
8
Layer 1
10
-3.524390
20
32.878900
11
-4.314610
21
32.878900
0
LINE
8
Layer 1
10
-4.314610
20
32.878900
11
-4.314610
21
28.927700
0
LINE
8
Layer 1
10
-4.314610
20
28.927700
11
-3.524390
21
28.927700
0
LINE
8
Layer 1
10
-3.524390
20
28.927700
11
-3.291560
21
28.927700
0
LINE
8
Layer 1
10
-3.291560
20
28.927700
11
-3.051670
21
28.927700
0
LINE
8
Layer 1
10
-3.051670
20
28.927700
11
-2.970390
21
28.927700
0
LINE
8
Layer 1
10
-2.970390
20
28.927700
11
-2.804720
21
28.927700
0
LINE
8
Layer 1
10
-2.804720
20
28.927700
11
-1.873390
21
28.927700
0
LINE
8
Layer 1
10
-1.873390
20
28.927700
11
-1.707440
21
28.927700
0
LINE
8
Layer 1
10
-1.707440
20
28.927700
11
-1.626450
21
28.927700
0
LINE
8
Layer 1
10
-1.626450
20
28.927700
11
-1.386560
21
28.927700
0
LINE
8
Layer 1
10
-1.386560
20
28.927700
11
-0.363502
21
28.927700
0
LINE
8
Layer 1
10
-0.363502
20
28.927700
11
-0.363502
21
32.878900
0
LINE
8
Layer 1
10
-0.363502
20
32.878900
11
-1.386560
21
32.878900
0
LINE
8
Layer 1
10
-1.386560
20
32.878900
11
-1.707440
21
32.878900
0
LINE
8
Layer 1
10
-1.707440
20
32.878900
11
-1.873390
21
32.878900
0
LINE
8
Layer 1
10
-1.873390
20
32.878900
11
-2.804720
21
32.878900
0
LINE
8
Layer 1
10
-1.707440
20
34.304400
11
-1.707440
21
38.255500
0
LINE
8
Layer 1
10
-1.707440
20
38.255500
11
-2.970390
21
38.255500
0
LINE
8
Layer 1
10
-2.970390
20
38.255500
11
-4.395610
21
38.255500
0
LINE
8
Layer 1
10
-4.395610
20
38.255500
11
-5.362220
21
38.255500
0
LINE
8
Layer 1
10
-5.362220
20
38.255500
11
-5.658550
21
38.255500
0
LINE
8
Layer 1
10
-5.658550
20
38.255500
11
-5.658550
21
34.304400
0
LINE
8
Layer 1
10
-5.658550
20
34.304400
11
-5.362220
21
34.304400
0
LINE
8
Layer 1
10
-5.362220
20
34.304400
11
-4.395610
21
34.304400
0
LINE
8
Layer 1
10
-4.395610
20
34.304400
11
-4.314610
21
34.304400
0
LINE
8
Layer 1
10
-4.314610
20
34.304400
11
-3.524390
21
34.304400
0
LINE
8
Layer 1
10
-3.524390
20
34.304400
11
-3.291560
21
34.304400
0
LINE
8
Layer 1
10
-3.291560
20
34.304400
11
-2.970390
21
34.304400
0
LINE
8
Layer 1
10
-2.970390
20
34.304400
11
-2.804720
21
34.304400
0
LINE
8
Layer 1
10
-2.804720
20
34.304400
11
-1.873390
21
34.304400
0
LINE
8
Layer 1
10
-1.873390
20
34.304400
11
-1.707440
21
34.304400
0
LINE
8
Layer 1
10
-0.282222
20
39.681000
11
0.980721
21
39.681000
0
LINE
8
Layer 1
10
0.980721
20
39.681000
11
0.980721
21
43.632100
0
LINE
8
Layer 1
10
0.980721
20
43.632100
11
-2.970390
21
43.632100
0
LINE
8
Layer 1
10
-2.970390
20
43.632100
11
-2.970390
21
39.681000
0
LINE
8
Layer 1
10
-2.970390
20
39.681000
11
-1.707440
21
39.681000
0
LINE
8
Layer 1
10
-1.707440
20
39.681000
11
-1.386560
21
39.681000
0
LINE
8
Layer 1
10
-1.386560
20
39.681000
11
-0.363502
21
39.681000
0
LINE
8
Layer 1
10
-0.363502
20
39.681000
11
-0.282222
21
39.681000
0
LINE
8
Layer 1
10
-3.051670
20
27.502200
11
-3.291560
21
27.502200
0
LINE
8
Layer 1
10
-3.291560
20
27.502200
11
-3.524390
21
27.502200
0
LINE
8
Layer 1
10
-3.524390
20
27.502200
11
-4.314610
21
27.502200
0
LINE
8
Layer 1
10
-4.314610
20
27.502200
11
-4.395610
21
27.502200
0
LINE
8
Layer 1
10
-4.395610
20
27.502200
11
-5.362220
21
27.502200
0
LINE
8
Layer 1
10
-5.362220
20
27.502200
11
-5.658550
21
27.502200
0
LINE
8
Layer 1
10
-5.658550
20
27.502200
11
-5.739830
21
27.502200
0
LINE
8
Layer 1
10
-5.739830
20
27.502200
11
-6.530050
21
27.502200
0
LINE
8
Layer 1
10
-6.530050
20
27.502200
11
-6.762890
21
27.502200
0
LINE
8
Layer 1
10
-6.762890
20
27.502200
11
-7.002770
21
27.502200
0
LINE
8
Layer 1
10
-7.002770
20
27.502200
11
-7.002770
21
23.551100
0
LINE
8
Layer 1
10
-7.002770
20
23.551100
11
-6.762890
21
23.551100
0
LINE
8
Layer 1
10
-6.762890
20
23.551100
11
-6.530050
21
23.551100
0
LINE
8
Layer 1
10
-6.530050
20
23.551100
11
-5.739830
21
23.551100
0
LINE
8
Layer 1
10
-5.739830
20
23.551100
11
-5.658550
21
23.551100
0
LINE
8
Layer 1
10
-5.658550
20
23.551100
11
-5.362220
21
23.551100
0
LINE
8
Layer 1
10
-5.362220
20
23.551100
11
-4.395610
21
23.551100
0
LINE
8
Layer 1
10
-4.395610
20
23.551100
11
-4.314610
21
23.551100
0
LINE
8
Layer 1
10
-4.314610
20
23.551100
11
-3.524390
21
23.551100
0
LINE
8
Layer 1
10
-3.524390
20
23.551100
11
-3.291560
21
23.551100
0
LINE
8
Layer 1
10
-3.291560
20
23.551100
11
-3.051670
21
23.551100
0
LINE
8
Layer 1
10
-3.051670
20
23.551100
11
-3.051670
21
27.502200
0
LINE
8
Layer 1
10
2.405940
20
28.927700
11
3.668890
21
28.927700
0
LINE
8
Layer 1
10
3.668890
20
28.927700
11
3.750170
21
28.927700
0
LINE
8
Layer 1
10
3.750170
20
28.927700
11
5.013110
21
28.927700
0
LINE
8
Layer 1
10
5.013110
20
28.927700
11
5.013110
21
32.878900
0
LINE
8
Layer 1
10
5.013110
20
32.878900
11
3.668890
21
32.878900
0
LINE
8
Layer 1
10
3.668890
20
32.878900
11
2.405940
21
32.878900
0
LINE
8
Layer 1
10
2.405940
20
32.878900
11
1.061720
21
32.878900
0
LINE
8
Layer 1
10
1.061720
20
32.878900
11
1.061720
21
28.927700
0
LINE
8
Layer 1
10
1.061720
20
28.927700
11
2.324940
21
28.927700
0
LINE
8
Layer 1
10
2.324940
20
28.927700
11
2.405940
21
28.927700
0
LINE
8
Layer 1
10
2.324940
20
27.502200
11
1.061720
21
27.502200
0
LINE
8
Layer 1
10
1.061720
20
27.502200
11
0.980721
21
27.502200
0
LINE
8
Layer 1
10
0.980721
20
27.502200
11
-0.282222
21
27.502200
0
LINE
8
Layer 1
10
-0.282222
20
27.502200
11
-0.363502
21
27.502200
0
LINE
8
Layer 1
10
-0.363502
20
27.502200
11
-1.386560
21
27.502200
0
LINE
8
Layer 1
10
-1.386560
20
27.502200
11
-1.626450
21
27.502200
0
LINE
8
Layer 1
10
-1.626450
20
27.502200
11
-1.626450
21
23.551100
0
LINE
8
Layer 1
10
-1.626450
20
23.551100
11
-1.386560
21
23.551100
0
LINE
8
Layer 1
10
-1.386560
20
23.551100
11
-0.363502
21
23.551100
0
LINE
8
Layer 1
10
-0.363502
20
23.551100
11
-0.282222
21
23.551100
0
LINE
8
Layer 1
10
-0.282222
20
23.551100
11
0.980721
21
23.551100
0
LINE
8
Layer 1
10
0.980721
20
23.551100
11
1.061720
21
23.551100
0
LINE
8
Layer 1
10
1.061720
20
23.551100
11
2.324940
21
23.551100
0
LINE
8
Layer 1
10
2.324940
20
23.551100
11
2.324940
21
27.502200
0
LINE
8
Layer 1
10
7.461390
20
34.304400
11
7.782270
21
34.304400
0
LINE
8
Layer 1
10
7.782270
20
34.304400
11
7.948220
21
34.304400
0
LINE
8
Layer 1
10
7.948220
20
34.304400
11
8.748880
21
34.304400
0
LINE
8
Layer 1
10
8.748880
20
34.304400
11
8.879550
21
34.304400
0
LINE
8
Layer 1
10
8.879550
20
34.304400
11
9.045210
21
34.304400
0
LINE
8
Layer 1
10
9.045210
20
34.304400
11
9.045210
21
38.255500
0
LINE
8
Layer 1
10
9.045210
20
38.255500
11
8.748880
21
38.255500
0
LINE
8
Layer 1
10
8.748880
20
38.255500
11
7.782270
21
38.255500
0
LINE
8
Layer 1
10
7.782270
20
38.255500
11
6.357050
21
38.255500
0
LINE
8
Layer 1
10
6.357050
20
38.255500
11
5.094110
21
38.255500
0
LINE
8
Layer 1
10
5.094110
20
38.255500
11
5.094110
21
34.304400
0
LINE
8
Layer 1
10
5.094110
20
34.304400
11
6.357050
21
34.304400
0
LINE
8
Layer 1
10
6.357050
20
34.304400
11
6.438330
21
34.304400
0
LINE
8
Layer 1
10
6.438330
20
34.304400
11
7.461390
21
34.304400
0
LINE
8
Layer 1
10
7.701270
20
27.502200
11
7.461390
21
27.502200
0
LINE
8
Layer 1
10
7.461390
20
27.502200
11
6.438330
21
27.502200
0
LINE
8
Layer 1
10
6.438330
20
27.502200
11
6.357050
21
27.502200
0
LINE
8
Layer 1
10
6.357050
20
27.502200
11
5.094110
21
27.502200
0
LINE
8
Layer 1
10
5.094110
20
27.502200
11
5.013110
21
27.502200
0
LINE
8
Layer 1
10
5.013110
20
27.502200
11
3.750170
21
27.502200
0
LINE
8
Layer 1
10
3.750170
20
27.502200
11
3.750170
21
23.551100
0
LINE
8
Layer 1
10
3.750170
20
23.551100
11
5.013110
21
23.551100
0
LINE
8
Layer 1
10
5.013110
20
23.551100
11
5.094110
21
23.551100
0
LINE
8
Layer 1
10
5.094110
20
23.551100
11
6.357050
21
23.551100
0
LINE
8
Layer 1
10
6.357050
20
23.551100
11
6.438330
21
23.551100
0
LINE
8
Layer 1
10
6.438330
20
23.551100
11
7.461390
21
23.551100
0
LINE
8
Layer 1
10
7.461390
20
23.551100
11
7.701270
21
23.551100
0
LINE
8
Layer 1
10
7.701270
20
23.551100
11
7.701270
21
27.502200
0
LINE
8
Layer 1
10
8.879550
20
32.878900
11
8.748880
21
32.878900
0
LINE
8
Layer 1
10
8.748880
20
32.878900
11
7.948220
21
32.878900
0
LINE
8
Layer 1
10
7.948220
20
32.878900
11
7.782270
21
32.878900
0
LINE
8
Layer 1
10
7.782270
20
32.878900
11
7.461390
21
32.878900
0
LINE
8
Layer 1
10
7.461390
20
32.878900
11
6.438330
21
32.878900
0
LINE
8
Layer 1
10
6.438330
20
32.878900
11
6.438330
21
28.927700
0
LINE
8
Layer 1
10
6.438330
20
28.927700
11
7.461390
21
28.927700
0
LINE
8
Layer 1
10
7.461390
20
28.927700
11
7.701270
21
28.927700
0
LINE
8
Layer 1
10
7.701270
20
28.927700
11
7.782270
21
28.927700
0
LINE
8
Layer 1
10
7.782270
20
28.927700
11
7.948220
21
28.927700
0
LINE
8
Layer 1
10
7.948220
20
28.927700
11
8.748880
21
28.927700
0
LINE
8
Layer 1
10
8.748880
20
28.927700
11
8.879550
21
28.927700
0
LINE
8
Layer 1
10
8.879550
20
28.927700
11
9.045210
21
28.927700
0
LINE
8
Layer 1
10
9.045210
20
28.927700
11
9.126500
21
28.927700
0
LINE
8
Layer 1
10
9.126500
20
28.927700
11
9.366380
21
28.927700
0
LINE
8
Layer 1
10
9.366380
20
28.927700
11
9.599220
21
28.927700
0
LINE
8
Layer 1
10
9.599220
20
28.927700
11
10.389400
21
28.927700
0
LINE
8
Layer 1
10
10.389400
20
28.927700
11
10.389400
21
32.878900
0
LINE
8
Layer 1
10
10.389400
20
32.878900
11
9.599220
21
32.878900
0
LINE
8
Layer 1
10
9.599220
20
32.878900
11
9.366380
21
32.878900
0
LINE
8
Layer 1
10
9.366380
20
32.878900
11
9.045210
21
32.878900
0
LINE
8
Layer 1
10
9.045210
20
32.878900
11
8.879550
21
32.878900
0
LINE
8
Layer 1
10
13.158900
20
28.927700
11
14.421800
21
28.927700
0
LINE
8
Layer 1
10
14.421800
20
28.927700
11
14.502800
21
28.927700
0
LINE
8
Layer 1
10
14.502800
20
28.927700
11
15.765800
21
28.927700
0
LINE
8
Layer 1
10
15.765800
20
28.927700
11
15.765800
21
32.878900
0
LINE
8
Layer 1
10
15.765800
20
32.878900
11
14.421800
21
32.878900
0
LINE
8
Layer 1
10
14.421800
20
32.878900
11
13.158900
21
32.878900
0
LINE
8
Layer 1
10
13.158900
20
32.878900
11
12.486600
21
32.878900
0
LINE
8
Layer 1
10
12.486600
20
32.878900
11
11.814700
21
32.878900
0
LINE
8
Layer 1
10
11.814700
20
32.878900
11
11.814700
21
28.927700
0
LINE
8
Layer 1
10
11.814700
20
28.927700
11
12.486600
21
28.927700
0
LINE
8
Layer 1
10
12.486600
20
28.927700
11
13.077600
21
28.927700
0
LINE
8
Layer 1
10
13.077600
20
28.927700
11
13.158900
21
28.927700
0
LINE
8
Layer 1
10
15.847000
20
39.681000
11
17.110000
21
39.681000
0
LINE
8
Layer 1
10
17.110000
20
39.681000
11
17.110000
21
43.632100
0
LINE
8
Layer 1
10
17.110000
20
43.632100
11
13.158900
21
43.632100
0
LINE
8
Layer 1
10
13.158900
20
43.632100
11
13.158900
21
39.681000
0
LINE
8
Layer 1
10
13.158900
20
39.681000
11
14.421800
21
39.681000
0
LINE
8
Layer 1
10
14.421800
20
39.681000
11
15.765800
21
39.681000
0
LINE
8
Layer 1
10
15.765800
20
39.681000
11
15.847000
21
39.681000
0
LINE
8
Layer 1
10
13.077600
20
27.502200
11
12.486600
21
27.502200
0
LINE
8
Layer 1
10
12.486600
20
27.502200
11
11.814700
21
27.502200
0
LINE
8
Layer 1
10
11.814700
20
27.502200
11
11.733700
21
27.502200
0
LINE
8
Layer 1
10
11.733700
20
27.502200
11
10.470700
21
27.502200
0
LINE
8
Layer 1
10
10.470700
20
27.502200
11
10.389400
21
27.502200
0
LINE
8
Layer 1
10
10.389400
20
27.502200
11
9.599220
21
27.502200
0
LINE
8
Layer 1
10
9.599220
20
27.502200
11
9.366380
21
27.502200
0
LINE
8
Layer 1
10
9.366380
20
27.502200
11
9.126500
21
27.502200
0
LINE
8
Layer 1
10
9.126500
20
27.502200
11
9.126500
21
23.551100
0
LINE
8
Layer 1
10
9.126500
20
23.551100
11
9.366380
21
23.551100
0
LINE
8
Layer 1
10
9.366380
20
23.551100
11
9.599220
21
23.551100
0
LINE
8
Layer 1
10
9.599220
20
23.551100
11
10.389400
21
23.551100
0
LINE
8
Layer 1
10
10.389400
20
23.551100
11
10.470700
21
23.551100
0
LINE
8
Layer 1
10
10.470700
20
23.551100
11
11.733700
21
23.551100
0
LINE
8
Layer 1
10
11.733700
20
23.551100
11
11.814700
21
23.551100
0
LINE
8
Layer 1
10
11.814700
20
23.551100
11
12.486600
21
23.551100
0
LINE
8
Layer 1
10
12.486600
20
23.551100
11
13.077600
21
23.551100
0
LINE
8
Layer 1
10
13.077600
20
23.551100
11
13.077600
21
27.502200
0
LINE
8
Layer 1
10
31.304300
20
18.174200
11
31.326600
21
18.174200
0
LINE
8
Layer 1
10
31.326600
20
18.174200
11
31.545900
21
18.174200
0
LINE
8
Layer 1
10
31.545900
20
18.174200
11
31.976300
21
18.174200
0
LINE
8
Layer 1
10
31.976300
20
18.174200
11
33.239300
21
18.174200
0
LINE
8
Layer 1
10
33.239300
20
18.174200
11
33.239300
21
22.125600
0
LINE
8
Layer 1
10
33.239300
20
22.125600
11
31.976300
21
22.125600
0
LINE
8
Layer 1
10
31.976300
20
22.125600
11
31.545900
21
22.125600
0
LINE
8
Layer 1
10
31.545900
20
22.125600
11
31.326600
21
22.125600
0
LINE
8
Layer 1
10
31.326600
20
22.125600
11
31.304300
21
22.125600
0
LINE
8
Layer 1
10
31.304300
20
22.125600
11
31.223100
21
22.125600
0
LINE
8
Layer 1
10
31.223100
20
22.125600
11
31.059100
21
22.125600
0
LINE
8
Layer 1
10
31.059100
20
22.125600
11
30.873700
21
22.125600
0
LINE
8
Layer 1
10
30.873700
20
22.125600
11
30.551100
21
22.125600
0
LINE
8
Layer 1
10
30.551100
20
22.125600
11
30.386800
21
22.125600
0
LINE
8
Layer 1
10
30.386800
20
22.125600
11
30.127800
21
22.125600
0
LINE
8
Layer 1
10
30.127800
20
22.125600
11
29.640900
21
22.125600
0
LINE
8
Layer 1
10
29.640900
20
22.125600
11
29.455500
21
22.125600
0
LINE
8
Layer 1
10
29.455500
20
22.125600
11
29.408100
21
22.125600
0
LINE
8
Layer 1
10
29.408100
20
22.125600
11
29.288200
21
22.125600
0
LINE
8
Layer 1
10
29.288200
20
22.125600
11
29.288200
21
18.174200
0
LINE
8
Layer 1
10
29.288200
20
18.174200
11
29.408100
21
18.174200
0
LINE
8
Layer 1
10
29.408100
20
18.174200
11
29.455500
21
18.174200
0
LINE
8
Layer 1
10
29.455500
20
18.174200
11
29.640900
21
18.174200
0
LINE
8
Layer 1
10
29.640900
20
18.174200
11
30.127800
21
18.174200
0
LINE
8
Layer 1
10
30.127800
20
18.174200
11
30.386800
21
18.174200
0
LINE
8
Layer 1
10
30.386800
20
18.174200
11
30.551100
21
18.174200
0
LINE
8
Layer 1
10
30.551100
20
18.174200
11
30.873700
21
18.174200
0
LINE
8
Layer 1
10
30.873700
20
18.174200
11
31.059100
21
18.174200
0
LINE
8
Layer 1
10
31.059100
20
18.174200
11
31.223100
21
18.174200
0
LINE
8
Layer 1
10
31.223100
20
18.174200
11
31.304300
21
18.174200
0
LINE
8
Layer 1
10
-34.638000
20
32.878900
11
-35.228900
21
32.878900
0
LINE
8
Layer 1
10
-35.228900
20
32.878900
11
-35.310200
21
32.878900
0
LINE
8
Layer 1
10
-35.310200
20
32.878900
11
-36.654100
21
32.878900
0
LINE
8
Layer 1
10
-36.654100
20
32.878900
11
-36.971100
21
32.878900
0
LINE
8
Layer 1
10
-36.971100
20
32.878900
11
-37.245100
21
32.878900
0
LINE
8
Layer 1
10
-37.245100
20
32.878900
11
-37.675500
21
32.878900
0
LINE
8
Layer 1
10
-37.675500
20
32.878900
11
-38.589100
21
32.878900
0
LINE
8
Layer 1
10
-38.589100
20
32.878900
11
-38.589100
21
28.927700
0
LINE
8
Layer 1
10
-38.589100
20
28.927700
11
-37.675500
21
28.927700
0
LINE
8
Layer 1
10
-37.675500
20
28.927700
11
-37.245100
21
28.927700
0
LINE
8
Layer 1
10
-37.245100
20
28.927700
11
-36.971100
21
28.927700
0
LINE
8
Layer 1
10
-36.971100
20
28.927700
11
-36.654100
21
28.927700
0
LINE
8
Layer 1
10
-36.654100
20
28.927700
11
-35.310200
21
28.927700
0
LINE
8
Layer 1
10
-35.310200
20
28.927700
11
-35.228900
21
28.927700
0
LINE
8
Layer 1
10
-35.228900
20
28.927700
11
-34.638000
21
28.927700
0
LINE
8
Layer 1
10
-34.638000
20
28.927700
11
-34.638000
21
32.878900
0
LINE
8
Layer 1
10
-28.508400
20
23.551100
11
-27.940000
21
23.551100
0
LINE
8
Layer 1
10
-27.940000
20
23.551100
11
-27.245400
21
23.551100
0
LINE
8
Layer 1
10
-27.245400
20
23.551100
11
-27.164400
21
23.551100
0
LINE
8
Layer 1
10
-27.164400
20
23.551100
11
-26.492500
21
23.551100
0
LINE
8
Layer 1
10
-26.492500
20
23.551100
11
-25.901500
21
23.551100
0
LINE
8
Layer 1
10
-25.901500
20
23.551100
11
-25.820200
21
23.551100
0
LINE
8
Layer 1
10
-25.820200
20
23.551100
11
-24.557300
21
23.551100
0
LINE
8
Layer 1
10
-24.557300
20
23.551100
11
-24.557300
21
27.502200
0
LINE
8
Layer 1
10
-24.557300
20
27.502200
11
-25.820200
21
27.502200
0
LINE
8
Layer 1
10
-25.820200
20
27.502200
11
-25.901500
21
27.502200
0
LINE
8
Layer 1
10
-25.901500
20
27.502200
11
-26.492500
21
27.502200
0
LINE
8
Layer 1
10
-26.492500
20
27.502200
11
-27.164400
21
27.502200
0
LINE
8
Layer 1
10
-27.164400
20
27.502200
11
-27.245400
21
27.502200
0
LINE
8
Layer 1
10
-27.245400
20
27.502200
11
-27.940000
21
27.502200
0
LINE
8
Layer 1
10
-27.940000
20
27.502200
11
-28.508400
21
27.502200
0
LINE
8
Layer 1
10
-28.508400
20
27.502200
11
-28.508400
21
23.551100
0
LINE
8
Layer 1
10
-30.958600
20
34.304400
11
-30.725800
21
34.304400
0
LINE
8
Layer 1
10
-30.725800
20
34.304400
11
-29.852600
21
34.304400
0
LINE
8
Layer 1
10
-29.852600
20
34.304400
11
-29.261600
21
34.304400
0
LINE
8
Layer 1
10
-29.261600
20
34.304400
11
-28.589700
21
34.304400
0
LINE
8
Layer 1
10
-28.589700
20
34.304400
11
-28.589700
21
38.255500
0
LINE
8
Layer 1
10
-28.589700
20
38.255500
11
-29.852600
21
38.255500
0
LINE
8
Layer 1
10
-29.852600
20
38.255500
11
-31.277800
21
38.255500
0
LINE
8
Layer 1
10
-31.277800
20
38.255500
11
-32.540800
21
38.255500
0
LINE
8
Layer 1
10
-32.540800
20
38.255500
11
-32.540800
21
34.304400
0
LINE
8
Layer 1
10
-32.540800
20
34.304400
11
-31.277800
21
34.304400
0
LINE
8
Layer 1
10
-31.277800
20
34.304400
11
-31.196500
21
34.304400
0
LINE
8
Layer 1
10
-31.196500
20
34.304400
11
-30.958600
21
34.304400
0
LINE
8
Layer 1
10
-24.476300
20
34.304400
11
-23.213000
21
34.304400
0
LINE
8
Layer 1
10
-23.213000
20
34.304400
11
-23.213000
21
38.255500
0
LINE
8
Layer 1
10
-23.213000
20
38.255500
11
-24.476300
21
38.255500
0
LINE
8
Layer 1
10
-24.476300
20
38.255500
11
-25.901500
21
38.255500
0
LINE
8
Layer 1
10
-25.901500
20
38.255500
11
-27.164400
21
38.255500
0
LINE
8
Layer 1
10
-27.164400
20
38.255500
11
-27.164400
21
34.304400
0
LINE
8
Layer 1
10
-27.164400
20
34.304400
11
-26.492500
21
34.304400
0
LINE
8
Layer 1
10
-26.492500
20
34.304400
11
-25.901500
21
34.304400
0
LINE
8
Layer 1
10
-25.901500
20
34.304400
11
-25.820200
21
34.304400
0
LINE
8
Layer 1
10
-25.820200
20
34.304400
11
-24.476300
21
34.304400
0
LINE
8
Layer 1
10
-22.541100
20
28.927700
11
-21.869100
21
28.927700
0
LINE
8
Layer 1
10
-21.869100
20
28.927700
11
-21.869100
21
32.878900
0
LINE
8
Layer 1
10
-21.869100
20
32.878900
11
-22.541100
21
32.878900
0
LINE
8
Layer 1
10
-22.541100
20
32.878900
11
-23.213000
21
32.878900
0
LINE
8
Layer 1
10
-23.213000
20
32.878900
11
-24.476300
21
32.878900
0
LINE
8
Layer 1
10
-24.476300
20
32.878900
11
-25.820200
21
32.878900
0
LINE
8
Layer 1
10
-25.820200
20
32.878900
11
-25.820200
21
28.927700
0
LINE
8
Layer 1
10
-25.820200
20
28.927700
11
-24.557300
21
28.927700
0
LINE
8
Layer 1
10
-24.557300
20
28.927700
11
-24.476300
21
28.927700
0
LINE
8
Layer 1
10
-24.476300
20
28.927700
11
-23.213000
21
28.927700
0
LINE
8
Layer 1
10
-23.213000
20
28.927700
11
-23.132000
21
28.927700
0
LINE
8
Layer 1
10
-23.132000
20
28.927700
11
-22.541100
21
28.927700
0
LINE
8
Layer 1
10
-25.820200
20
22.125600
11
-25.901500
21
22.125600
0
LINE
8
Layer 1
10
-25.901500
20
22.125600
11
-26.492500
21
22.125600
0
LINE
8
Layer 1
10
-26.492500
20
22.125600
11
-26.492500
21
18.174200
0
LINE
8
Layer 1
10
-26.492500
20
18.174200
11
-25.901500
21
18.174200
0
LINE
8
Layer 1
10
-25.901500
20
18.174200
11
-24.476300
21
18.174200
0
LINE
8
Layer 1
10
-24.476300
20
18.174200
11
-23.213000
21
18.174200
0
LINE
8
Layer 1
10
-23.213000
20
18.174200
11
-22.541100
21
18.174200
0
LINE
8
Layer 1
10
-22.541100
20
18.174200
11
-22.541100
21
22.125600
0
LINE
8
Layer 1
10
-22.541100
20
22.125600
11
-23.132000
21
22.125600
0
LINE
8
Layer 1
10
-23.132000
20
22.125600
11
-23.213000
21
22.125600
0
LINE
8
Layer 1
10
-23.213000
20
22.125600
11
-24.476300
21
22.125600
0
LINE
8
Layer 1
10
-24.476300
20
22.125600
11
-24.557300
21
22.125600
0
LINE
8
Layer 1
10
-24.557300
20
22.125600
11
-25.820200
21
22.125600
0
LINE
8
Layer 1
10
-18.934000
20
32.878900
11
-19.099700
21
32.878900
0
LINE
8
Layer 1
10
-19.099700
20
32.878900
11
-19.420800
21
32.878900
0
LINE
8
Layer 1
10
-19.420800
20
32.878900
11
-19.653700
21
32.878900
0
LINE
8
Layer 1
10
-19.653700
20
32.878900
11
-20.443900
21
32.878900
0
LINE
8
Layer 1
10
-20.443900
20
32.878900
11
-20.443900
21
28.927700
0
LINE
8
Layer 1
10
-20.443900
20
28.927700
11
-19.653700
21
28.927700
0
LINE
8
Layer 1
10
-19.653700
20
28.927700
11
-19.420800
21
28.927700
0
LINE
8
Layer 1
10
-19.420800
20
28.927700
11
-19.180900
21
28.927700
0
LINE
8
Layer 1
10
-19.180900
20
28.927700
11
-19.099700
21
28.927700
0
LINE
8
Layer 1
10
-19.099700
20
28.927700
11
-18.934000
21
28.927700
0
LINE
8
Layer 1
10
-18.934000
20
28.927700
11
-18.002700
21
28.927700
0
LINE
8
Layer 1
10
-18.002700
20
28.927700
11
-17.836700
21
28.927700
0
LINE
8
Layer 1
10
-17.836700
20
28.927700
11
-17.755700
21
28.927700
0
LINE
8
Layer 1
10
-17.755700
20
28.927700
11
-17.515800
21
28.927700
0
LINE
8
Layer 1
10
-17.515800
20
28.927700
11
-16.492800
21
28.927700
0
LINE
8
Layer 1
10
-16.492800
20
28.927700
11
-16.492800
21
32.878900
0
LINE
8
Layer 1
10
-16.492800
20
32.878900
11
-17.515800
21
32.878900
0
LINE
8
Layer 1
10
-17.515800
20
32.878900
11
-17.836700
21
32.878900
0
LINE
8
Layer 1
10
-17.836700
20
32.878900
11
-18.002700
21
32.878900
0
LINE
8
Layer 1
10
-18.002700
20
32.878900
11
-18.934000
21
32.878900
0
LINE
8
Layer 1
10
-17.836700
20
34.304400
11
-17.836700
21
38.255500
0
LINE
8
Layer 1
10
-17.836700
20
38.255500
11
-19.099700
21
38.255500
0
LINE
8
Layer 1
10
-19.099700
20
38.255500
11
-20.524900
21
38.255500
0
LINE
8
Layer 1
10
-20.524900
20
38.255500
11
-21.787800
21
38.255500
0
LINE
8
Layer 1
10
-21.787800
20
38.255500
11
-21.787800
21
34.304400
0
LINE
8
Layer 1
10
-21.787800
20
34.304400
11
-20.524900
21
34.304400
0
LINE
8
Layer 1
10
-20.524900
20
34.304400
11
-20.443900
21
34.304400
0
LINE
8
Layer 1
10
-20.443900
20
34.304400
11
-19.653700
21
34.304400
0
LINE
8
Layer 1
10
-19.653700
20
34.304400
11
-19.420800
21
34.304400
0
LINE
8
Layer 1
10
-19.420800
20
34.304400
11
-19.099700
21
34.304400
0
LINE
8
Layer 1
10
-19.099700
20
34.304400
11
-18.934000
21
34.304400
0
LINE
8
Layer 1
10
-18.934000
20
34.304400
11
-18.002700
21
34.304400
0
LINE
8
Layer 1
10
-18.002700
20
34.304400
11
-17.836700
21
34.304400
0
LINE
8
Layer 1
10
-16.411500
20
39.681000
11
-15.148500
21
39.681000
0
LINE
8
Layer 1
10
-15.148500
20
39.681000
11
-15.148500
21
43.632100
0
LINE
8
Layer 1
10
-15.148500
20
43.632100
11
-19.099700
21
43.632100
0
LINE
8
Layer 1
10
-19.099700
20
43.632100
11
-19.099700
21
39.681000
0
LINE
8
Layer 1
10
-19.099700
20
39.681000
11
-17.836700
21
39.681000
0
LINE
8
Layer 1
10
-17.836700
20
39.681000
11
-17.515800
21
39.681000
0
LINE
8
Layer 1
10
-17.515800
20
39.681000
11
-16.492800
21
39.681000
0
LINE
8
Layer 1
10
-16.492800
20
39.681000
11
-16.411500
21
39.681000
0
LINE
8
Layer 1
10
-19.180900
20
27.502200
11
-19.420800
21
27.502200
0
LINE
8
Layer 1
10
-19.420800
20
27.502200
11
-19.653700
21
27.502200
0
LINE
8
Layer 1
10
-19.653700
20
27.502200
11
-20.443900
21
27.502200
0
LINE
8
Layer 1
10
-20.443900
20
27.502200
11
-20.524900
21
27.502200
0
LINE
8
Layer 1
10
-20.524900
20
27.502200
11
-21.787800
21
27.502200
0
LINE
8
Layer 1
10
-21.787800
20
27.502200
11
-21.869100
21
27.502200
0
LINE
8
Layer 1
10
-21.869100
20
27.502200
11
-22.541100
21
27.502200
0
LINE
8
Layer 1
10
-22.541100
20
27.502200
11
-23.132000
21
27.502200
0
LINE
8
Layer 1
10
-23.132000
20
27.502200
11
-23.132000
21
23.551100
0
LINE
8
Layer 1
10
-23.132000
20
23.551100
11
-22.541100
21
23.551100
0
LINE
8
Layer 1
10
-22.541100
20
23.551100
11
-21.869100
21
23.551100
0
LINE
8
Layer 1
10
-21.869100
20
23.551100
11
-21.787800
21
23.551100
0
LINE
8
Layer 1
10
-21.787800
20
23.551100
11
-20.524900
21
23.551100
0
LINE
8
Layer 1
10
-20.524900
20
23.551100
11
-20.443900
21
23.551100
0
LINE
8
Layer 1
10
-20.443900
20
23.551100
11
-19.653700
21
23.551100
0
LINE
8
Layer 1
10
-19.653700
20
23.551100
11
-19.420800
21
23.551100
0
LINE
8
Layer 1
10
-19.420800
20
23.551100
11
-19.180900
21
23.551100
0
LINE
8
Layer 1
10
-19.180900
20
23.551100
11
-19.180900
21
27.502200
0
LINE
8
Layer 1
10
-13.723300
20
28.927700
11
-12.460400
21
28.927700
0
LINE
8
Layer 1
10
-12.460400
20
28.927700
11
-12.379100
21
28.927700
0
LINE
8
Layer 1
10
-12.379100
20
28.927700
11
-11.116200
21
28.927700
0
LINE
8
Layer 1
10
-11.116200
20
28.927700
11
-11.116200
21
32.878900
0
LINE
8
Layer 1
10
-11.116200
20
32.878900
11
-12.460400
21
32.878900
0
LINE
8
Layer 1
10
-12.460400
20
32.878900
11
-13.723300
21
32.878900
0
LINE
8
Layer 1
10
-13.723300
20
32.878900
11
-15.067300
21
32.878900
0
LINE
8
Layer 1
10
-15.067300
20
32.878900
11
-15.067300
21
28.927700
0
LINE
8
Layer 1
10
-15.067300
20
28.927700
11
-13.804300
21
28.927700
0
LINE
8
Layer 1
10
-13.804300
20
28.927700
11
-13.723300
21
28.927700
0
LINE
8
Layer 1
10
-13.804300
20
27.502200
11
-15.067300
21
27.502200
0
LINE
8
Layer 1
10
-15.067300
20
27.502200
11
-15.148500
21
27.502200
0
LINE
8
Layer 1
10
-15.148500
20
27.502200
11
-16.411500
21
27.502200
0
LINE
8
Layer 1
10
-16.411500
20
27.502200
11
-16.492800
21
27.502200
0
LINE
8
Layer 1
10
-16.492800
20
27.502200
11
-17.515800
21
27.502200
0
LINE
8
Layer 1
10
-17.515800
20
27.502200
11
-17.755700
21
27.502200
0
LINE
8
Layer 1
10
-17.755700
20
27.502200
11
-17.755700
21
23.551100
0
LINE
8
Layer 1
10
-17.755700
20
23.551100
11
-17.515800
21
23.551100
0
LINE
8
Layer 1
10
-17.515800
20
23.551100
11
-16.492800
21
23.551100
0
LINE
8
Layer 1
10
-16.492800
20
23.551100
11
-16.411500
21
23.551100
0
LINE
8
Layer 1
10
-16.411500
20
23.551100
11
-15.148500
21
23.551100
0
LINE
8
Layer 1
10
-15.148500
20
23.551100
11
-15.067300
21
23.551100
0
LINE
8
Layer 1
10
-15.067300
20
23.551100
11
-13.804300
21
23.551100
0
LINE
8
Layer 1
10
-13.804300
20
23.551100
11
-13.804300
21
27.502200
0
LINE
8
Layer 1
10
-8.181050
20
32.878900
11
-8.347000
21
32.878900
0
LINE
8
Layer 1
10
-8.347000
20
32.878900
11
-8.667880
21
32.878900
0
LINE
8
Layer 1
10
-8.667880
20
32.878900
11
-9.690940
21
32.878900
0
LINE
8
Layer 1
10
-9.690940
20
32.878900
11
-9.690940
21
28.927700
0
LINE
8
Layer 1
10
-9.690940
20
28.927700
11
-8.667880
21
28.927700
0
LINE
8
Layer 1
10
-8.667880
20
28.927700
11
-8.428000
21
28.927700
0
LINE
8
Layer 1
10
-8.428000
20
28.927700
11
-8.347000
21
28.927700
0
LINE
8
Layer 1
10
-8.347000
20
28.927700
11
-8.181050
21
28.927700
0
LINE
8
Layer 1
10
-8.181050
20
28.927700
11
-7.249720
21
28.927700
0
LINE
8
Layer 1
10
-7.249720
20
28.927700
11
-7.084050
21
28.927700
0
LINE
8
Layer 1
10
-7.084050
20
28.927700
11
-7.002770
21
28.927700
0
LINE
8
Layer 1
10
-7.002770
20
28.927700
11
-6.762890
21
28.927700
0
LINE
8
Layer 1
10
-6.762890
20
28.927700
11
-6.530050
21
28.927700
0
LINE
8
Layer 1
10
-6.530050
20
28.927700
11
-5.739830
21
28.927700
0
LINE
8
Layer 1
10
-5.739830
20
28.927700
11
-5.739830
21
32.878900
0
LINE
8
Layer 1
10
-5.739830
20
32.878900
11
-6.530050
21
32.878900
0
LINE
8
Layer 1
10
-6.530050
20
32.878900
11
-6.762890
21
32.878900
0
LINE
8
Layer 1
10
-6.762890
20
32.878900
11
-7.084050
21
32.878900
0
LINE
8
Layer 1
10
-7.084050
20
32.878900
11
-7.249720
21
32.878900
0
LINE
8
Layer 1
10
-7.249720
20
32.878900
11
-8.181050
21
32.878900
0
LINE
8
Layer 1
10
-7.084050
20
34.304400
11
-7.084050
21
38.255500
0
LINE
8
Layer 1
10
-7.084050
20
38.255500
11
-8.347000
21
38.255500
0
LINE
8
Layer 1
10
-8.347000
20
38.255500
11
-9.772220
21
38.255500
0
LINE
8
Layer 1
10
-9.772220
20
38.255500
11
-11.035200
21
38.255500
0
LINE
8
Layer 1
10
-11.035200
20
38.255500
11
-11.035200
21
34.304400
0
LINE
8
Layer 1
10
-11.035200
20
34.304400
11
-9.772220
21
34.304400
0
LINE
8
Layer 1
10
-9.772220
20
34.304400
11
-9.690940
21
34.304400
0
LINE
8
Layer 1
10
-9.690940
20
34.304400
11
-8.667880
21
34.304400
0
LINE
8
Layer 1
10
-8.667880
20
34.304400
11
-8.347000
21
34.304400
0
LINE
8
Layer 1
10
-8.347000
20
34.304400
11
-8.181050
21
34.304400
0
LINE
8
Layer 1
10
-8.181050
20
34.304400
11
-7.249720
21
34.304400
0
LINE
8
Layer 1
10
-7.249720
20
34.304400
11
-7.084050
21
34.304400
0
LINE
8
Layer 1
10
-8.428000
20
27.502200
11
-8.667880
21
27.502200
0
LINE
8
Layer 1
10
-8.667880
20
27.502200
11
-9.690940
21
27.502200
0
LINE
8
Layer 1
10
-9.690940
20
27.502200
11
-9.772220
21
27.502200
0
LINE
8
Layer 1
10
-9.772220
20
27.502200
11
-11.035200
21
27.502200
0
LINE
8
Layer 1
10
-11.035200
20
27.502200
11
-11.116200
21
27.502200
0
LINE
8
Layer 1
10
-11.116200
20
27.502200
11
-12.379100
21
27.502200
0
LINE
8
Layer 1
10
-12.379100
20
27.502200
11
-12.379100
21
23.551100
0
LINE
8
Layer 1
10
-12.379100
20
23.551100
11
-11.116200
21
23.551100
0
LINE
8
Layer 1
10
-11.116200
20
23.551100
11
-11.035200
21
23.551100
0
LINE
8
Layer 1
10
-11.035200
20
23.551100
11
-9.772220
21
23.551100
0
LINE
8
Layer 1
10
-9.772220
20
23.551100
11
-9.690940
21
23.551100
0
LINE
8
Layer 1
10
-9.690940
20
23.551100
11
-8.667880
21
23.551100
0
LINE
8
Layer 1
10
-8.667880
20
23.551100
11
-8.428000
21
23.551100
0
LINE
8
Layer 1
10
-8.428000
20
23.551100
11
-8.428000
21
27.502200
0
LINE
8
Layer 1
10
-39.261300
20
18.174200
11
-39.228900
21
18.174200
0
LINE
8
Layer 1
10
-39.228900
20
18.174200
11
-39.093700
21
18.174200
0
LINE
8
Layer 1
10
-39.093700
20
18.174200
11
-38.162300
21
18.174200
0
LINE
8
Layer 1
10
-38.162300
20
18.174200
11
-37.675500
21
18.174200
0
LINE
8
Layer 1
10
-37.675500
20
18.174200
11
-37.245100
21
18.174200
0
LINE
8
Layer 1
10
-37.245100
20
18.174200
11
-36.971100
21
18.174200
0
LINE
8
Layer 1
10
-36.971100
20
18.174200
11
-36.654100
21
18.174200
0
LINE
8
Layer 1
10
-36.654100
20
18.174200
11
-35.982200
21
18.174200
0
LINE
8
Layer 1
10
-35.982200
20
18.174200
11
-35.982200
21
22.125600
0
LINE
8
Layer 1
10
-35.982200
20
22.125600
11
-36.654100
21
22.125600
0
LINE
8
Layer 1
10
-36.654100
20
22.125600
11
-36.971100
21
22.125600
0
LINE
8
Layer 1
10
-36.971100
20
22.125600
11
-37.245100
21
22.125600
0
LINE
8
Layer 1
10
-37.245100
20
22.125600
11
-37.675500
21
22.125600
0
LINE
8
Layer 1
10
-37.675500
20
22.125600
11
-38.162300
21
22.125600
0
LINE
8
Layer 1
10
-38.162300
20
22.125600
11
-39.093700
21
22.125600
0
LINE
8
Layer 1
10
-39.093700
20
22.125600
11
-39.228900
21
22.125600
0
LINE
8
Layer 1
10
-39.228900
20
22.125600
11
-39.261300
21
22.125600
0
LINE
8
Layer 1
10
-39.261300
20
22.125600
11
-39.580500
21
22.125600
0
LINE
8
Layer 1
10
-39.580500
20
22.125600
11
-39.813300
21
22.125600
0
LINE
8
Layer 1
10
-39.813300
20
22.125600
11
-39.933300
21
22.125600
0
LINE
8
Layer 1
10
-39.933300
20
22.125600
11
-39.933300
21
18.174200
0
LINE
8
Layer 1
10
-39.933300
20
18.174200
11
-39.813300
21
18.174200
0
LINE
8
Layer 1
10
-39.813300
20
18.174200
11
-39.580500
21
18.174200
0
LINE
8
Layer 1
10
-39.580500
20
18.174200
11
-39.261300
21
18.174200
0
LINE
8
Layer 1
10
-37.675500
20
34.304400
11
-37.245100
21
34.304400
0
LINE
8
Layer 1
10
-37.245100
20
34.304400
11
-36.971100
21
34.304400
0
LINE
8
Layer 1
10
-36.971100
20
34.304400
11
-36.654100
21
34.304400
0
LINE
8
Layer 1
10
-36.654100
20
34.304400
11
-35.310200
21
34.304400
0
LINE
8
Layer 1
10
-35.310200
20
34.304400
11
-35.310200
21
38.255500
0
LINE
8
Layer 1
10
-35.310200
20
38.255500
11
-36.654100
21
38.255500
0
LINE
8
Layer 1
10
-36.654100
20
38.255500
11
-36.971100
21
38.255500
0
LINE
8
Layer 1
10
-36.971100
20
38.255500
11
-39.228900
21
38.255500
0
LINE
8
Layer 1
10
-39.228900
20
38.255500
11
-39.261300
21
38.255500
0
LINE
8
Layer 1
10
-39.261300
20
38.255500
11
-39.261300
21
34.304400
0
LINE
8
Layer 1
10
-39.261300
20
34.304400
11
-39.228900
21
34.304400
0
LINE
8
Layer 1
10
-39.228900
20
34.304400
11
-38.589100
21
34.304400
0
LINE
8
Layer 1
10
-38.589100
20
34.304400
11
-37.675500
21
34.304400
0
LINE
8
Layer 1
10
43.992200
20
43.632100
11
42.615500
21
43.632100
0
LINE
8
Layer 1
10
42.615500
20
43.632100
11
40.357700
21
43.632100
0
LINE
8
Layer 1
10
40.357700
20
43.632100
11
40.040800
21
43.632100
0
LINE
8
Layer 1
10
40.040800
20
43.632100
11
40.040800
21
39.681000
0
LINE
8
Layer 1
10
40.040800
20
39.681000
11
40.357700
21
39.681000
0
LINE
8
Layer 1
10
40.357700
20
39.681000
11
42.615500
21
39.681000
0
LINE
8
Layer 1
10
42.615500
20
39.681000
11
43.992200
21
39.681000
0
LINE
8
Layer 1
10
43.992200
20
39.681000
11
43.992200
21
43.632100
0
LINE
8
Layer 1
10
42.615500
20
38.255500
11
40.357700
21
38.255500
0
LINE
8
Layer 1
10
40.357700
20
38.255500
11
40.040800
21
38.255500
0
LINE
8
Layer 1
10
40.040800
20
38.255500
11
40.040800
21
34.304400
0
LINE
8
Layer 1
10
40.040800
20
34.304400
11
40.357700
21
34.304400
0
LINE
8
Layer 1
10
40.357700
20
34.304400
11
42.615500
21
34.304400
0
LINE
8
Layer 1
10
42.615500
20
34.304400
11
43.992200
21
34.304400
0
LINE
8
Layer 1
10
43.992200
20
34.304400
11
43.992200
21
38.255500
0
LINE
8
Layer 1
10
43.992200
20
38.255500
11
42.615500
21
38.255500
0
LINE
8
Layer 1
10
42.615500
20
32.878900
11
40.357700
21
32.878900
0
LINE
8
Layer 1
10
40.357700
20
32.878900
11
40.040800
21
32.878900
0
LINE
8
Layer 1
10
40.040800
20
32.878900
11
40.040800
21
28.927700
0
LINE
8
Layer 1
10
40.040800
20
28.927700
11
40.357700
21
28.927700
0
LINE
8
Layer 1
10
40.357700
20
28.927700
11
42.615500
21
28.927700
0
LINE
8
Layer 1
10
42.615500
20
28.927700
11
43.992200
21
28.927700
0
LINE
8
Layer 1
10
43.992200
20
28.927700
11
43.992200
21
32.878900
0
LINE
8
Layer 1
10
43.992200
20
32.878900
11
42.615500
21
32.878900
0
LINE
8
Layer 1
10
42.615500
20
27.502200
11
40.357700
21
27.502200
0
LINE
8
Layer 1
10
40.357700
20
27.502200
11
40.040800
21
27.502200
0
LINE
8
Layer 1
10
40.040800
20
27.502200
11
40.040800
21
23.551100
0
LINE
8
Layer 1
10
40.040800
20
23.551100
11
40.357700
21
23.551100
0
LINE
8
Layer 1
10
40.357700
20
23.551100
11
42.615500
21
23.551100
0
LINE
8
Layer 1
10
42.615500
20
23.551100
11
43.992200
21
23.551100
0
LINE
8
Layer 1
10
43.992200
20
23.551100
11
43.992200
21
27.502200
0
LINE
8
Layer 1
10
43.992200
20
27.502200
11
42.615500
21
27.502200
0
LINE
8
Layer 1
10
38.262800
20
22.125600
11
37.823700
21
22.125600
0
LINE
8
Layer 1
10
37.823700
20
22.125600
11
37.776000
21
22.125600
0
LINE
8
Layer 1
10
37.776000
20
22.125600
11
37.590800
21
22.125600
0
LINE
8
Layer 1
10
37.590800
20
22.125600
11
37.271400
21
22.125600
0
LINE
8
Layer 1
10
37.271400
20
22.125600
11
37.104000
21
22.125600
0
LINE
8
Layer 1
10
37.104000
20
22.125600
11
36.844600
21
22.125600
0
LINE
8
Layer 1
10
36.844600
20
22.125600
11
36.357800
21
22.125600
0
LINE
8
Layer 1
10
36.357800
20
22.125600
11
36.172700
21
22.125600
0
LINE
8
Layer 1
10
36.172700
20
22.125600
11
35.927400
21
22.125600
0
LINE
8
Layer 1
10
35.927400
20
22.125600
11
35.685800
21
22.125600
0
LINE
8
Layer 1
10
35.685800
20
22.125600
11
35.255500
21
22.125600
0
LINE
8
Layer 1
10
35.255500
20
22.125600
11
34.664500
21
22.125600
0
LINE
8
Layer 1
10
34.664500
20
22.125600
11
34.664500
21
18.174200
0
LINE
8
Layer 1
10
34.664500
20
18.174200
11
35.255500
21
18.174200
0
LINE
8
Layer 1
10
35.255500
20
18.174200
11
35.685800
21
18.174200
0
LINE
8
Layer 1
10
35.685800
20
18.174200
11
35.927400
21
18.174200
0
LINE
8
Layer 1
10
35.927400
20
18.174200
11
36.172700
21
18.174200
0
LINE
8
Layer 1
10
36.172700
20
18.174200
11
36.357800
21
18.174200
0
LINE
8
Layer 1
10
36.357800
20
18.174200
11
36.844600
21
18.174200
0
LINE
8
Layer 1
10
36.844600
20
18.174200
11
37.104000
21
18.174200
0
LINE
8
Layer 1
10
37.104000
20
18.174200
11
37.271400
21
18.174200
0
LINE
8
Layer 1
10
37.271400
20
18.174200
11
37.590800
21
18.174200
0
LINE
8
Layer 1
10
37.590800
20
18.174200
11
37.776000
21
18.174200
0
LINE
8
Layer 1
10
37.776000
20
18.174200
11
37.823700
21
18.174200
0
LINE
8
Layer 1
10
37.823700
20
18.174200
11
38.262800
21
18.174200
0
LINE
8
Layer 1
10
38.262800
20
18.174200
11
38.495600
21
18.174200
0
LINE
8
Layer 1
10
38.495600
20
18.174200
11
38.615600
21
18.174200
0
LINE
8
Layer 1
10
38.615600
20
18.174200
11
38.615600
21
22.125600
0
LINE
8
Layer 1
10
38.615600
20
22.125600
11
38.495600
21
22.125600
0
LINE
8
Layer 1
10
38.495600
20
22.125600
11
38.262800
21
22.125600
0
LINE
8
Layer 1
10
38.495600
20
23.551100
11
38.615600
21
23.551100
0
LINE
8
Layer 1
10
38.615600
20
23.551100
11
38.615600
21
27.502200
0
LINE
8
Layer 1
10
38.615600
20
27.502200
11
38.495600
21
27.502200
0
LINE
8
Layer 1
10
38.495600
20
27.502200
11
38.262800
21
27.502200
0
LINE
8
Layer 1
10
38.262800
20
27.502200
11
37.823700
21
27.502200
0
LINE
8
Layer 1
10
37.823700
20
27.502200
11
37.776000
21
27.502200
0
LINE
8
Layer 1
10
37.776000
20
27.502200
11
37.590800
21
27.502200
0
LINE
8
Layer 1
10
37.590800
20
27.502200
11
37.271400
21
27.502200
0
LINE
8
Layer 1
10
37.271400
20
27.502200
11
37.104000
21
27.502200
0
LINE
8
Layer 1
10
37.104000
20
27.502200
11
36.844600
21
27.502200
0
LINE
8
Layer 1
10
36.844600
20
27.502200
11
36.357800
21
27.502200
0
LINE
8
Layer 1
10
36.357800
20
27.502200
11
36.172700
21
27.502200
0
LINE
8
Layer 1
10
36.172700
20
27.502200
11
35.927400
21
27.502200
0
LINE
8
Layer 1
10
35.927400
20
27.502200
11
35.685800
21
27.502200
0
LINE
8
Layer 1
10
35.685800
20
27.502200
11
35.255500
21
27.502200
0
LINE
8
Layer 1
10
35.255500
20
27.502200
11
34.664500
21
27.502200
0
LINE
8
Layer 1
10
34.664500
20
27.502200
11
34.664500
21
23.551100
0
LINE
8
Layer 1
10
34.664500
20
23.551100
11
35.255500
21
23.551100
0
LINE
8
Layer 1
10
35.255500
20
23.551100
11
35.685800
21
23.551100
0
LINE
8
Layer 1
10
35.685800
20
23.551100
11
35.927400
21
23.551100
0
LINE
8
Layer 1
10
35.927400
20
23.551100
11
36.172700
21
23.551100
0
LINE
8
Layer 1
10
36.172700
20
23.551100
11
36.357800
21
23.551100
0
LINE
8
Layer 1
10
36.357800
20
23.551100
11
36.844600
21
23.551100
0
LINE
8
Layer 1
10
36.844600
20
23.551100
11
37.104000
21
23.551100
0
LINE
8
Layer 1
10
37.104000
20
23.551100
11
37.271400
21
23.551100
0
LINE
8
Layer 1
10
37.271400
20
23.551100
11
37.590800
21
23.551100
0
LINE
8
Layer 1
10
37.590800
20
23.551100
11
37.776000
21
23.551100
0
LINE
8
Layer 1
10
37.776000
20
23.551100
11
37.823700
21
23.551100
0
LINE
8
Layer 1
10
37.823700
20
23.551100
11
38.262800
21
23.551100
0
LINE
8
Layer 1
10
38.262800
20
23.551100
11
38.495600
21
23.551100
0
LINE
8
Layer 1
10
36.844600
20
38.255500
11
36.357800
21
38.255500
0
LINE
8
Layer 1
10
36.357800
20
38.255500
11
35.927400
21
38.255500
0
LINE
8
Layer 1
10
35.927400
20
38.255500
11
33.320500
21
38.255500
0
LINE
8
Layer 1
10
33.320500
20
38.255500
11
33.320500
21
34.304400
0
LINE
8
Layer 1
10
33.320500
20
34.304400
11
35.255500
21
34.304400
0
LINE
8
Layer 1
10
35.255500
20
34.304400
11
35.685800
21
34.304400
0
LINE
8
Layer 1
10
35.685800
20
34.304400
11
35.927400
21
34.304400
0
LINE
8
Layer 1
10
35.927400
20
34.304400
11
36.357800
21
34.304400
0
LINE
8
Layer 1
10
36.357800
20
34.304400
11
36.844600
21
34.304400
0
LINE
8
Layer 1
10
36.844600
20
34.304400
11
37.271400
21
34.304400
0
LINE
8
Layer 1
10
37.271400
20
34.304400
11
37.271400
21
38.255500
0
LINE
8
Layer 1
10
37.271400
20
38.255500
11
36.844600
21
38.255500
0
LINE
8
Layer 1
10
-5.362220
20
43.632100
11
-8.347000
21
43.632100
0
LINE
8
Layer 1
10
-8.347000
20
43.632100
11
-8.347000
21
39.681000
0
LINE
8
Layer 1
10
-8.347000
20
39.681000
11
-7.084050
21
39.681000
0
LINE
8
Layer 1
10
-7.084050
20
39.681000
11
-6.762890
21
39.681000
0
LINE
8
Layer 1
10
-6.762890
20
39.681000
11
-6.530050
21
39.681000
0
LINE
8
Layer 1
10
-6.530050
20
39.681000
11
-5.739830
21
39.681000
0
LINE
8
Layer 1
10
-5.739830
20
39.681000
11
-5.658550
21
39.681000
0
LINE
8
Layer 1
10
-5.658550
20
39.681000
11
-5.362220
21
39.681000
0
LINE
8
Layer 1
10
-5.362220
20
39.681000
11
-4.395610
21
39.681000
0
LINE
8
Layer 1
10
-4.395610
20
39.681000
11
-4.395610
21
43.632100
0
LINE
8
Layer 1
10
-4.395610
20
43.632100
11
-5.362220
21
43.632100
0
LINE
8
Layer 1
10
0.980721
20
34.304400
11
1.061720
21
34.304400
0
LINE
8
Layer 1
10
1.061720
20
34.304400
11
2.405940
21
34.304400
0
LINE
8
Layer 1
10
2.405940
20
34.304400
11
3.668890
21
34.304400
0
LINE
8
Layer 1
10
3.668890
20
34.304400
11
3.668890
21
38.255500
0
LINE
8
Layer 1
10
3.668890
20
38.255500
11
2.405940
21
38.255500
0
LINE
8
Layer 1
10
2.405940
20
38.255500
11
0.980721
21
38.255500
0
LINE
8
Layer 1
10
0.980721
20
38.255500
11
-0.282222
21
38.255500
0
LINE
8
Layer 1
10
-0.282222
20
38.255500
11
-0.282222
21
34.304400
0
LINE
8
Layer 1
10
-0.282222
20
34.304400
11
0.980721
21
34.304400
0
LINE
8
Layer 1
10
6.357050
20
43.632100
11
2.405940
21
43.632100
0
LINE
8
Layer 1
10
2.405940
20
43.632100
11
2.405940
21
39.681000
0
LINE
8
Layer 1
10
2.405940
20
39.681000
11
3.668890
21
39.681000
0
LINE
8
Layer 1
10
3.668890
20
39.681000
11
5.013110
21
39.681000
0
LINE
8
Layer 1
10
5.013110
20
39.681000
11
5.094110
21
39.681000
0
LINE
8
Layer 1
10
5.094110
20
39.681000
11
6.357050
21
39.681000
0
LINE
8
Layer 1
10
6.357050
20
39.681000
11
6.357050
21
43.632100
0
LINE
8
Layer 1
10
8.748880
20
43.632100
11
7.782270
21
43.632100
0
LINE
8
Layer 1
10
7.782270
20
43.632100
11
7.782270
21
39.681000
0
LINE
8
Layer 1
10
7.782270
20
39.681000
11
8.748880
21
39.681000
0
LINE
8
Layer 1
10
8.748880
20
39.681000
11
9.045210
21
39.681000
0
LINE
8
Layer 1
10
9.045210
20
39.681000
11
9.366380
21
39.681000
0
LINE
8
Layer 1
10
9.366380
20
39.681000
11
9.599220
21
39.681000
0
LINE
8
Layer 1
10
9.599220
20
39.681000
11
10.389400
21
39.681000
0
LINE
8
Layer 1
10
10.389400
20
39.681000
11
10.470700
21
39.681000
0
LINE
8
Layer 1
10
10.470700
20
39.681000
11
11.733700
21
39.681000
0
LINE
8
Layer 1
10
11.733700
20
39.681000
11
11.733700
21
43.632100
0
LINE
8
Layer 1
10
11.733700
20
43.632100
11
8.748880
21
43.632100
0
LINE
8
Layer 1
10
11.733700
20
34.304400
11
11.814700
21
34.304400
0
LINE
8
Layer 1
10
11.814700
20
34.304400
11
12.486600
21
34.304400
0
LINE
8
Layer 1
10
12.486600
20
34.304400
11
13.158900
21
34.304400
0
LINE
8
Layer 1
10
13.158900
20
34.304400
11
14.421800
21
34.304400
0
LINE
8
Layer 1
10
14.421800
20
34.304400
11
14.421800
21
38.255500
0
LINE
8
Layer 1
10
14.421800
20
38.255500
11
13.158900
21
38.255500
0
LINE
8
Layer 1
10
13.158900
20
38.255500
11
11.733700
21
38.255500
0
LINE
8
Layer 1
10
11.733700
20
38.255500
11
10.470700
21
38.255500
0
LINE
8
Layer 1
10
10.470700
20
38.255500
11
10.470700
21
34.304400
0
LINE
8
Layer 1
10
10.470700
20
34.304400
11
11.733700
21
34.304400
0
LINE
8
Layer 1
10
14.421800
20
18.174200
11
15.847000
21
18.174200
0
LINE
8
Layer 1
10
15.847000
20
18.174200
11
16.437700
21
18.174200
0
LINE
8
Layer 1
10
16.437700
20
18.174200
11
16.437700
21
22.125600
0
LINE
8
Layer 1
10
16.437700
20
22.125600
11
15.847000
21
22.125600
0
LINE
8
Layer 1
10
15.847000
20
22.125600
11
15.765800
21
22.125600
0
LINE
8
Layer 1
10
15.765800
20
22.125600
11
14.502800
21
22.125600
0
LINE
8
Layer 1
10
14.502800
20
22.125600
11
14.421800
21
22.125600
0
LINE
8
Layer 1
10
14.421800
20
22.125600
11
13.158900
21
22.125600
0
LINE
8
Layer 1
10
13.158900
20
22.125600
11
13.077600
21
22.125600
0
LINE
8
Layer 1
10
13.077600
20
22.125600
11
12.486600
21
22.125600
0
LINE
8
Layer 1
10
12.486600
20
22.125600
11
12.486600
21
18.174200
0
LINE
8
Layer 1
10
12.486600
20
18.174200
11
13.158900
21
18.174200
0
LINE
8
Layer 1
10
13.158900
20
18.174200
11
14.421800
21
18.174200
0
LINE
8
Layer 1
10
16.437700
20
27.502200
11
15.847000
21
27.502200
0
LINE
8
Layer 1
10
15.847000
20
27.502200
11
15.765800
21
27.502200
0
LINE
8
Layer 1
10
15.765800
20
27.502200
11
14.502800
21
27.502200
0
LINE
8
Layer 1
10
14.502800
20
27.502200
11
14.502800
21
23.551100
0
LINE
8
Layer 1
10
14.502800
20
23.551100
11
15.765800
21
23.551100
0
LINE
8
Layer 1
10
15.765800
20
23.551100
11
15.847000
21
23.551100
0
LINE
8
Layer 1
10
15.847000
20
23.551100
11
16.437700
21
23.551100
0
LINE
8
Layer 1
10
16.437700
20
23.551100
11
17.110000
21
23.551100
0
LINE
8
Layer 1
10
17.110000
20
23.551100
11
17.191000
21
23.551100
0
LINE
8
Layer 1
10
17.191000
20
23.551100
11
18.453900
21
23.551100
0
LINE
8
Layer 1
10
18.453900
20
23.551100
11
18.453900
21
27.502200
0
LINE
8
Layer 1
10
18.453900
20
27.502200
11
17.191000
21
27.502200
0
LINE
8
Layer 1
10
17.191000
20
27.502200
11
17.110000
21
27.502200
0
LINE
8
Layer 1
10
17.110000
20
27.502200
11
16.437700
21
27.502200
0
LINE
8
Layer 1
10
16.437700
20
34.304400
11
17.110000
21
34.304400
0
LINE
8
Layer 1
10
17.110000
20
34.304400
11
17.191000
21
34.304400
0
LINE
8
Layer 1
10
17.191000
20
34.304400
11
18.535200
21
34.304400
0
LINE
8
Layer 1
10
18.535200
20
34.304400
11
19.798200
21
34.304400
0
LINE
8
Layer 1
10
19.798200
20
34.304400
11
19.798200
21
38.255500
0
LINE
8
Layer 1
10
19.798200
20
38.255500
11
18.535200
21
38.255500
0
LINE
8
Layer 1
10
18.535200
20
38.255500
11
17.110000
21
38.255500
0
LINE
8
Layer 1
10
17.110000
20
38.255500
11
15.847000
21
38.255500
0
LINE
8
Layer 1
10
15.847000
20
38.255500
11
15.847000
21
34.304400
0
LINE
8
Layer 1
10
15.847000
20
34.304400
11
16.437700
21
34.304400
0
LINE
8
Layer 1
10
22.486300
20
43.632100
11
18.535200
21
43.632100
0
LINE
8
Layer 1
10
18.535200
20
43.632100
11
18.535200
21
39.681000
0
LINE
8
Layer 1
10
18.535200
20
39.681000
11
19.798200
21
39.681000
0
LINE
8
Layer 1
10
19.798200
20
39.681000
11
21.142400
21
39.681000
0
LINE
8
Layer 1
10
21.142400
20
39.681000
11
21.223400
21
39.681000
0
LINE
8
Layer 1
10
21.223400
20
39.681000
11
22.486300
21
39.681000
0
LINE
8
Layer 1
10
22.486300
20
39.681000
11
22.486300
21
43.632100
0
LINE
8
Layer 1
10
18.535200
20
32.878900
11
17.191000
21
32.878900
0
LINE
8
Layer 1
10
17.191000
20
32.878900
11
17.191000
21
28.927700
0
LINE
8
Layer 1
10
17.191000
20
28.927700
11
18.453900
21
28.927700
0
LINE
8
Layer 1
10
18.453900
20
28.927700
11
18.535200
21
28.927700
0
LINE
8
Layer 1
10
18.535200
20
28.927700
11
19.798200
21
28.927700
0
LINE
8
Layer 1
10
19.798200
20
28.927700
11
19.879400
21
28.927700
0
LINE
8
Layer 1
10
19.879400
20
28.927700
11
21.142400
21
28.927700
0
LINE
8
Layer 1
10
21.142400
20
28.927700
11
21.142400
21
32.878900
0
LINE
8
Layer 1
10
21.142400
20
32.878900
11
19.798200
21
32.878900
0
LINE
8
Layer 1
10
19.798200
20
32.878900
11
18.535200
21
32.878900
0
LINE
8
Layer 1
10
19.798200
20
18.174200
11
19.879400
21
18.174200
0
LINE
8
Layer 1
10
19.879400
20
18.174200
11
21.142400
21
18.174200
0
LINE
8
Layer 1
10
21.142400
20
18.174200
11
21.223400
21
18.174200
0
LINE
8
Layer 1
10
21.223400
20
18.174200
11
22.486300
21
18.174200
0
LINE
8
Layer 1
10
22.486300
20
18.174200
11
22.486300
21
22.125600
0
LINE
8
Layer 1
10
22.486300
20
22.125600
11
21.223400
21
22.125600
0
LINE
8
Layer 1
10
21.223400
20
22.125600
11
21.142400
21
22.125600
0
LINE
8
Layer 1
10
21.142400
20
22.125600
11
19.879400
21
22.125600
0
LINE
8
Layer 1
10
19.879400
20
22.125600
11
19.798200
21
22.125600
0
LINE
8
Layer 1
10
19.798200
20
22.125600
11
18.535200
21
22.125600
0
LINE
8
Layer 1
10
18.535200
20
22.125600
11
18.535200
21
18.174200
0
LINE
8
Layer 1
10
18.535200
20
18.174200
11
19.798200
21
18.174200
0
LINE
8
Layer 1
10
21.223400
20
27.502200
11
21.142400
21
27.502200
0
LINE
8
Layer 1
10
21.142400
20
27.502200
11
19.879400
21
27.502200
0
LINE
8
Layer 1
10
19.879400
20
27.502200
11
19.879400
21
23.551100
0
LINE
8
Layer 1
10
19.879400
20
23.551100
11
21.142400
21
23.551100
0
LINE
8
Layer 1
10
21.142400
20
23.551100
11
21.223400
21
23.551100
0
LINE
8
Layer 1
10
21.223400
20
23.551100
11
22.486300
21
23.551100
0
LINE
8
Layer 1
10
22.486300
20
23.551100
11
22.567600
21
23.551100
0
LINE
8
Layer 1
10
22.567600
20
23.551100
11
23.830500
21
23.551100
0
LINE
8
Layer 1
10
23.830500
20
23.551100
11
23.830500
21
27.502200
0
LINE
8
Layer 1
10
23.830500
20
27.502200
11
22.567600
21
27.502200
0
LINE
8
Layer 1
10
22.567600
20
27.502200
11
22.486300
21
27.502200
0
LINE
8
Layer 1
10
22.486300
20
27.502200
11
21.223400
21
27.502200
0
LINE
8
Layer 1
10
22.486300
20
34.304400
11
22.567600
21
34.304400
0
LINE
8
Layer 1
10
22.567600
20
34.304400
11
23.911500
21
34.304400
0
LINE
8
Layer 1
10
23.911500
20
34.304400
11
25.174500
21
34.304400
0
LINE
8
Layer 1
10
25.174500
20
34.304400
11
25.174500
21
38.255500
0
LINE
8
Layer 1
10
25.174500
20
38.255500
11
23.911500
21
38.255500
0
LINE
8
Layer 1
10
23.911500
20
38.255500
11
22.486300
21
38.255500
0
LINE
8
Layer 1
10
22.486300
20
38.255500
11
21.223400
21
38.255500
0
LINE
8
Layer 1
10
21.223400
20
38.255500
11
21.223400
21
34.304400
0
LINE
8
Layer 1
10
21.223400
20
34.304400
11
22.486300
21
34.304400
0
LINE
8
Layer 1
10
27.862900
20
43.632100
11
23.911500
21
43.632100
0
LINE
8
Layer 1
10
23.911500
20
43.632100
11
23.911500
21
39.681000
0
LINE
8
Layer 1
10
23.911500
20
39.681000
11
25.174500
21
39.681000
0
LINE
8
Layer 1
10
25.174500
20
39.681000
11
26.518700
21
39.681000
0
LINE
8
Layer 1
10
26.518700
20
39.681000
11
26.599700
21
39.681000
0
LINE
8
Layer 1
10
26.599700
20
39.681000
11
27.862900
21
39.681000
0
LINE
8
Layer 1
10
27.862900
20
39.681000
11
27.862900
21
43.632100
0
LINE
8
Layer 1
10
23.911500
20
32.878900
11
22.567600
21
32.878900
0
LINE
8
Layer 1
10
22.567600
20
32.878900
11
22.567600
21
28.927700
0
LINE
8
Layer 1
10
22.567600
20
28.927700
11
23.830500
21
28.927700
0
LINE
8
Layer 1
10
23.830500
20
28.927700
11
23.911500
21
28.927700
0
LINE
8
Layer 1
10
23.911500
20
28.927700
11
25.174500
21
28.927700
0
LINE
8
Layer 1
10
25.174500
20
28.927700
11
26.518700
21
28.927700
0
LINE
8
Layer 1
10
26.518700
20
28.927700
11
26.518700
21
32.878900
0
LINE
8
Layer 1
10
26.518700
20
32.878900
11
25.174500
21
32.878900
0
LINE
8
Layer 1
10
25.174500
20
32.878900
11
23.911500
21
32.878900
0
LINE
8
Layer 1
10
25.174500
20
22.125600
11
23.911500
21
22.125600
0
LINE
8
Layer 1
10
23.911500
20
22.125600
11
23.911500
21
18.174200
0
LINE
8
Layer 1
10
23.911500
20
18.174200
11
25.174500
21
18.174200
0
LINE
8
Layer 1
10
25.174500
20
18.174200
11
26.518700
21
18.174200
0
LINE
8
Layer 1
10
26.518700
20
18.174200
11
26.599700
21
18.174200
0
LINE
8
Layer 1
10
26.599700
20
18.174200
11
27.272000
21
18.174200
0
LINE
8
Layer 1
10
27.272000
20
18.174200
11
27.862900
21
18.174200
0
LINE
8
Layer 1
10
27.862900
20
18.174200
11
27.862900
21
22.125600
0
LINE
8
Layer 1
10
27.862900
20
22.125600
11
27.272000
21
22.125600
0
LINE
8
Layer 1
10
27.272000
20
22.125600
11
26.599700
21
22.125600
0
LINE
8
Layer 1
10
26.599700
20
22.125600
11
26.518700
21
22.125600
0
LINE
8
Layer 1
10
26.518700
20
22.125600
11
25.174500
21
22.125600
0
LINE
8
Layer 1
10
27.862900
20
34.304400
11
28.735800
21
34.304400
0
LINE
8
Layer 1
10
28.735800
20
34.304400
11
28.968700
21
34.304400
0
LINE
8
Layer 1
10
28.968700
20
34.304400
11
29.408100
21
34.304400
0
LINE
8
Layer 1
10
29.408100
20
34.304400
11
29.640900
21
34.304400
0
LINE
8
Layer 1
10
29.640900
20
34.304400
11
30.127800
21
34.304400
0
LINE
8
Layer 1
10
30.127800
20
34.304400
11
30.551100
21
34.304400
0
LINE
8
Layer 1
10
30.551100
20
34.304400
11
30.551100
21
38.255500
0
LINE
8
Layer 1
10
30.551100
20
38.255500
11
30.127800
21
38.255500
0
LINE
8
Layer 1
10
30.127800
20
38.255500
11
29.640900
21
38.255500
0
LINE
8
Layer 1
10
29.640900
20
38.255500
11
29.408100
21
38.255500
0
LINE
8
Layer 1
10
29.408100
20
38.255500
11
27.862900
21
38.255500
0
LINE
8
Layer 1
10
27.862900
20
38.255500
11
26.599700
21
38.255500
0
LINE
8
Layer 1
10
26.599700
20
38.255500
11
26.599700
21
34.304400
0
LINE
8
Layer 1
10
26.599700
20
34.304400
11
27.272000
21
34.304400
0
LINE
8
Layer 1
10
27.272000
20
34.304400
11
27.862900
21
34.304400
0
LINE
8
Layer 1
10
27.272000
20
23.551100
11
27.862900
21
23.551100
0
LINE
8
Layer 1
10
27.862900
20
23.551100
11
28.735800
21
23.551100
0
LINE
8
Layer 1
10
28.735800
20
23.551100
11
28.968700
21
23.551100
0
LINE
8
Layer 1
10
28.968700
20
23.551100
11
29.288200
21
23.551100
0
LINE
8
Layer 1
10
29.288200
20
23.551100
11
29.408100
21
23.551100
0
LINE
8
Layer 1
10
29.408100
20
23.551100
11
29.455500
21
23.551100
0
LINE
8
Layer 1
10
29.455500
20
23.551100
11
29.640900
21
23.551100
0
LINE
8
Layer 1
10
29.640900
20
23.551100
11
30.127800
21
23.551100
0
LINE
8
Layer 1
10
30.127800
20
23.551100
11
30.386800
21
23.551100
0
LINE
8
Layer 1
10
30.386800
20
23.551100
11
30.551100
21
23.551100
0
LINE
8
Layer 1
10
30.551100
20
23.551100
11
30.873700
21
23.551100
0
LINE
8
Layer 1
10
30.873700
20
23.551100
11
31.059100
21
23.551100
0
LINE
8
Layer 1
10
31.059100
20
23.551100
11
31.223100
21
23.551100
0
LINE
8
Layer 1
10
31.223100
20
23.551100
11
31.223100
21
27.502200
0
LINE
8
Layer 1
10
31.223100
20
27.502200
11
31.059100
21
27.502200
0
LINE
8
Layer 1
10
31.059100
20
27.502200
11
30.873700
21
27.502200
0
LINE
8
Layer 1
10
30.873700
20
27.502200
11
30.551100
21
27.502200
0
LINE
8
Layer 1
10
30.551100
20
27.502200
11
30.386800
21
27.502200
0
LINE
8
Layer 1
10
30.386800
20
27.502200
11
30.127800
21
27.502200
0
LINE
8
Layer 1
10
30.127800
20
27.502200
11
29.640900
21
27.502200
0
LINE
8
Layer 1
10
29.640900
20
27.502200
11
29.455500
21
27.502200
0
LINE
8
Layer 1
10
29.455500
20
27.502200
11
29.408100
21
27.502200
0
LINE
8
Layer 1
10
29.408100
20
27.502200
11
28.968700
21
27.502200
0
LINE
8
Layer 1
10
28.968700
20
27.502200
11
28.735800
21
27.502200
0
LINE
8
Layer 1
10
28.735800
20
27.502200
11
27.862900
21
27.502200
0
LINE
8
Layer 1
10
27.862900
20
27.502200
11
27.272000
21
27.502200
0
LINE
8
Layer 1
10
27.272000
20
27.502200
11
27.272000
21
23.551100
0
LINE
8
Layer 1
10
-36.971100
20
43.632100
11
-39.228900
21
43.632100
0
LINE
8
Layer 1
10
-39.228900
20
43.632100
11
-40.605300
21
43.632100
0
LINE
8
Layer 1
10
-40.605300
20
43.632100
11
-40.605300
21
39.681000
0
LINE
8
Layer 1
10
-40.605300
20
39.681000
11
-39.933300
21
39.681000
0
LINE
8
Layer 1
10
-39.933300
20
39.681000
11
-39.813300
21
39.681000
0
LINE
8
Layer 1
10
-39.813300
20
39.681000
11
-39.580500
21
39.681000
0
LINE
8
Layer 1
10
-39.580500
20
39.681000
11
-39.261300
21
39.681000
0
LINE
8
Layer 1
10
-39.261300
20
39.681000
11
-39.228900
21
39.681000
0
LINE
8
Layer 1
10
-39.228900
20
39.681000
11
-36.971100
21
39.681000
0
LINE
8
Layer 1
10
-36.971100
20
39.681000
11
-36.654100
21
39.681000
0
LINE
8
Layer 1
10
-36.654100
20
39.681000
11
-36.654100
21
43.632100
0
LINE
8
Layer 1
10
-36.654100
20
43.632100
11
-36.971100
21
43.632100
0
LINE
8
Layer 1
10
-31.277800
20
43.632100
11
-35.228900
21
43.632100
0
LINE
8
Layer 1
10
-35.228900
20
43.632100
11
-35.228900
21
39.681000
0
LINE
8
Layer 1
10
-35.228900
20
39.681000
11
-34.638000
21
39.681000
0
LINE
8
Layer 1
10
-34.638000
20
39.681000
11
-33.294000
21
39.681000
0
LINE
8
Layer 1
10
-33.294000
20
39.681000
11
-32.863600
21
39.681000
0
LINE
8
Layer 1
10
-32.863600
20
39.681000
11
-32.540800
21
39.681000
0
LINE
8
Layer 1
10
-32.540800
20
39.681000
11
-31.277800
21
39.681000
0
LINE
8
Layer 1
10
-31.277800
20
39.681000
11
-31.277800
21
43.632100
0
LINE
8
Layer 1
10
-32.376800
20
22.125600
11
-32.540800
21
22.125600
0
LINE
8
Layer 1
10
-32.540800
20
22.125600
11
-32.863600
21
22.125600
0
LINE
8
Layer 1
10
-32.863600
20
22.125600
11
-33.213000
21
22.125600
0
LINE
8
Layer 1
10
-33.213000
20
22.125600
11
-33.213000
21
18.174200
0
LINE
8
Layer 1
10
-33.213000
20
18.174200
11
-32.863600
21
18.174200
0
LINE
8
Layer 1
10
-32.863600
20
18.174200
11
-32.540800
21
18.174200
0
LINE
8
Layer 1
10
-32.540800
20
18.174200
11
-32.376800
21
18.174200
0
LINE
8
Layer 1
10
-32.376800
20
18.174200
11
-31.445500
21
18.174200
0
LINE
8
Layer 1
10
-31.445500
20
18.174200
11
-31.277800
21
18.174200
0
LINE
8
Layer 1
10
-31.277800
20
18.174200
11
-30.958600
21
18.174200
0
LINE
8
Layer 1
10
-30.958600
20
18.174200
11
-30.725800
21
18.174200
0
LINE
8
Layer 1
10
-30.725800
20
18.174200
11
-29.852600
21
18.174200
0
LINE
8
Layer 1
10
-29.852600
20
18.174200
11
-29.261600
21
18.174200
0
LINE
8
Layer 1
10
-29.261600
20
18.174200
11
-29.261600
21
22.125600
0
LINE
8
Layer 1
10
-29.261600
20
22.125600
11
-29.852600
21
22.125600
0
LINE
8
Layer 1
10
-29.852600
20
22.125600
11
-30.725800
21
22.125600
0
LINE
8
Layer 1
10
-30.725800
20
22.125600
11
-30.958600
21
22.125600
0
LINE
8
Layer 1
10
-30.958600
20
22.125600
11
-31.277800
21
22.125600
0
LINE
8
Layer 1
10
-31.277800
20
22.125600
11
-31.445500
21
22.125600
0
LINE
8
Layer 1
10
-31.445500
20
22.125600
11
-32.376800
21
22.125600
0
LINE
8
Layer 1
10
-27.940000
20
43.632100
11
-29.852600
21
43.632100
0
LINE
8
Layer 1
10
-29.852600
20
43.632100
11
-29.852600
21
39.681000
0
LINE
8
Layer 1
10
-29.852600
20
39.681000
11
-28.589700
21
39.681000
0
LINE
8
Layer 1
10
-28.589700
20
39.681000
11
-27.940000
21
39.681000
0
LINE
8
Layer 1
10
-27.940000
20
39.681000
11
-27.245400
21
39.681000
0
LINE
8
Layer 1
10
-27.245400
20
39.681000
11
-27.164400
21
39.681000
0
LINE
8
Layer 1
10
-27.164400
20
39.681000
11
-25.901500
21
39.681000
0
LINE
8
Layer 1
10
-25.901500
20
39.681000
11
-25.901500
21
43.632100
0
LINE
8
Layer 1
10
-25.901500
20
43.632100
11
-27.940000
21
43.632100
0
LINE
8
Layer 1
10
-29.852600
20
32.878900
11
-30.725800
21
32.878900
0
LINE
8
Layer 1
10
-30.725800
20
32.878900
11
-30.958600
21
32.878900
0
LINE
8
Layer 1
10
-30.958600
20
32.878900
11
-31.196500
21
32.878900
0
LINE
8
Layer 1
10
-31.196500
20
32.878900
11
-31.196500
21
28.927700
0
LINE
8
Layer 1
10
-31.196500
20
28.927700
11
-30.958600
21
28.927700
0
LINE
8
Layer 1
10
-30.958600
20
28.927700
11
-30.725800
21
28.927700
0
LINE
8
Layer 1
10
-30.725800
20
28.927700
11
-29.852600
21
28.927700
0
LINE
8
Layer 1
10
-29.852600
20
28.927700
11
-29.261600
21
28.927700
0
LINE
8
Layer 1
10
-29.261600
20
28.927700
11
-28.589700
21
28.927700
0
LINE
8
Layer 1
10
-28.589700
20
28.927700
11
-28.508400
21
28.927700
0
LINE
8
Layer 1
10
-28.508400
20
28.927700
11
-27.940000
21
28.927700
0
LINE
8
Layer 1
10
-27.940000
20
28.927700
11
-27.245400
21
28.927700
0
LINE
8
Layer 1
10
-27.245400
20
28.927700
11
-27.245400
21
32.878900
0
LINE
8
Layer 1
10
-27.245400
20
32.878900
11
-27.940000
21
32.878900
0
LINE
8
Layer 1
10
-27.940000
20
32.878900
11
-28.589700
21
32.878900
0
LINE
8
Layer 1
10
-28.589700
20
32.878900
11
-29.261600
21
32.878900
0
LINE
8
Layer 1
10
-29.261600
20
32.878900
11
-29.852600
21
32.878900
0
LINE
8
Layer 1
10
-20.524900
20
43.632100
11
-24.476300
21
43.632100
0
LINE
8
Layer 1
10
-24.476300
20
43.632100
11
-24.476300
21
39.681000
0
LINE
8
Layer 1
10
-24.476300
20
39.681000
11
-23.213000
21
39.681000
0
LINE
8
Layer 1
10
-23.213000
20
39.681000
11
-22.541100
21
39.681000
0
LINE
8
Layer 1
10
-22.541100
20
39.681000
11
-21.869100
21
39.681000
0
LINE
8
Layer 1
10
-21.869100
20
39.681000
11
-21.787800
21
39.681000
0
LINE
8
Layer 1
10
-21.787800
20
39.681000
11
-20.524900
21
39.681000
0
LINE
8
Layer 1
10
-20.524900
20
39.681000
11
-20.524900
21
43.632100
0
LINE
8
Layer 1
10
-15.148500
20
34.304400
11
-15.067300
21
34.304400
0
LINE
8
Layer 1
10
-15.067300
20
34.304400
11
-13.723300
21
34.304400
0
LINE
8
Layer 1
10
-13.723300
20
34.304400
11
-12.460400
21
34.304400
0
LINE
8
Layer 1
10
-12.460400
20
34.304400
11
-12.460400
21
38.255500
0
LINE
8
Layer 1
10
-12.460400
20
38.255500
11
-13.723300
21
38.255500
0
LINE
8
Layer 1
10
-13.723300
20
38.255500
11
-15.148500
21
38.255500
0
LINE
8
Layer 1
10
-15.148500
20
38.255500
11
-16.411500
21
38.255500
0
LINE
8
Layer 1
10
-16.411500
20
38.255500
11
-16.411500
21
34.304400
0
LINE
8
Layer 1
10
-16.411500
20
34.304400
11
-15.148500
21
34.304400
0
LINE
8
Layer 1
10
-9.772220
20
43.632100
11
-13.723300
21
43.632100
0
LINE
8
Layer 1
10
-13.723300
20
43.632100
11
-13.723300
21
39.681000
0
LINE
8
Layer 1
10
-13.723300
20
39.681000
11
-12.460400
21
39.681000
0
LINE
8
Layer 1
10
-12.460400
20
39.681000
11
-11.116200
21
39.681000
0
LINE
8
Layer 1
10
-11.116200
20
39.681000
11
-11.035200
21
39.681000
0
LINE
8
Layer 1
10
-11.035200
20
39.681000
11
-9.772220
21
39.681000
0
LINE
8
Layer 1
10
-9.772220
20
39.681000
11
-9.772220
21
43.632100
0
LINE
8
Layer 1
10
-9.772220
20
43.632100
11
-9.772220
21
43.632100
 0 
ENDSEC
 0 
EOF